<mxfile modified="2024-03-19T08:36:09.353Z" host="app.diagrams.net" agent="Mozilla/5.0 (Windows NT 10.0; Win64; x64) AppleWebKit/537.36 (KHTML, like Gecko) Chrome/122.0.0.0 Safari/537.36" etag="INMfJl9V6cVe6VZDmTb_" version="24.0.7" type="device">
  <diagram id="Ht1M8jgEwFfnCIfOTk4-" name="Page-1">
    <mxGraphModel dx="2327" dy="757" grid="1" gridSize="10" guides="1" tooltips="1" connect="1" arrows="1" fold="1" page="1" pageScale="1" pageWidth="827" pageHeight="1169" math="0" shadow="0">
      <root>
        <mxCell id="0" />
        <mxCell id="1" parent="0" />
        <mxCell id="UEzPUAAOIrF-is8g5C7q-2" value="AWS Cloud" style="points=[[0,0],[0.25,0],[0.5,0],[0.75,0],[1,0],[1,0.25],[1,0.5],[1,0.75],[1,1],[0.75,1],[0.5,1],[0.25,1],[0,1],[0,0.75],[0,0.5],[0,0.25]];outlineConnect=0;gradientColor=none;html=1;whiteSpace=wrap;fontSize=12;fontStyle=0;shape=mxgraph.aws4.group;grIcon=mxgraph.aws4.group_aws_cloud_alt;strokeColor=#232F3E;fillColor=none;verticalAlign=top;align=left;spacingLeft=30;fontColor=#232F3E;dashed=0;container=1;pointerEvents=0;collapsible=0;recursiveResize=0;" parent="1" vertex="1">
          <mxGeometry x="120" y="170" width="1070" height="580" as="geometry" />
        </mxCell>
        <mxCell id="CqcbveRsFJppAcAiG4nz-35" value="" style="rounded=0;whiteSpace=wrap;html=1;fillColor=none;dashed=1;" vertex="1" parent="UEzPUAAOIrF-is8g5C7q-2">
          <mxGeometry x="255.5" y="281" width="190" height="209" as="geometry" />
        </mxCell>
        <mxCell id="CqcbveRsFJppAcAiG4nz-30" value="" style="rounded=0;whiteSpace=wrap;html=1;fillColor=none;dashed=1;" vertex="1" parent="UEzPUAAOIrF-is8g5C7q-2">
          <mxGeometry x="245.5" y="140" width="200" height="366.5" as="geometry" />
        </mxCell>
        <mxCell id="UEzPUAAOIrF-is8g5C7q-28" value="" style="edgeStyle=orthogonalEdgeStyle;rounded=0;orthogonalLoop=1;jettySize=auto;html=1;strokeColor=#545B64;strokeWidth=2;endFill=0;endArrow=open;startArrow=none;exitX=1;exitY=0.5;exitDx=0;exitDy=0;" parent="UEzPUAAOIrF-is8g5C7q-2" source="CqcbveRsFJppAcAiG4nz-30" target="CqcbveRsFJppAcAiG4nz-42" edge="1">
          <mxGeometry relative="1" as="geometry">
            <mxPoint x="445.4954071705556" y="316.56999999999977" as="sourcePoint" />
            <mxPoint x="602.51" y="316.57" as="targetPoint" />
          </mxGeometry>
        </mxCell>
        <mxCell id="CqcbveRsFJppAcAiG4nz-7" value="" style="outlineConnect=0;dashed=0;verticalLabelPosition=bottom;verticalAlign=top;align=center;html=1;shape=mxgraph.aws3.s3;fillColor=#E05243;gradientColor=none;" vertex="1" parent="UEzPUAAOIrF-is8g5C7q-2">
          <mxGeometry x="220" y="90" width="75.5" height="93" as="geometry" />
        </mxCell>
        <mxCell id="CqcbveRsFJppAcAiG4nz-3" value="" style="outlineConnect=0;dashed=0;verticalLabelPosition=bottom;verticalAlign=top;align=center;html=1;shape=mxgraph.aws3.route_53;fillColor=#F58536;gradientColor=none;" vertex="1" parent="UEzPUAAOIrF-is8g5C7q-2">
          <mxGeometry x="79.5" y="333.75" width="70.5" height="85.5" as="geometry" />
        </mxCell>
        <mxCell id="CqcbveRsFJppAcAiG4nz-5" value="&lt;font style=&quot;font-size: 20px;&quot;&gt;Route53&lt;/font&gt;" style="text;html=1;align=center;verticalAlign=middle;resizable=0;points=[];autosize=1;strokeColor=none;fillColor=none;" vertex="1" parent="UEzPUAAOIrF-is8g5C7q-2">
          <mxGeometry x="64.5" y="419.25" width="100" height="40" as="geometry" />
        </mxCell>
        <mxCell id="CqcbveRsFJppAcAiG4nz-4" value="" style="edgeStyle=orthogonalEdgeStyle;rounded=0;orthogonalLoop=1;jettySize=auto;html=1;" edge="1" parent="UEzPUAAOIrF-is8g5C7q-2" source="CqcbveRsFJppAcAiG4nz-1" target="CqcbveRsFJppAcAiG4nz-3">
          <mxGeometry relative="1" as="geometry" />
        </mxCell>
        <mxCell id="CqcbveRsFJppAcAiG4nz-1" value="" style="fontColor=#0066CC;verticalAlign=top;verticalLabelPosition=bottom;labelPosition=center;align=center;html=1;outlineConnect=0;fillColor=#CCCCCC;strokeColor=#6881B3;gradientColor=none;gradientDirection=north;strokeWidth=2;shape=mxgraph.networks.pc;" vertex="1" parent="UEzPUAAOIrF-is8g5C7q-2">
          <mxGeometry x="-120" y="341.25" width="100" height="70" as="geometry" />
        </mxCell>
        <mxCell id="CqcbveRsFJppAcAiG4nz-2" value="&lt;font style=&quot;font-size: 20px;&quot;&gt;Client&lt;/font&gt;" style="text;html=1;align=center;verticalAlign=middle;resizable=0;points=[];autosize=1;strokeColor=none;fillColor=none;" vertex="1" parent="UEzPUAAOIrF-is8g5C7q-2">
          <mxGeometry x="-98" y="419.25" width="70" height="40" as="geometry" />
        </mxCell>
        <mxCell id="CqcbveRsFJppAcAiG4nz-8" value="" style="sketch=0;outlineConnect=0;fontColor=#232F3E;gradientColor=none;fillColor=#7AA116;strokeColor=none;dashed=0;verticalLabelPosition=bottom;verticalAlign=top;align=center;html=1;fontSize=12;fontStyle=0;aspect=fixed;pointerEvents=1;shape=mxgraph.aws4.bucket;" vertex="1" parent="UEzPUAAOIrF-is8g5C7q-2">
          <mxGeometry x="355.5" y="240" width="75" height="78" as="geometry" />
        </mxCell>
        <mxCell id="CqcbveRsFJppAcAiG4nz-32" value="&lt;font style=&quot;font-size: 20px;&quot;&gt;S3&lt;/font&gt;" style="text;html=1;align=center;verticalAlign=middle;resizable=0;points=[];autosize=1;strokeColor=none;fillColor=none;" vertex="1" parent="UEzPUAAOIrF-is8g5C7q-2">
          <mxGeometry x="235.5" y="180" width="50" height="40" as="geometry" />
        </mxCell>
        <mxCell id="CqcbveRsFJppAcAiG4nz-33" value="&lt;font style=&quot;font-size: 20px;&quot;&gt;bucket&lt;/font&gt;" style="text;html=1;align=center;verticalAlign=middle;resizable=0;points=[];autosize=1;strokeColor=none;fillColor=none;" vertex="1" parent="UEzPUAAOIrF-is8g5C7q-2">
          <mxGeometry x="350.5" y="318" width="80" height="40" as="geometry" />
        </mxCell>
        <mxCell id="CqcbveRsFJppAcAiG4nz-36" value="&lt;font style=&quot;font-size: 20px;&quot;&gt;html, CSS, JS&lt;/font&gt;&lt;div style=&quot;font-size: 20px;&quot;&gt;&lt;font style=&quot;font-size: 20px;&quot;&gt;, 기본이미지&lt;/font&gt;&lt;/div&gt;" style="text;html=1;align=center;verticalAlign=middle;resizable=0;points=[];autosize=1;strokeColor=default;fillColor=none;" vertex="1" parent="UEzPUAAOIrF-is8g5C7q-2">
          <mxGeometry x="270.5" y="355.5" width="150" height="60" as="geometry" />
        </mxCell>
        <mxCell id="CqcbveRsFJppAcAiG4nz-67" style="edgeStyle=orthogonalEdgeStyle;rounded=0;orthogonalLoop=1;jettySize=auto;html=1;exitX=1;exitY=0.5;exitDx=0;exitDy=0;entryX=0;entryY=0.5;entryDx=0;entryDy=0;" edge="1" parent="UEzPUAAOIrF-is8g5C7q-2" source="CqcbveRsFJppAcAiG4nz-42" target="CqcbveRsFJppAcAiG4nz-57">
          <mxGeometry relative="1" as="geometry" />
        </mxCell>
        <mxCell id="CqcbveRsFJppAcAiG4nz-46" style="edgeStyle=orthogonalEdgeStyle;rounded=0;orthogonalLoop=1;jettySize=auto;html=1;entryX=0.012;entryY=0.644;entryDx=0;entryDy=0;entryPerimeter=0;" edge="1" parent="UEzPUAAOIrF-is8g5C7q-2" source="CqcbveRsFJppAcAiG4nz-3" target="CqcbveRsFJppAcAiG4nz-30">
          <mxGeometry relative="1" as="geometry" />
        </mxCell>
        <mxCell id="CqcbveRsFJppAcAiG4nz-48" value="&lt;span style=&quot;font-size: 20px;&quot;&gt;WAS 빌드 및 배포&lt;/span&gt;" style="text;html=1;align=center;verticalAlign=middle;resizable=0;points=[];autosize=1;strokeColor=default;fillColor=none;" vertex="1" parent="UEzPUAAOIrF-is8g5C7q-2">
          <mxGeometry x="531" y="358" width="180" height="40" as="geometry" />
        </mxCell>
        <mxCell id="CqcbveRsFJppAcAiG4nz-49" value="" style="rounded=0;whiteSpace=wrap;html=1;fillColor=none;dashed=1;" vertex="1" parent="UEzPUAAOIrF-is8g5C7q-2">
          <mxGeometry x="521" y="280.5" width="190" height="209" as="geometry" />
        </mxCell>
        <mxCell id="CqcbveRsFJppAcAiG4nz-41" value="" style="outlineConnect=0;dashed=0;verticalLabelPosition=bottom;verticalAlign=top;align=center;html=1;shape=mxgraph.aws3.ec2;fillColor=#F58534;gradientColor=none;" vertex="1" parent="UEzPUAAOIrF-is8g5C7q-2">
          <mxGeometry x="490" y="90" width="76.5" height="93" as="geometry" />
        </mxCell>
        <mxCell id="CqcbveRsFJppAcAiG4nz-50" value="&lt;font style=&quot;font-size: 20px;&quot;&gt;EC2&lt;/font&gt;" style="text;html=1;align=center;verticalAlign=middle;resizable=0;points=[];autosize=1;strokeColor=none;fillColor=none;" vertex="1" parent="UEzPUAAOIrF-is8g5C7q-2">
          <mxGeometry x="506.5" y="183" width="60" height="40" as="geometry" />
        </mxCell>
        <mxCell id="CqcbveRsFJppAcAiG4nz-57" value="" style="rounded=0;whiteSpace=wrap;html=1;fillColor=none;dashed=1;" vertex="1" parent="UEzPUAAOIrF-is8g5C7q-2">
          <mxGeometry x="802.75" y="140" width="204.5" height="366.5" as="geometry" />
        </mxCell>
        <mxCell id="CqcbveRsFJppAcAiG4nz-62" value="&lt;span style=&quot;font-size: 20px;&quot;&gt;RDS&amp;nbsp;&lt;/span&gt;" style="text;html=1;align=center;verticalAlign=middle;resizable=0;points=[];autosize=1;strokeColor=none;fillColor=none;" vertex="1" parent="UEzPUAAOIrF-is8g5C7q-2">
          <mxGeometry x="790.5" y="184.75" width="70" height="40" as="geometry" />
        </mxCell>
        <mxCell id="CqcbveRsFJppAcAiG4nz-63" value="" style="outlineConnect=0;dashed=0;verticalLabelPosition=bottom;verticalAlign=top;align=center;html=1;shape=mxgraph.aws3.rds;fillColor=#2E73B8;gradientColor=none;" vertex="1" parent="UEzPUAAOIrF-is8g5C7q-2">
          <mxGeometry x="770" y="103.75" width="72" height="81" as="geometry" />
        </mxCell>
        <mxCell id="CqcbveRsFJppAcAiG4nz-64" value="" style="outlineConnect=0;dashed=0;verticalLabelPosition=bottom;verticalAlign=top;align=center;html=1;shape=mxgraph.aws3.mysql_db_instance;fillColor=#2E73B8;gradientColor=none;" vertex="1" parent="UEzPUAAOIrF-is8g5C7q-2">
          <mxGeometry x="930" y="254.59000000000003" width="60" height="64.5" as="geometry" />
        </mxCell>
        <mxCell id="CqcbveRsFJppAcAiG4nz-42" value="" style="rounded=0;whiteSpace=wrap;html=1;fillColor=none;dashed=1;" vertex="1" parent="UEzPUAAOIrF-is8g5C7q-2">
          <mxGeometry x="513.75" y="140" width="204.5" height="366.5" as="geometry" />
        </mxCell>
        <mxCell id="CqcbveRsFJppAcAiG4nz-45" value="" style="shape=image;imageAspect=0;aspect=fixed;verticalLabelPosition=bottom;verticalAlign=top;image=data:image/png,iVBORw0KGgoAAAANSUhEUgAAA2EAAAEhCAYAAAD2y6h6AAAAAXNSR0IArs4c6QAAIABJREFUeF7snQd8XNWV/899fWbUZUmWLNuSbLk3XMEGN2yaMaYZ0yGQsMluQnaz+Wc3u5vNZmuyS4AkhDSCaaGEYpob3djGBRv3rmrJqlbXzLx+/59z34wRBoOrsMmZz8eRsWbee/f77rzc3z3n/A4DehEBIkAEiAARIAJEgAgQASJABIhArxFgvXYmOhERIAJEgAgQASJABIgAESACRIAIAIkwmgREgAgQASJABIgAESACRIAIEIFeJEAirBdh06mIABEgAkSACBABIkAEiAARIAIkwmgOEAEiQASIABEgAkSACBABIkAEepEAibBehE2nIgJEgAgQASJABIgAESACRIAIkAijOUAEiAARIAJEgAgQASJABIgAEehFAiTCehE2nYoIEAEiQASIABEgAkSACBABIkAijOYAESACRIAIEAEiQASIABEgAkSgFwmQCOtF2HQqIkAEiAARIAJEgAgQASJABIgAiTCaA0SACBABIkAEiAARIAJEgAgQgV4kQCKsF2HTqYgAESACRIAIEAEiQASIABEgAiTCaA4QASJABIgAESACRIAIEAEiQAR6kQCJsF6ETaciAkSACBABIkAEiAARIAJEgAiQCKM5QASIABEgAkSACBABIkAEiAAR6EUCJMJ6ETadiggQASJABIgAESACRIAIEAEiQCKM5gARIAJEgAgQASJABIgAESACRKAXCZAI60XYdCoiQASIABEgAkSACBABIkAEiACJMJoDRIAIEAEiQASIABEgAkSACBCBXiRAIqwXYdOpiAARIAJEgAgQASJABIgAESACJMJoDhABIkAEiAARIAJEgAgQASJABHqRAImwXoRNpyICRIAIEAEiQASIABEgAkSACJAIozlABIgAESACRIAIEAEiQASIABHoRQIkwnoRNp2KCBABIkAEiAARIAJEgAgQASJAIozmABEgAkSACBABIkAEiAARIAJEoBcJkAjrRdh0KiJABIgAESACRIAIEAEiQASIAIkwmgNEgAgQASJABIgAESACRIAIEIFeJEAirBdh06mIABEgAkSACBABIkAEiAARIAIkwmgOEAEiQASIABEgAkSACBABIkAEepEAibBehE2nIgJEgAgQASJABIgAESACRIAIkAijOUAEiAARIAJEgAgQASJABIgAEehFAiTCehE2nYoIEAEiQASIABEgAkSACBABIkAijOYAESACRIAIEAEiQASIABEgAkSgFwmQCOtF2HQqIkAEiAARIAJEgAgQASJABIgAiTCaA0SACBABIkAEiAARIAJEgAgQgV4kQCKsF2HTqYgAESACRIAIEAEiQASIABEgAiTCaA4QASJABIgAESACRIAIEAEiQAR6kQCJsF6ETaciAkSACBABIkAEiAARIAJEgAiQCKM5QASIABEgAkSACBABIkAEiAAR6EUCJMJ6ETadiggQASJABIgAESACRIAIEAEiQCKM5gARIAJEgAgQASJABIgAESACRKAXCZAI60XYdCoiQASIABEgAkSACBABIkAEiACJMJoDRIAIEAEiQASIABEgAkSACBCBXiRAIqwXYdOpiAARIAJEgAgQASJABIgAESACJMJoDhABIkAEiAARIAJEgAgQASJABHqRAImwXoRNpyICRIAIEAEiQASIABEgAkSACJAIozlABIgAESACRIAIEAEiQASIABHoRQIkwnoRNp2KCBABIkAEiAARIAJEgAgQASJAIozmABEgAkSACBABIkAEiAARIAJEoBcJkAjrRdh0KiJABIgAESACRIAIEAEiQASIAIkwmgNEgAgQASJABIgAESACRIAIEIFeJEAirBdh06mIABEgAkSACBABIkAEiAARIAIkwmgOEAEiQASIABEgAkSACBABIkAEepEAibBehE2nIgJEgAgQASJABIgAESACRIAIkAijOUAEiAARIAJEgAgQASJABIgAEehFAiTCehE2nYoIEAEiQASIABEgAkSACBABIkAijOYAESACRIAIEAEiQASIABEgAkSgFwmQCOtF2HQqIkAEiAARIAJnigDnu7TDIOsmeGoYNDcLbJOxkfaZOh8dlwgQASJABE6eAImwk2dHnyQCRIAIEAEi8KUTaOEtaS3t5SUVh/bNr22qmRiNdWfJstzZP6/vnuJ+Q1eMzh24mrFS60u/ULoAIkAEiAAROEKARBhNBiJABIgAESAC5ygBzrm+q2HV1A/3bfhBZeO+aZ1meyrIHFRJBsWHWE5qftnUUbN+0a9k0jP9Wf/4OTpMumwiQASIwFeOAImwr9wtpQERASJABIjAXwqBstZto1asW3J/ReOO2X7Yll3VBs1QgDs2qFyG+GEHCtOH7b906nU/Gttv1ouMMe8vhQ2NkwgQASJwNhMgEXY23x26NiJABIgAESACxyDAOVfe3vvSd1dtee0HcbU1V82SoNPtAI/bwB0XQpIOqhUC3hZ2xwyY+splc+74di7LbSCgRIAIEAEi8OUTIBH25d8DugIiQASIABEgAidMoIlX9l3y5pO/29/80aVeuFvvkrrAURzAPERD1YB3u9BHzwPeFoFUN6/i+su+fuPQPud9eMInog8QASJABIjAaSdAIuy0I6UDEgEiQASIABE48wTq+K4Bf3j6gRc75YaJkGZBs9UERlYIHN8B3/MgTYqA1wEQtnMhZGY333DxXXeNLpz6+pm/MjoDESACRIAIfBEBEmFfRIh+TwSIABEgAkTgLCTQwg8UPv7qw080xitmeSlxaHPaQE5RwJNd4JyD5sugWSFQo5lgmNn1d13z7RsGpY1bcxYOhS6JCBABIvAXR4BE2F/cLacBEwEiQASIwFeBAOcH9KfWvPjrXVUf3u6Fo6qjOxCXYuAzHzj4AC4Dw4uAHs+GPG3g+uvm3Hr7oPTzDnwVxk5jIAJEgAic6wRIhJ3rd5CunwgQASJABP4iCXDO2aa6ZTeuXPPSf7eYDUVKJoDJoyDpEnDPA5VpwKMqpLG8psnDZvz88pGTHqTmzX+RU4UGTQSIwFlIgETYWXhT6JKIABEgAkSACBwPgU6+r8+7W9Z+d1flpm90OS153W4bGBFVpCM6MR9S5IyOkvxRr06fcMnPSlMn7zqeY9J7iAARIAJE4MwTIBF25hnTGYgAESACRIAInBECGA2ri5cX7q3cvmh3xebrGluri1zuqrIs+X3S8+oHFY5YNnLwmMUlqZPLGGP+GbkIOigRIAJEgAicMAESYSeMjD5ABIgAESACRODsItDEm1I6u+uLbKt5cNzq1lU9ZIWUtIOR9IF7C1hB7Oy6WroaIkAEiAARIBFGc4AIEAEiQASIABEgAkSACBABItCLBEiE9SJsOhURIAJEgAgQASJABIgAESACRIBEGM0BIkAEiAARIAJEgAgQASJABIhALxIgEdaLsOlURIAIEAEiQASIABEgAkSACBABEmE0B4gAESACRIAIEAEiQASIABEgAr1IgERYL8KmUxGBc5UA51wNrn03AxiBPwFgBAcA8Ycx5p2rYzvWdaP1N2MMx0evM0SAGB8bLLE5Q5PuOA57ptjjcQFABgB8tjjHcSn0FiJABL7CBEiEfYVvLg2NCJwqAc651gzNmgXNfds6Dw/paG8Z3B3vTuMMJFVhzOWOxyXmM+77HCQO0sdnZD586vnCJSHajuslwRcLII4daY/zhaueT7zVA5BAE//kc8588EHyuatompsSSeuKhFIrslMKKvLBb2Ss1DrO05z1b+OcSwC7lUbIVh1o0Q2QDRfimgSK7IPrKRCyDZAdFxQnDi12PkywGWPu6RgY51w+DPvCHighD0D3rLgm6Up7PxjWdqI9rHAcVVClpYGruSCHHKszvaWzPc+zfS1iGF16ampXqmZ0MZC6TAg5+WD5AEXWmRDWuLiuhVrDAJ7pQJfigeNFILU7E0q6T2SDopJXGga4qSa4ERkUWQHZDQHryICi6Bct2pFtK7RGuqArYsZMFglHmAyylQ/5HV/02eS9xWPUQq3mg2+ooMoWWG4RFOEYTuj+43OjE2pTXDDDeGwLJEkCR9ZA9Szw4yHQ3HSQTIBCnFtf2gYOjrcdqlIdAIODE3acaFo82p1hulaK53nAfU9RVd0LhVPqU8JZbalgmCbYeF+7TmS+4nkOwd4M17EHWk4sz2W8JTdUWNsH+jcf7705Hd8/OgYRIAJnFwESYWfX/aCrIQJnDYFKvqvv4cbGybWN5bPKDu6f0tLeONADO13WQMHgl8ccYAyXnz5jXNJQxjBUWWfPT36M68HrDThzDbekxR/OPd/3fWBM5iHNsMJaWkvf7H4f9etT9H5R4fA3Bmlj9jPG7LPmBp3AheAisAHKstpjLQMOdzUNaWisGdrW1lwcjbXnW46d5thmyPe5KsuyGw6HulPDqYc1PdxY2Ld/bUakz56slOyDRkgr7wt6B2MjT4pBG6/MqO8+OGb7vh0LqmorJkZj3ek5WXmdBbmF24aXDFuSnT50Q1/WN/pFw+J8k1pusYGH2xrHNbU2TKlrqh3W2Fifb9umruu6KiuS5nq2Y5uOYxjhWEZqZlPfPgOq8vv225uTlbchPazvzoMxsdMlxlBwlMW3TNhxYPO8qvqK8zu6W3JCWihW0Kf/9qFFY1YMzx/xfhorbDnWuGp4Tci2Dhc2tzeOqG2uurCuoXZUZ6wt33McIyWc1pkRziofXjxu+agBY5amQr/PFKuc14R2HK6cXFZbdk1dS+3owy0tuaFQqLt/YeHOQQWlrxTkjXi7P+sf/zy2lbwyo6m28oqahvLZBw9Vj+joajH6FRRWlwwcvKO4//DnSzR7L2MTPzd6gxHzanvn4ENN1RPqWmsmNbXUjbAdJ9e0orpt2yD5kmXooe5IKNJmqKHa3L4DDmRn5OzOzcwrl/T0g8Ws2Pyi+386fo8CvhXKUlrMpnENzbUzag4dHHe4pbk0Gu/Mcnxb9X1X5sznqqoy18XnmuyGtZR4Zmaf6vzcwk39BwxcNjAlZ0s6jG7/vHmUiHwpZR3rR+8s23Z3dVPVxW1dbZlMZfHczII9w/NHv1BaMOzlwrThx5wfp2O8dAwiQATOTgIkws7O+0JXRQS+FAK4aGiFstSy6vKLdlft+KuKQwcmOyya7Su2wjQXfMUBx7fB8y2MHoEkaQAcY1YMOOPn3E8Rv5MYSLLIDwLPc8BzfGA+A8XXQGUGqK7RnpNauGfEoLErRg4a/UyhPq7iy9y9P5GJgYvi2vi23IMt1bMONuxfUNV4YMThtvp8V7JDekgxfN8FP8goPXJYxvB+4h+Fgyubim90RYzM+oLs/vsH9hu0uX/uoPdy0rL3HU90JnnQBt4Q2Ve59sbNezbcW9dSU+IrTooe0iEejQFzZCs3Pf/ABWOn3z+mZPxLWWxQx2eNEcVKNHqotKahYn7ZwV2XHGyuLO22O3JwU0BVFQCM47kuuB5qRA6KooLCFHAtAO4olqaEOjLCmfUFfYs2lQ4a/lpx9tC1+TAERc1JR2I458rGQ8unb9ix6l9qW6smu0o8IikYWgXglhpPU3LrLxo3+7FZQ0f87GjxivemwtpWfKBu3/V7D2yb09RWN9hhsTym2JrPHcB7w7gCkqX5WeG+tROGTv3dpFEXPpzJitt78kEB9mHttus2bl/1/+raaoZYzDRc8CAU1sHsisKAvOKqMYOn/N/YkilP5rBhXZ/FtoGX5X64bc13dpVv/GZbV30fOeSCogDE4xYYcsQuyhuy5fyx0/9tRNYVb31WVEyIwOaKSXuqds6vbiq7oC3WNMyCWJbHbAaSBz7zxWkln4vnhQwySKBwiYfiYSWtKzutT/WA3OI1JYXDHh+Vmb33ZIX+F303UHy1QUXqwdqq2WW1e+ftrts2K+p35ruuHWKKD7LKwGcueOIZ54DEFMBnBPNkkCQVZNBAlQ0IGZHqDC17/ewxc17sbxS+m5o6pOWzxBjnu7T1ZeVXf7Tvg+82dNSNs6R42JEscJkHimdAH69v1dhBE54bP+783xSERlR/0fXT74kAEfhqESAR9tW6nzQaInDSBDBaUtaxeezmnWu+s7dm92XdbltfZvjgSjZ4kg0gu4ALKhcwAuYBkxUAD1ecEhydFZj876MzAE/64s7YB33wfU9cP5MlYJhRyWWQGQMZVLC6LEgPZQKYKjjdfldxTunmyedd9PCAfsXLc9nI7jN2Wad4YBTTnVCbuat262V7yrbcfuDg7tEWRAvUCANfssBhJnDJB5A+Kz80EGFYvqJyHcCXhSAFR/K8GOsMGSmHiweWbh9cOOzdQQXD13A1vL/wC9LKth9eMeetjSvur6g/MFrL0EA1ZOjo7gBZZpCVmg3xFhPS5Jw986Ze9d8T+l/51NHDb+K7+u7ev/2mj/Z9eEdda/UQR7FCSoQBaC443MIoJvgMhTQE9zIZ3XR9seBXWQjAk8AxPeAe89IimY15Kf22zBo//09ZSu6bBWlDD58M8r3d68e8veG1+6oO7ZwhpdiaK1vggAOKogO4KijxMOhuRvXsKfO/P3PwghdxoY73ph2q0vdU7b583e73v9FuHZ7QZbalcSkOkuYByI4QLWJTwARI0TLAPOxDbmRAxRUzrvuHsfmzXuh5reXtGyYuX/PsQwcad04xMgzgmg+u74DPXZCZBPF2EwrSBlXOmHTZjy/sN+NFxgpiPT+PAnl/1brbV29Z+aPm7up8TBQ1wgpEu9tBNzTwLR94TIPSwjHr50y+9s6StAv3JT+PomZ/17ohO/Z+dO/eql2Xt8ab+oPuyVx3wZVM8CR8ZgT3A2PPDLOHUYihsPElkLgOzFPAt3HTQ/dy0/P3Dy8a/eKoool/KkqdgJHnQL2d4guZd8DBjINt5Rds2bb+zqpDFTMsiOU6RhRcxRLX5zMOPnjgcRsj/CDJQYRcRMdBAplp4DkArsPFs8GACBjRUMPY0gnLxo4Y/+TgjML17KhIXlV00/gV7y/5w75D28drmRJg9rPpm6IqTHJU0KMRMOxI44VTZj988Yhb/utUNgROERF9nAgQgS+BAImwLwE6nZIInG0EUIBtaXjzwtWbV/znobaKqTzsShbEgGscPFys4+Y+E+sp8RKLKSG/hC3H2Tac47+eZNkZx0VYckQ4XixvwzQkAJkpAA6A7Omg+GFQpdSyUUPGPX7+6Dm/HsjGtB3/yXrnnRhh2d394ZD9Bzd/beOO1Qu5HB2A0tkFFNISgCqBx7DaxwIfd/dlFZgI3wC4ricWnVjBo2B40PNAQkHqAyi4EMUID9bSecznrt7WN710z7gx57/SN73v+9lpJbs+K52Q80rjiQ/+8L/7m3Z8u5vHmK/6ICkGWE6wGJV9CTRHBimmeuMHXvT8FRcu+lYy2oOL57LY++M27Vj97e1lWy+PQXe+mqKAJ+OITGCSCy73wcc5KMuJcSQ2BXxcLDNcNYMqMZAZgOe4Ymz4xzcVCPPcgyMGjX/uwvEzfzeATSw/kTuEnJeVPfH3729d8T1fasxhehzivglcZiBpKtgWA8MNg+FlQ7/Q4Gcvm7ng/w0O9WupgsN5m7au/8bWfRsXmqy91FdjIMk4wXxwuQ0e9wGYDBJTgXFNCGBcsMum4U4aOuOhyRPn/VMytRBF0EubHv7XdWXL/l5J91OiTpBxiFNZkkAcS2M68LgEJX1GvnjDrL/+x1w2uKznOGvNrUNeeP/pxdWd+6c6ShfIqgTcVgJ2YILkexCWw2C1yx0zJiz8r3mj7/g//Hwdrwsfats8c9X6lf+vtvHglFC6FnIkEyxuAVM5uD6KfAYSzi1M/+UeMM8FBj7ILJhjju2CrofAtRhwFMwMz63FBvcb//asqVf8ZJg65aNTTRtFRvWwu3DD9rfu2npg4y0xt71E0rlkgwmuSKlG8a6Ib7zYUAJJiDCcm65nJn6P6cqBcMT3MFBB5gp4pg+pcooZ4aG9M8bP+d20kjlPAORj3aGIrr6267Efrtm27L+dUCfEeSdoug6IBZ8pjuWCoYYAYgoUpgzadMPsm67tF55ccyJzkN5LBIjAuU3gHF49ndvg6eqJwNlCABeTm6pXzF27/Z1/a+qqmOgaUWYrUXBlG3yJYQABgONCShYREhRiuJASguyLvTPOlmF+5nUc0WDBshVHBSA23z0AhulgHsiyDL6LETJViDDfViBsZDcOyh363MyxV99fchalEWH60/bOtvEfbH37Hw/U7roYtO4UT4qJiJOkqOD6AI7nAqgeKJoCHpfAdj1wMQVTlkBRtGC8vitSM5EK4z7IPLjfwX9jIpkMMjfAtXVgrtFWlF+8a+KIqb8pyZvwytFCrIuX5T725n3PV3XtmW7KNngKB1kywAMOLvcgpOngdcYhU8mBNC+//IYr77q+WJu8FTcGdra9cfl7G5Z/p7pxzzQ9S4vYkgtdZieACqCFZLDNOCiKAkzWwMEAi8eEIAsieRwMRQbfs0BlDBSZi3Hhv2PMAyMwmpQJZrvUUZxXuubC8+bcN7HP4HXHa8LSysvTX974/OKt5WuvUcOtIGkWWNwDDwWeIqH2A83VQbMiEHb7ll1/1Y3fTQ9Hat/74P3v7qjYNl9O8XM4i4IHMfCYDUzmQrR4OA5UAFwWqbEhJQyyowDEVCjKGv7qtZffcVchC2qIUAgtf/+Rp7YceucaloYCTg6iTrjQl2XwOIpoGXjch1xjYPWi2X97U2l4/LqeX4a9LR9c9vy6xc81uNVprhoHSUI7j4gQCr7fDQp4EFYUcDpVrzR/6nNTZ137tUyIK7tqKu5Ys3nltzvMxmGKBhLTPei2O0RasmYYIs3V8TAyKWMtmBDzCgoecIEnI3WyDLKkotYX16srMsS6PAAzzcvLKFo/a8qsfzm/z5VrTtQYJDk+fLZtrXt38tayD/6upnX/rA63KcuRY2L++CJiiWP0xTUK7csCE1gUkJiOqOs4ehc4fmfEKxDwKJBRXDqOA5hxmc4ikMFyqs8ruuipyePm3p8GhZ1lUCavWf/S41sqVi2SMuKAm1r4GdfiYMiGOC8KXi/GIFcubrx2xq0LR2bNXH1WPzDp4ogAETitBEiEnVacdDAicG4RwCjFpobK2es2vfnTyoa9o7V0F3wtDnGvC+SwDA5GGRjuYisgJRa3yWiYKHw550UYCi7c/T5ahOHYPGC+B4oqgWt7AJ4MupwCvqOAZ0kQhozuCYMmL75o8sIfHo+hxJmeGWhYUelII95ev+yne6p2zpUjtuxJUZBUrC/ywXJxQa6AKhaWFsTtKKiyDBKuoCVJRE2wpgrfixEzXBSjYMGICGMyMB8XqsmfQcqiyiTwbA46RCBTK9h+4yVfv6c4PHJDz7E2mttLFi9/4PlGp2K8F+LggCuuQ1IUsFwHdEUFZvlgeBHQrQzzunk3LxybGl7x0eH45e+uXfZPHVbDhC7nsAo6BzmiiVQ9h2Pdlwu+64qIHQovG6OzWG+kaWJhj9ftOhYwUYfki/GIcXqeyIhTZQ24LYu0snib6xdkDdp+ydSrHhyXM/PJ40mDq+d7iv608tHnyg9vmxxOwyijDS6XAWM9LmooHyAEKrC4Cik8O3bJ9Ln3HW5pLtm4Ze2CmBRLVcKY/uqB51ng4XdJBIxQomB9ZUBQlSWQMP3NlcBwUqCPMuCD2xd8Z2EOG1aHv6/le7JfWfnkk2VdH15uaZ0iwogvjCopKKZRbKJwsBmE7MzWRbP+9uZxedNX9rw/W+reuuX5tY892qU2aZ4WwysBxYmI+ifOcY5wYOiV6Uegf+a41ZfPvuG2ytr9cz/YvPrHrWZjIWgOMBWr0OJiXslacP3RaBSMcFoQORI7OagxOXCOEeYg4oqPD5xbqHFwrmkqhp8UYHYYDJYKeen5m+ZecOX30lIHbfoiY5Gjv19Yr7fj8LvTPty++id7qrZOdbWYiimstoSbSy7auwYiSkTCEsDFBgxG5LBWFIW8D47viQ0I/G8h0LDuEG8uCl5Jg5ASAog6AN0K5GgDGyeOm/7IuBHTf2VDp7Jk1dOP7D+09TIlA5NUMUqZ+L6oeiIFmoEfkyHNyW+7euYtt07Kv3zZmX5O0PGJABE4ewiQCDt77gVdCRHoVQIYadgf3zRh5dpXH6qq2T3JSJOAq5hS1QG+7IIv+cAZtrRBERb8FNGQpIcDw98ft0N8r47teE+GUR6xaBWte3pGwoKURMadIDKEC3dPAlWKgAK6qIVD4aHE5Lbpky79m9mlNz17qmlTx3vNx3pfLd9W+O4HK/9ne9mmRSziq5bUCbLugsdxoYkRB01E9DANUJY90DQFuIuL4uBPUFPFMBNO2HRgTZFIKRO7/4l0LZwHHG390VgBF80c7JgJETkVrDale/qoBb+9ZsIdP+wZuajp3jP6yTfve/qwWz2KR3ywfEvUaWFNoUi98xmovgxgSpAi5/DL5sy/TZeNxvXr1v5nVcPeiXoqkx2IgeXbwHDh7NlgeSZEDKwnksXmgLh2UdMX1LLh4tp1bVAVRUQ7hPDCaIuqiGggRml01QDmcNBAA9nVwOrikBvpd2D65Eu+c0H/eW9/UfQFRdhjyx5+rT5aPkoPm2C7WGcXAY9JGDsBGcM+jgeaJ0MKT4OB/Qrb6xoPpXfEW1goy4C27vYg5ROji5gmyhg4gCmJIiQDsiKJCIyMaXoOA92OQEnGqLdvvexbN6Wy0mb8XDuvznzs9YderPd3z+qCVlD1kBA3nu0G8xbNcnwAnemgdKd03zjrO7ee13f2Kz3n0ObaN294cd3ip6LGYdWRuwVL1UkVJjvAHNBUgHhXJ0TUTOiXPeLgsNIxv9q+c9td1fWVw1kE5wvW45nAwRLpoeKrlHg5DhcpolKidwVG5kTdpeSDghEwm4MiKUcEP94n5iug8ggongpuNA5jS6csnzb+2n8s0UdvP97vCD7b9ra+PfntdSt/0tRVOzfmd4AcBvBxvnLcBuAJoYuscUIEP/EpBNWBAAAgAElEQVTOBd/7ZG1hEFEVViKqIlI8RQ0p1h4yCRwXRyYBMx1I1dLBaZNBk9Iapk2d+9Cw4sEvvL7+pV9X1O282FOxPs4JUjM9FHnBnMTIp+wYkGLldV594aKbJvWfTyLseG8yvY8IfAUIkAj7CtxEGgIROBkCaBm+cturP/tw35p7LLcTUjJ0iJpt4EsOhCIGxOJxUS+UFGFJvRU8NBLiBXe2T+UpckofPvV0yM8UYWJVHOyIo0sd7oCLaJCoa1GBexJwXwKdayA7uHAv+vCqS7/+zVJt7Ecncx9Ox2c4P6CvO7T1e8veX/KPnV5LmpGhQLt5GPRwYC4g0kk9BWRmiJQwzk1wTRcUD6NgQQqWh5EkNITA4ik0YEEHNx2jKRw8jnYsopNaImqoBOYsfhy440JETgPenQLFaZOeuu6Kr/9VQQ/zh1p739gnl//8hSazYjAP+4GxS+K+S7IaiAbLg7CeCmBpMG3qzPurKysnV9ccGK9H/HBnvE1ELTRDB9tCwwoOGl6X66NzJbg2ppNxkHBgMqbzuWLMKIIcywQjHBLCxrJt4LISLJ4xMiZJEAIZnJgJuhoCxTfA6vIhP7P/nukTLv2H8wuuXP55QqyOVwx8YuUDLzXGy8crmgUxC8Vtqqizc9AUQ2HAPAdUbKpnctA1TAe1hNGNLXnAFBlr64KvkoSGKUJJBjVugQwWaZQhWQMW58A7FT5x8IxfL7rg1h+whN18B6/J+t2Snz/fIpfP7vCbQDPCgaB2vEB84j1zPAjJIVCjqdZNF9+7cGzOzNd6zrkt9W8vfGndY093qo2KLXUIdqqXIjYdgNmgqBw81waFaxBiORAOp3Ydbm1KZRqAK/uiBg64I9J3MXKHwlHYujNM28N5gpExjCJhBMkDrMYSUWaGhi8GuA7+nR0RYqgCmauAbzmgSxxSpCw+eeT8n40aNuffjzcatr9j9ZS3Nyz/WU3zvhmuGhVmJb7sBZF9jJwCE1FYw9CE0yv4DmYogqoE3QlRHDqOBymhDPA8DtzhoqoSUxiZ5ANTcL7JwCUdOjo6IC1sgKHo4JsS2HGAlNSsqsmTJj15oGLfNbXNVaM8MNEaUowZdwNEPZzjANqyan4EImZu+4KLFt0xsWDea1/2Zs7peB7RMYgAETg+AqeyfDq+M9C7iAAROOsIiFSdtncv+fP7ix9t95ryJNkDVWNgOXHhDqaqasIZDIUHCpDAuAFrwZICDHeMgx3hUxjeKX34NIgwsfMtDM3FQILUy2RdGAYkgtoQjACiIMVdb89lYoGKJTw61rm4KTC25OLfLJow73tHu6OdApkT+ughc9vQZev//PuK5j3TXSMGphcFPaKAZXeL3Xffk8G3ZJC9EGhMBVXyHcmT2yJadmtaKLvbMIy4w10ei3anxsxolunEsi0/FuGyz9DEw1UwXQ7TFNFkECuquEij02QfUvQIuFEOfmcYSnMufOGmuTd+vafNfLV1YOQzK+9/pTFePoiHfOG0KXNJiC9FU8GM43zTQQIVuK9AdnZ2Z13dQU03JMPxo0HNF0YOXBm4y0BXdFFTZEdtiEh9hJslyKhasMbMYo5vCTGg6BLEzSiouirMZTBhDrBWS2ZC6HDfBc3zIWKEIBa1QZZ1SNFSoLvFgoHZpRuvueyWO4rZxL3HuhFChK24/4X6+P6JquaC6eAxEiLMs0GSOGgaBzsaB0PSQFEkcPy4uBYbBZaqC1MS18Z0UXTjk0FSg5YPuPDHtLewGgIvhtepQn5q0UeXT77q74bnXLI6uVDv5LXZv11y3zOHpbK53axFpJYmFPWRSBiKMIz2abE098Y537n6vJzZS3uOaWv9Oze8tP6xZ9pZneQqXcIVUHJCwaaD4oPtxCEcwiIqGcwutP7XQVYCnt2mI8QxbmZwzwNN0kDHthUeA89FV0RZpPOheyVoWAPlA8f0WG6JMWJ6r2Xa4CdqL/E7iPNVZZhO6gK4MQBLhRxtxIFbrv7r+f3Y2CPOjMe6LxgdfOHdJx4or9t2h69HwZFigOaeGNm3XdxoQM6GEKuua4IqMyF2uecDt9E9UxJmKAoLA3dlLgvLSvQi8mVfsoEpWC/qiIiaL2M9Ih7SBteJg6YaaL0PtgWQnpFV7/lOVizWrQu3RQWfG5iG6YGscPBw8wEYGF4qirDOK6cuvHNy4ZWvHE8q7Ak9HOjNRIAInLUETmX5dNYOii6MCBCBzydQw3dlvbfx1V9urHrvFgijy1zgpoY7tJYVFwskwwjjBnHSAzFxwET6TqKvlNBQpyqkvqybhalaxxBhwZB80T/MddGgIrAMl7DmCNOrRGqfI2qOIlI6GHZO1XVzvnb72C+psH5z87Jbnlv+x1/ElLZsI1OCmN0FoHAR9cKohCanQkhOB79LA8mWmov6DVg9fNCYJflZA3ZLclo3477lcdlTGaiWbfVpbm8a0dLZdF5Fzb4Rcbd9WKfT2tf2o6qr4iLUBU8KFtYKkrEwmTMEqpXOR/ef8dvbpt37XcbYkaa+lda+Yc+u+MWSJrt8GBg+YJNvTEfEz2M6q4ORtHAqdHWbYs5hrRq60qWmGWCaMYgYqeDZKoCNUiIMnuV7mgSdfbMKa1K13MqwkVEXDmkdnuRpjh1L74q253V0NA9p72otUA2WEo13gsUsVMyAzoyujPbpXIgwxfdBBQV8FIX4JfAwKscgS82xizJH/u7qGQv/6VitCGr5gcKnVj748qHufRPUkCds4ZkUAo8H0bjA2IWDZ9kQ0kMgyxJE0VREkUENpQrxGVIV4E5QsyejOMC55StCjDJfFREhydXcnJSCneOGTfr13CHTn+5pMY8i7JHXfvFcvbf7YqwJw0glCrrA2RAzPdFQhoHsMdDjmd6Nc76z4FMirOHdRc+veeSZDqmeSQbWLXHwLQUU2RAiLO7EQNMwFVcFx+Jig4ZzF+IWPjfCENZThKi2ox74JngaM8yImuYoiu6joHQ9W7L8eMj2ozqmOzLVAq5aQX2eH6SLJsqtwMEoMwolUZdlA+PdIDs6aGY/7+Ipi7538aAbH/o8kXKAH9Bry7feufKDF//NC0X7ugqKMBOYhg83Bo6NabcMVEUHhUlgW3HxU+YqtmAA5igQVjI6s1LyylLDORU5mfmHVCXUKvncjTrxkO129YnZ7fmtbfWjm9ubC5nBNDUiQ9Q6DC6PAfYa43h8VYd4zAEVRTWmwbJgnI6D/RUdwAQDD61puAyaIyJhXfOn3XAHibAv6/8M6LxE4MshQCLsy+FOZyUCXxoBNHDY2tx887MrHvlpPK2jLw9ZYhcY02NwESgWRbgb7+KSLpGOKLRWIgom3JeT7XuCSNk5+fqECAvq3pKRsOSQ0E0PhZiCjnfcBd9JGDxg2piLv+OgsQiwbgNKskY8d/ucv/1uCstr7E0emIr42Oo/P7i3actf2XqUuXIcuOSC79nAXQdSwmngmDKYrQAF6aWtF42b9ePhA4f/OQ/GHP68BS06y3VBfXpF694JB6q3z6po2Du3rbtxiAVmCiie4AIuA0VCh0QGipNee83sO/56fN7spT2PW2PuLl289IFXWr3q4RBG63IraAYtYSTCAj1kCGMG28P0Tw6KIQsRhsEtDKAwRwfdTwfFT7FDLK2ypKB4zYjBpev7ZvZfp2sDqvIg7gEU+QBlrBFSFQaxlPZ47cCGpoMXVVeXXVDTfHBCp9lWxMIeOApWl3WDr2DKIgcZ0xjR1ANry1QVVFUCJ+aAHFcgQ86vuWrqrT+clH/5M5/FqYlX9n387V+8frBt9wQtgql2Fvi+kmh1gLVQmBboQiSSCtHumCimVA0GcQuFbCRwGvU9wPiqihbpHoBvYkRJAUNK6QypaYfTw3kHigtLdxbnDX01lJO7oZSVWj3nViev6/P7l//vuVpn12yeYoLrB1bqKCzwp+OjDbouat9QhC26+NufFmFNqxY9s+q3z0blRtAinmh27cZZYB2PqZ06A8uKCmN2TTaEjXzMjIJhpIDkhsGJctAlozUvq9/WATmDdvbtU7gtNZRZL3ON+z6XbcdKb+1qHFjXXDnuUEv5xA6zsYQpFsghCUzXAUmTRVQVv08MwsBkDC3h3zFKZQGz8F/7Q5Yy9M2br/jmbXms5Jjfr/0d66Y8t/KJ33Xz5rGm3AEs5ILNgr5rKAiF5ww6MmL1l+1BihoGJ+aKNMJ0o8/B/nmDPhg0YOR7A7KHbsiNZFW3gR8vgqIeD7zNUjtkR+o6a4fWt1bP3lW2Y3ZF/f7xeirP8uQ4mNAFksbBtC0IhyLgO+g0iumVkhCv6DiKKY34/RHNuJkKihWCVLtv11XTF905KX/eyxQJ682nJ52LCHy5BM7R1dOXC43OTgTOZQJl1rZR76x5/qE9hzbP4JkWOArWRODuMxpvJEVV0A9HpOYlY2BYdC/EF6b0BGl8krCuP0cfI6LILZle2UOE4cAS4xbCE+ukEn3Rglqxj38f9GHSIORrwDuMpiun3fbP00uue6Q35wc2Mn5y5R+fO9R1YLqtWWDLcVAxtID1bL4HmhICNyaBbKd6k4fNfXLauLn/UghD6k6k9oTzmtCB6MGhB2r2XF5Rc+CyppaGcXErlqqphmXGTC8zPatt0pipi0cOnf1gf9a/tef4K63tw55Y/uDLHbxuqIPpXNhsTDhpoOiygnQuKQSmbYOkyqCqMsTNLtBkDcJSOnhRBVQ3s2lw3oh3Jo6a9sfi7MJNGVDU9UWNbVGcdgNL31Wzffa2/R/effBwxcUdTivTsyTodjuEIGLoBokOj6CLWjcuecLeXfMkMKw06Bca+cbC2XfcU/AZbQgwCvXwivtW1pkHJkhaDFzRhDewPBeRHQ9ERAQFWDg1DUw7JtLWsD6KcUx1Y6Dh4F2swVJA5hqkKGmNBVmFGwcNGP5OQfbATdmpuZXZMKSpZ2TxaBH26NJf/PmguW2WY3SDJ4x0RMsx8UpGwhSsYTyGCNvc8O6iF9cufrZbagRQ4sKxMdmE3ZPRyMWCUDio3WOOJ9IMw+EUsGIMWDQEA3IH78C+eUMHjliqQF71seq2GnhZbku0YvTW3R/eta9y+zwTutIhwsHkUVBUH0zLAVlKEZFEkRptd4IsxSEkG6DYfSDsFNRffsEtt0/qN+utz/p+YX3cGx++9O8b96y+R80CtcNtFf3kUNTbTlAniE8q33FE7ZfGddCcEDhd4PfLHbzm/DEX/mFw/vg3c6G4+XiEEG5SHIK9xdv3rbv6oz3rv9HpHx7syF3gaw5YblTUjDFfQ+kKMkY2RUNoFIQ45+zAHZFLoLspaMzRPX/qDXdMKiQR1pvPTjoXEfiyCZyjq6cvGxudnwicmwRqeE3oox0rfvjR3ve+Z8rtEUvDfmBOYGwgBFjCDfFoASacEBOpiD0iYehkhpGEc/J1RIQJORksWhNW9Z8QYUdq4ZKdqpOOipjChh2AfYigyUBch+KsiW9cNfXmbxSERh7sLSYV1voxf1r56LMtbv1wUzbBVxxQxWoTBaIvFvvMC0GWXlhzxfk339Mva9Tqk7XUR2FTb8eLyw9VXNzY0FDqA7NDRsQqyM/bMaBv/+U5bFjX0eOusbaPfnT5z19qh4bBjmSJujK0u0ejBklxhFmDrITE4h4t2jFCgJFHyVWAR3VIkXNrJw6d/siUUdP/2A8Go3hMhmGPCzE2fK6BLRPWbn73e9sObFzAQ2bY5J3gSRYwBRfF6IlnJMwjsEoHa7AAVDcCqVZB28zzFvzTzNJrfn/0eXHR/5sVD77REDswAfS4SEdDa39R68aCqAvDVMdE7zm0b1e1oA0AuCEIoZmJJ4Mb8yFNyWwdMmD4W6MGj32yX2bhxjwY0/pF7ow4eIyEPbr0F88fNLfNdAzsNxZ8Fz9ThJnp/qLZ9151dDpiIMIeD0SYjCmGwj5SfCdc4ZDKQVIlsGMoiFRQmQZmHMBgme6YgVNeH1E0/pcFfUZs6GnG8nk3po5/NHDn7q13fbBj1bc7paYsHjaFGBdmjDwMrsdA1jnYHtYzoiGIDKqVCqqV48wcfc3/XDpy0b9/lgDf1fLWZSs+eOmPDdGDBY7ugCPSZsVOkUivFunWmGaNhhpojhFXQeoKw4jiSW9OGDXpR2Oysz9ibOKRNNrjmlwAUMm3ZLS2NV20duu7PzhQt+3CUKYMFu8CH4tGXUwMxWwCnO+YCumKKDX2HhNujJgmSiLseFHT+4jAV47AObp6+srdBxoQETjjBDjn0r7YxvEvv/3EE3Vt+4en5ugQ9boCK3phvoEuG0EELKj16hEFw8W8iIThQiIhxrA+CpuwfoVEWDKqJ9ISP/FKRACT/4Y8BCdN9BKT/CiEIQJ+W3rbpdNu/tc5gxbioh2bWZ3x156u1TMfX/abP1lGrCDGu4HpwSKcob25EDQKaCwFne12L5z7jRuH61N3nOpFobABqDUATB9gMKZr8WNFpqrsrec9vuyBl9uhboAjOT1EGDoxmkKESdi8FlMPMVrg+pjeBm43g1SWXzNrypW/OH/gtMfTWMHhk71utCyvjH40cmvl+r/euHPtbZ7cHbblbuC6CR6ar0AoSEUVaXAeKGja4erAO1JgaP7416+fc/c9Oayovuf5MRL2m+X3v1EfrxgvRJgfF+6MWJMl0gGxvgmr5hQZHCcOkoZRwDgo2EjaNkByIuB0q1A6cFTFqKKJPy/pM+zF4sio44rCJK+jk+/r88jSR58/aO6YiZEwrEfCF+4voJlMz0iYZqb7N36uCGtOiDDMiww2HNBAhGmKkBBmVwzSjDCoPAxWVPGGDpz44twJC/6zRMssS7o1Hu/9aegqy91cufYf1uxd/teW2ma4fhfoIQ0cXwcH06BRrHJ0m+Tgux7oXgoosVQY02/mU7deNO/rRzfUxs2ldRuf/d/N+1d9m6e4EAUT5JAOto/tFwJhr0kycNuFkKaCg2YwVgRGF0x9e9LI2f82ImfK+uMRvccaXyWvNMzuhvNXrHnhP5rN2gu63cOyliKDg/3PxAaPeKCCB06QKpzYABIizAtjJCw6f+oNt1Mk7HhnEL2PCHw1CJAI+2rcRxoFEfhCAs18b+rbH6346bby9d+ypFYmGQnLaGFZnvh4wgWxp64Sm+LJSFhShCViR+xcFmHJ1WpPcomBY7ZcMjoW/Lpn8OVIozTslCWc+BynFXTQwe8KQUHasPVXX3z3d4eExn54Iil/X3gDj/GGHS3vzX18xcNPQYaT2+l3gqIxYDYXqYiGKoEZi4PEQpCq9i2/Ztbd90xIvfidkz3XyXyu2t484bHlD77czhsKg0iYlIiEoZDF3lpobKiBh/2TMHlLMsCPARg8s2vWlGv+a1zRpMV92eCmkzn3J24t53I97Ch97Z2XflZZv+8qCJkQV1vBldEgAR0UAxt1FGEyD+z7WSyEQrDpqgtv/8akfrNf7Xm8Ll6W+9tlv3mjLl4+lusW2ICpfNi+ACNhQY2XJGtBQ2DVBfSpsGKHIcVIBYiFwI+GYWDu8P2Tx836UWHOmNeO13695zXU8X19nl22+IWD8e0zjhZh+D6MYuHmCqYjGvFjibC3Fr249qln0V0RG04zFMoJ0xQb6/IkBioKGNODFDksmgsX9hnx4Zzzr75nRGTqji9KCz3WfWvm5UNeWP3Yb/bVb54NUhS0MPbOUsD0HJB0rB10gaGjoONDWDJAjadAYWT0G7dd9vUbM9jAtk9y2D7siSW//FOrXT3eDdngyjI4wvhDCizyfRdCigbc8rD7AnBLgqLs4dsWXHDnd4pTx2w4HRsmGCXe01F70SvvPf+/zfHq8yRsx4AtPMTTI7l55SZqa4MNB3SUJBF2qt9s+jwROHcJkAg7d+8dXTkROG4CWL+wuemNea+vfvaBKLQUsbAJ3VYnaKoqIl5JESas2o8YHvoJk4GkAMHlBPb8CURIsNt+io+QU232fIrnD8RWEDU4MqgkVXHsnhGxBIfkNeMOO2jC4AFNBNDcJCyng9kmudPHXP6HGWPm/MNnpecd9007zjfubV87+9HXfvWUnxXPPyLCHC5Sr5SEmYrHFWBu2LxgxNyHLxx22X8XsuEtx3n4U35btb19wuLlP8easIQIY4DiXSR/it5JaGeOzpzoFMghLIXB6ZJg9KALnrvu/Du/fSoRsKMvHiNiuzven7Hy3dd+22zVlZoGirC4iIKJKSB4Ba6ZWMeDPZy8bh0mDp3zy5sn/M33egqOFn6o/+Kl9y0/ZJaP5DpalmN9W5COqIpIGOpNTdRUKQaO1QXH7ICQlAJydyYU54zaetGEy36Ukzn83ZNNDxWRsM8UYQHfo0QYv3H2vfM/nY7YU4ShwyOGbxzgzAMnEVlT0GLfxvolNJJI8Wadv/D7s0uu/+WJpoYeJYq11Q2v3fz66md+yaXWVFAcYdkuWilrvujpBUwRDcYjkgqqFYJMXrL1a9d965p8NrzqyNeUc2lj4ys3Lnlr8e94JJpishiApoHp4PNLCdwcbXSi1EByZPCiAH1SBxy6aPwl37+o4LyXT2dbCWz98W71C/e8u+HlH8Wlzr6e4gVOolj/KDIIgmwCDAeLqK/vgu6FMBIWmz/1htsoEnbKjxs6ABE4pwic4grqnBorXSwR+Isl0Mgr8paueebhPQc3LnBDcRkMCyw3BqpkiOJwFGHJFMSPdU1ShCUVSk/RlRQnJ1Se82n+X7oIC8Yh4YIvqSw/sVI8WojhLz8eM/ZPs10HtBDaT9sQ1gxwujik8tyqhZfe/s1x6ZevPNOTrrx104WLV/7qiXi4pTiKzXYVANXDhl7Y48yGUEgHLqkQ6/QhQ8tvvXD0xfedVzTmDwVs4kmn953ImCqsHWOeWHHfax0c0xExEsaE+YXgLjHwfKzZYRDWwuCaFsiOAbnhwsoFM2+6e2hKvw+OTj07kXN/1nubeXPq9v1v/9NbG5b9vRXpUB0VnQsD05lAlCcSyLA3HOjgdcvQL2346oVX3LWwhI0+4szXzqtLHll2/9JDZsUwrrlgQVzYrn8swkQXZiHMPEC7dQdUbMgcDUGuMnTfpRde93fn5Qx570RT+XqOqZ4fyHlm2R+f/3QkLCnCgs2SRCTss0VY08pFL67+07PdrA1AxvAdsjAFEwfrwdAx1ddAsmTQTAWKM4fvuvTiu24t1kZuPdV7UcX3Fj//5iPPtXQcmOSyThEVRTMNT3HAFgIwLExcVBQrDoqVgvK75n9nwcDUcbuS58b7+cbGxffvKH//616oE2zFBpdpou0Ax2bIaJZixUQrApxbkhWB8cOnP3LZeQt+cHRE7VTHg59v5nsLXlv3zK/21Wy71lHdoOZWpCAGAkw8cdASX3i3OEdE2Lyp198+pXD+klMRtqfj+ukYRIAI9B4BEmG9x5rORAS+FAK4O/tB1ZLrV6575aG42prt6VGIsxjIGgPZRac2tF/HR0HwOEhKLlG3kPBACCJF+N6gbkwIt0QvrZMPRuHO8McC76TgfCpadWJHSZomJIVVEA/52H7/4zq5YPzBq4fwxIavGHEyQuCIBr02aFwBt53zKaWzn5o3+fZ7M1lx+4ld1Ym9u6Fr96hH335ocbNXOTGudQGXHdA59ifChsBoiW6CJzMw9MBpMB2y2ofkDFk2ZdRFf8xNL9qcCSXoNHiKavrY14xunE+teGBpB68f4EhxYevPvGC+4bzDhr7YyyykGMBNF1Q/HLto3NxfTR869740NvSMCMV6/tGIF1e88Puq6L5pttoNIJmBnWGifieYlTjPAbgpQaqSX3/V7JvvPD/jijeSI23ldQMWL/spuiMO83QUYUHvK2zGi8YomAKHdW7YzNh00HKfgQEGhNz8tqlDr/uXy4Zf+yhjDE980i8UYU8vfeSFGnPH9E+mI56ICFu26MU1Tz/bDR3AZS+IhAkRZoMregcqwGwJQn4KKN2Kf+HYK34/adR1P8hhOZ8yYTnRgXC+S3tx34b/+nDL0u+D0gUeukdi42seB1/VwPfDIIMGYHdByItAmltYe/Ml37yqNHPSluS5ann5kOeWPvznpuiesX6oCxwZo5KySAVlWM2GNYeeBZIdNFbP1Iur5k2/9faxWReuPtHrPZ73c/6usiNmXvLSm3/6fYfX1s9VLPBR3GKcT+LAfAaSp4vnp49mLX4QCSMRdjx06T1E4KtFgETYV+t+0miIwKcIHIzuLXj9/acf3dew+VKWZoveOTEnCpqmgeTJYqEpkrDEihNtlD/pAphM1RO9nZKiJ2nhLhZsR/Z3jzp3j+jSJ5RawokQF6rJ9C9MbRQpjkljgaONMRJGIYnaNLzWoPePnEgl/Iz3Hy2YPnF1n3y/OFZiJMm3BTvWga11T5OS5O/Fv3s+KJoh7CnQ3sGX4iBzH1IAF6yR1qunff2Hkwr7Lj4Z17XjncoYCXh2+f2/r47uusE2OiQH0KJeFbVJrueBFjIAuxPZFqZ1pYHmaSB3+ZCp92koKRz7Xr/c4jeLCga/lW+MQOfB4Iaexhcaczy2/MHXO3hDATbODURYkNqKAlb0o7IdQNNNzQ9ButJny6Ir7r51sHbR3jMlDnHxv6pi193LN738U1NvTwOpOzCeEfMaF+6KiFmgXbtvSxD2M2DWhHn/dlnRnf+ZTEns5pV9f7f0/rfqrLKRnm6DzdF4I+gnp2L6Gdojckn03fNcG3QWAa9LhaKMca/dftk/3p7JMk9ZnItI2NI/vnjQ3H5RTxGGhjk4p49KR4QbZ9975afSEZsSIoy1fSzCONbquYBaWXiwWAyytRxQOo3GBdNvu/u8wiuXnq4psvHwO9c+v+LXT0jhWMSXLPB1XzQbl/UQmI4iGivzeBekQCqke/2br5v99atGZJ+/XnwtOWe7ox9duuSt3y85HCs3tHQfYl4MrVXEvcCUP8BItcJBshTQnD4wKHfCI1fMuOu7x+vmeDLjxDTRJ9/740MVzXtucLQ4w7TE5D4HpuhzetcAACAASURBVHAzDxtec/AlOynC4vOmXn8bRcJOhjZ9hgicuwRIhJ27946unAh8IQHOK41lO9bf/c7WJT/hafFsT+sCx7dA8Q2QsB1uohgMxVBQt4CF+IEgSWoxtK4XQbFPhbw+jpRx0Vr3Y3GV7CeG5t9Bn61EzY2w7MaVnSLso100BzewZsMSZhIK1i5xBVSmgut6Il3NtiwI6ykiYmK6JqipKrTFm0BWcZce3QnRoTGw1v84sJa01E+ItYQgEzb8yYheD9GFVUCYitZziEmHOSaiY+ge+Ql5logIcmFBjpEmtKTmqGG4L9IBNSsM+cagN++a91dfz2JnzrIe6/1e/eiPf7e5/N1/7oTGNEvqBiPdANOOg4+LUUkVTWElVxZpgDo2CXZ9AAfHFAZVTmvKTs/dOrBg8KaBeYNX56UU7uwXgmaAwe7Jmi70nJjl9kcTn1z+0NIOvyHXRpGK1t2J9E9MGUORYlsxSDfSwDoMMHHYjCcunXj9d7JZaecXTvBTeENFbNfkP7/1u6frrfJBEOoWFvOKrIOP4R/fEE2DJUyPsz1Q7RBcMGL2b88fdd33kgYaXbwh9zfLf/ZWfXz/aG7EhAiTsIYJjTkkdPfz0ZlDOA0aOE47DFp3VsdNV37zeyOzZzx6Cpd+5KP1vD7nz0t/8WJ1fPtFTqhbfLdwDve0qBdG+YExB9w469555+XOXtbz3JsbVi5asvZJYczhKb6IpDJsTM58rM4Sgl7F72+nDP200j3XzL79tsEZ528+HdePx9jbtXn2c2//8qXDdk26pKtCCHKwhQBM9j3TPB90x4AUu2/rorn3XDk8e9q6pAhbXfvK3Ss+ePYPttoOlmyDpMtgOQmxz7H5tQMRwwCvSwI1XtA5b/pN372o//wnzpTAD66r0ni3auM9b21+6T9MtTPNVziYbgx0XRcNvCU/yCTA5wVGwiJmbnzetIW3T+l35Utn8rpO1z2j4xABInB6CJAIOz0c6ShE4KwjgLvEe1rXTnln88r7ytt2TPNCmO4TF4tEnaUCw8WmaOiKgiVw7fqECENxI1YUQTSohx9FImkRl3xB3UtShH0yvQ9lWRBYCQyaJUD/u+D9SnBejYNjmqC4HDKNNGFLDo4Ehp52ODUlrTo9Ne0w97ntmn52fWP90I5YR7aWKYOa7kAc7fVFCE8BWfSdCtIkkw2Yg/GIASTSKv2gFxq+z8fkMHxh0XxgxSBEWA8jDlENJswB0GEuOf7kIzNoZI1NnNEW3EUnNskXdv+M+6D4AKqjQ9jObJ913uX/Nad00i8ZG3nGLOuroh+e98Ibf1pcHz0wNpwnw6HWGjAyQgmLbIx2KqInEfZc0mRJROswiueDCp6L0QIZZK7HQ1JqR5/0/AMl/YauG5Bb8kGfjD67I3rfpkzI7D5ZQYYi7KnlDy3r8BpybKwJUz2xyBf0uQI6WrjbcQhDCORYCswaf9X35w6564EzvRht5I15f37roacq2rbMwVoiVzJBARV8D6Or4WAuKB5w2wfV0mBcyQVLrpp0y13J9NIG3pD75LL/e7PO3D+GG91gcxMUrEXCnlQyFyKMy2iIwiHEJQjbaVAYGv3BFRfefEf/9JFlp+OBgSLsuaUPvnQwvuPCpAjD4yaj10FUm4nm05p5LBH21qIlax9LiDA3iIYlRBiKIIwm6agnozoMMMasv/aS228dYIwuPx3Xj8coj26Z9PTbv3yt2anJ46oSBCP9wDUTv1f4fca+bSjCInbfthvnfm3e8OyZSREmvbn/8R+/9dFL/+pinStu+IhMXAsk7MMFLviuGxgQxUKQyYZUXTn95jvH50xfdbqu/1jH2dGyaurLax9/tsOt6++qTBi3KKoEHDeXxAZYYNhBIuxM3wk6PhE4ewmQCDt77w1dGRE4JQItvCXtnQ3P/WTTgfe+6adEDVuNioUiipCQHAHXxhQZ7JCKBspBauCRVMTEmQP3w54RpmS0KGhrHFSQBXViHBvUCsWF/xtE0464DqLrItaeJZ44oh6CYdNSB2SG9SaqaJ7KoqHukqJRHwwtGfNsUf/Ba1QIRV1wPHCcvlU15dP2Vu+8bffBLRPktLjqa1bQ/JRJIHvo8qgkRGEyzVHU9CdeH6cbYtSM+VogDpkpUrYCERYIqyMvXMQlIjZBNEx84sjfkItwV0cxwQIRhgzxHcKZ0FNBjYahIHXQh1dMW/S3w7OnfnBKN/RzPlzH68Lbd7/5z2u2rbw3JrWmSCkuYOqfq6BIxAtEYRGkkwohiqYdHtaoYModF/cAXxj18dAFj0UgJKd3ZIZyywb1G7Fq0IARb+XrWVv7hIcfZoydUENbYVG/7NcYCcv7pAjzEyIMhaAFkilDhtTPvmb6zQvH5lz5CTv4M8ENoxVPfbjkF1urVt3jGu3AFQs4RiiwATkLi35f6NiHmxVKXIOSnJGrF82+84ZcNrIBr+eICIsfGMONKNiQEHEiAIYW6/iXwCVRdyVI8zNh+tD5/33xqJn/cboc+QIR9sCSg/Gd086UCMOxah4H1QxDcWT8+zfN/Not2eHS2tN1T6qiu857ZtWDrzZa1YUepnOKTQ/rc0TYXVcOz54hvkucb1KXbFv/wNqdy/8GUh2I+y5gQR66W2J+K35/sTZPAgaSmQID0yesWzDjlq+VGGP3na7rP9Zx6viuAc+//fvnatr3n+/pGFXERs1cfPdkbGEgNnCORMLMedMW3kaRsDN9V+j4RODsIkAi7Oy6H3Q1ROC0EEAr7l2t6+YsW/v0w4fa95XIaS5w3RWNUD3OQFc08JzAHjwpwvDEnxRhiQW7iIJ9bMTxyQsMImHijxBZiUbOQZXZkTRB4QZ25PeJtD3mgOc7YMg6qKYOfrdqjxw4+c0Lxs7811B6/93FrPgTpgXYh2fb4cap73z46n9Ute2cpqS74EBMCC3J7ynCEqmIQgoGlvufFIZ4rVoQ3WJ2UJeWGJ+I5PV4BbIyEJwf18x9/AaUfbiYQhEmLD3QjppjnykMosiguymgmGnWxBGzHp8+7trvnw4zg2Mv+vYPX7Xhtf/ZuPu9KyO5itxhNQmrbw8NJyQ0wMBRKCJ9E7NQMRaoayrYTgwcNC7AXsUKClQG3EV3RQ0UxwDFjbiGn9o0IKdo05gh45cOKR60IhPi9cdb51ZjbR7z2LKHXuvgjQPMI5GwICjocRlUOUjZ87sY9Estbb7u0jsXlKpButmZfOF3ZPm+xT95d/ur/+xorQCGBy5+J7DtAOgiksUUtKqXQI6FIM8YuOW2+d9a0I+Nrukhwt6oix8Y+7EI00WkGVmKz6OphQegWhLkqAVNV190160jsme+ebrG1RsiDOf3ERGWMn7VdbNuu6MgNKL6dI2hyt513nPv/PLV+nhloSsFNakS2KI0L7DI/zgSFqQj3jU/KcKwSfL6TS89tHn/23dL6Ryiri1MMGQJN1Y80TQbVTBzfWBmBEYUTn/9uqm33JrFBnWcrus/1nFwE+zlDQ8+vrvmw6tRhGGE0fHx+cBBk9F0BDe9Aov6iJlLIuxM3xA6PhE4CwmQCDsLbwpdEhE4VQL1XQdy3tjx+kN7Dq5eyEMdLOq1gxrSwfUk8DAiwnBRjuLqGO6ER4qjkqLkY3HycbRLyLbgUkWT50QqINZF4coT/wXTBNGpT1gyJ0WaA8AsYYEtoxJyFNDNMOToA/ZcMeOWvxmZkbP2WKl7GL1Y37h/wYq1z93X5hwshIgDHi7aEpbPyVTE4Py4AAvSFAPjDVG9JWrL8HpEplYiJeiICEs+ERMRsaQIS94Pka4ponhBlC8pwgJDEwEiqKnzHdFnypBTwO1SIEsvOjj3gvn3nt/3sldO9d4e6/Occ60svmH8hm3v/3h72fq5JuuUtTQGDouDx9CaI4hiumiCgv2TJBW8ODZy5iApDEBFKzwuFofCjAHTUF1M0AsLUwOwZAixtNa8jPy9w4qHrxg6eOSyAeqU7V8UGTtkbhu6ePkDS9t506CkCMOan+BeKcKUUMUCv6gKAzNHlF8z57b5RWzCnjPFKXlczrn03sHn7l2x/s8/t/RWCXRPuDSChFFbNVgkKy6oIIMaDUE65O/75vzvXpFnjKnAY2DbhyeW/XrlIRNFWBwcH9MRAxEmS9geAI+lgcQVUCyAgRlD37/54m/dlMOG1Z2usfWmCFPiIShOGb/q5llfu6VPeOih0zWGCnvn2Off+dXrPUWYzNDWnX+hCKvhNaF31j75yM6Da29maT7E/MCJEFMR8YUbChjlZZ4PEDdg/MA5T82cctM9J9MY+0THi+ngz3z0s99tLlv1DS/kJURYEETGtFVhzPGxCLPmTVt4K0XCTpQyvZ8InNsESISd2/ePrp4IfIoA5zy0qnL5rSvXP/8fcaUmL5TpQltnKxhGGDjXg75MmIKmMNFgOGk/3/NAmLbWozuY+NXHqX0JG3uReucdcZQL6q3wlRRhiUW2iIIFkSrRKwez2aSoqAzD86heGEJ2KgzLP++pBdNu+V4qK23+vNvazA8WLFn16C/2NW253tVj4GIx/pFzJ23vk+IQRVji9f/Z+w7wqK5r6337naaRhISEkJAEEpjewfTewXQMNrZxLy8uiVNekpf2kj8vTpwEt8QV3LsNmCJRTTe9VwkJgSoqSBpNuf383z53ZASmDBgS7Mz1x2dbmrlz7z5nLmedtfZadIe98a6oF+M5Y5LwS87dY2N+WOOb7fPZ5h24eLJ/jr1V9LMbQStFdrapge2zJ4OlCMAqMdA5o9d7Y/pPefJGBiUTUuwoDJZ32r5v/c9Onjk2ukE/61HBDyaaLciISVkwiA4mwS4+DhwIfnA+EAMMC8WheO1URUft1nFuoHSKQ6ZR48BSeLB0HrzOODM5NnVXr3b9nm3VsueKyznNFSu7s95e8cKKOlKZHeLsnrBzIAx7ZBgQORk4RYaM+E77Zgybd14Y7436iiMI21L22WPLN3/wd1Wq401BoW6NDIcADHcoGDCxT8wSqBTPa7YoeHDyk+NT5W55eE1hEJZbquR3QxCGUl8BzgdhJhHoz3iFhS7pvd69p+/9D32bXLALaxHuCVt8OnSw/42QI1oISAFAMCxAEJbh6r5h6rB770y7ziDs47XPfw3CaI4caLYxyAU9YRcyYTUkP2bJxg8WHi3dPs1y6aAyyIQRux8MpcImnouxN0uCMnTPHPHK3D5Tnrze2XOXmqMf7v3LP3bmrXuUIMvKaWAgK8fg94q3Q8rDOWEupbk6ccCsu/q0nPDZje6FvFHfp+h5oxWIVuDqKxAFYVdfs+g7ohW4qStwomF/pxU7PpufX7FvBOOuAxAUaleOf/EjK2XhX/7YfI9UmIUsEt5OY99Xo0W8jSvOZYad7xxoFwA7qWxZGWtJ1PyhkQ1jkOkClAXaLBmBpnJEHVgmZLsmWhKV7Ikhp39Yj/G/GdG2xwtXkrmhvfgXhzf9dPOBNb/UnH7ZQrORJplm9HoaXfZRcthktGxJns2K0fsLG3rYmT1ND/tdeJ5Gi/pGow+bCWtMksJ7QKOPcylrDP6OM+1PQTLEkoA3POBmkqqGdZvwm7YZvd68kTvxKNusBEg9cHzXnCMn9s2pDZ5p49NqJcxfYiQTTBb76Aw6/tgXaB/YG8YDx3F2YK6FQM0ADokqU6cMkcCKIAoualyhKgREQ4I0Z+qprll9/9m+dd9P0uW2lCG68ChVdrZ7Z/lLOTVQmdkIwuzgWmRCEdThuV3AKQ5kwnZOH/7A9JZMFpX83cgDmYqNpz5+LHf7x/M1uZ7HHjp0zmfRrVG3gBWRQVVojIOsxEAcaVl495hHJ2Z4bJaOgrCc53JLlcJuRLLdERFy2UyYzSiaFgc84wQhJMKgzqOendzhsV9ciTm8mnv+V4CwRjkiZcJc3TfMuQFMGIKwsmBhqsVzNMwbe8IiAWG15GTsoo3vLDhWtmOqLmMeHs5vNBbRbcbbRLdVlua2WUEBerYZ9dKdvZ/+4fUcg8uN14e7//zKjvx1D4HDAg37T8ObG5ZO6HcNpcJhOWIUhF3NxI++NlqB70kFoiDsezKQ0duIVgArUEEqXIcL1v98+VefPkW8QZcpBsAfqoNm7ljQVQss9H1mGWpFbRCDuuXhygB7mM63YbcZHxtwhMFUuMQIOr72O2Q0ushhTIctCaQW84g8bLkhLohsuNJoYY8OggjCVJtBM0UQrRhwqJ6zM0fN/UGXuEmfXCmrCnt5tlYsffjDnDf+xMeZHoMPAOYLNQ1ZpjvNFEDZO+IMvU+esj9235pKe8GwJwndDSm7RUvQNIj5XF0aDTvOrwehTJptZY8LR9xzxz47ZJxMCmZUywCRdYJAXKDX8dA2oevWaaPm3JvKtKdsyo08KCtWX9YxvyRvXN7pw8Mr68t7hSDgNtkQMLwFjIQ5XTYYxz/UKAAlUshuhuWbKK1ExtQktpEHYZBT4MAiHMiWBEIDB262WU33TkMXdO00+I+ZFwmmrlB3dV647MVVtaQyGUEYOmISgiYFBvAs9p9h76FM5WLp3lsOzBx934w0pkP+jawNnhtB2IaiD59auePTZzFfTYWgbfIiiKBoKvCSQEEYYzDg1OIhgUk7fvvwRye3jrFNHfykMOmfOfNzSpWC7kRSmoAwvC8EsjjPZOCJA/iQDGP7TP7v4Rlz/3I9mY4bDcLQHRHnBDJhyAa29vTcMGfcvDsTmOsvR0QQhsYcDI8bQip9PpnYL3iZnrBKctidu3XJ60dLd94e4n1ARBuEWYZiS27BTUE+jxESQQG6Zw55866+0x/5VzBh+Jx6b+ef3thTuOEecGKYt0IpZpbnwFRMOz+uCQiLyhFv9Dc+ev5oBW6+CkRB2M03JtErilbgmiqA8qpjZzfeunTLxwtKgyfacbEmBC3b2wJzqxpBAgIOg7NlZ2g6YIMw2+Gw0Za9UXbHcHbekR2qTFuoaC8RMhi6rtPFDdEBBMuL4jbQVQK6rgEvGCDIaDGtAC+xEFAVuvgQRR6CQT91j+N5ASxDAMF0g6x4qqcMnf2D3kmTP43ECj33xDs/WLdz+R8UocFrCn5gJc0GfQYDHME+HBksAw0yLJBYkUro0PXO0nhiMjojO01qP46dUojPdFOjphqofkKvSLsSQFkQG5zadbJVhzYobQpOsY4I9mwGzqILQXRLxC14TTeBNWRwQhxwDS7/iB7jnhnbfvBfr6cs7XITBnPEykIFyfnlR2fmF+0fVlZb3NOv1CapEGRZNwcazhHGBIFHcG2AYWo0n00UJVAUBSTRAZqmUSDGS+gqiT1jFp0zgsqDzMSB7perB/cZ+/su7Qa/diHLV6bt7vnOshdW15CKuBCrh0EYAj0TOMakbCQxBJBJLMhGfMkDM56YnMF03XNNX4KreBN+X1YVLPz5ul1L/mA4AmAJOqi6QbO9BEEA1QgBK5rA6BzIoTho4cjePXPEfbPSwz1hleRk8lsr/5pTGizoRkEYaCCEe8l4FplEvBgZOMtJM+MmDpj++KCU219iKFV6fY4bDcJQjojg24FOoAEJWrt7bJgz/t7rDsI+WvP80grlZBqCMMoWNZEjotENWtTLhiOcE3bOmANB2Krty17dV7BpjiWpYIgGGBiAzBEwDQKMIYPEO0DXggCKAJ3S+i+bNGja7GSma+D6jMClz4Ih6su2/WPh/lObp5uSAYxogarrIDlkAJ1uAnwNwtxqUrQn7EYPSPT80QrchBWIgrCbcFCilxStwLVUoIoc82zet/rZXXnr7veLZzlD1lDwRVkgzhTDbJfdr2VL0mypYKNtOVXRhZeHNsAwqSQNd2sZHvt2MBiZoxI2zOUSOBksDf0HJRAg5nhSbMvtaSnZpzmO4YvLC9uWV53qF4K6FioJgOTmwbDQbF6jC1ybdUHeiKMgzBH01kwZOvvRvi0mfhLJvefkvfnE2j0rnrVkVdA5HxChgWZ+WaYAHEH2wQWswQNrmWAqlpXgabkzs1Wn9S5nXBmxTG+N73SnIyf2DQhZwZaCiwXRwUFA8YHFWSBJAqhqiMqZ8B8KXsOMYeO12eHWYAMt5Pm+AcKw784CleggyzIYGoCou0BUPJAoph2/bci0me3j+x+M5F6v12twZ94HJd5SX2nbsuqiHqW1p4YUlp7oFjTqU1Uj4ETpoYAeKqDTccLFt+RwQTAYBEGQaF2CagMFYJLMgaaoIIBIQQZobkjyZBQM6Tnil72Txp0HpCu1vd0WLH9u3VnLBmGMgItPauxPF8u6jn2FEjggDnjNrU8fMXty7/jxOdfrvi91HmSNtxz84MXtR9fOMxxBMHkDNFy4MwxlKXRDAYvXQDRlEIOx0Dq2S87UUffcncK0q8ZzYm/imyv/vLw0lN+NiAjBwiCMmEBBGFrcUxDmBlF1w8T+0x4dnHr7y9fzvq4ahA1/YmL3xOHLm17D7opL54RdBIRtnDP+3juuJxNWrB7o/O7aF5dHDsLunXguJyxfWrI/9y9fHVr3uOkMgS7gKCggcGhNjxsjTjsjDzcX/AQy4zvuvn3MA3NTmC7Hruc4XOxcxcqJrM+3/OP9wur9vYkDwOLw+WeAyAuAMXnYc4lsH8oRoyDsRo9G9PzRCtycFYiCsJtzXKJXFa3AVVUAd/X3nFk7PverD/5erRdl4aISTQl1S6B9V5ijhU5/DKBMUA9nWl0Iwhrld2idjLJBlNShrTIyXugmyIKlAsicA0SQQfEbwBkOyM5ov6Nnp4G/zYhrvTkB2uEOM1MIu92llcWT9hza9KOC8sPdHV4edEaBoBIAt8dDpZE0vBklaZYT5GCzuinD5tzfL2nc55HceG7BwifX7lo+35IV0Dk0nmigoBHljayJC98YEE0ncBpjts/suKrHLYN+3ck7dB9KHbFWJXAktqz+5IjNu9b9pNJ3qofPf5ZzxztBIyFQjQA43A4KPhB4NoY743XZYdC2bJFacIT/1zboQCbMzkKjUkeGgGKqIDsdYBkEeF0ESXODVsdqQ3uM/tvU7sN/+6+QRV2qnsgi1GuB9Mq6091PlxSMLi471ac+UNNCtYIx6Apo406Tgi8E4pqu2Pb7HHrZW2Bh/hL1YudAIB7QfTx0bd3n84kDp/4gkelQ3vi5aFH/3ooXvjxrlccrnE4NERGEU7dKKgnFiAAE8m4QNCcM6DLyZ7dl34+yvevGGF2sBuXkaMYXG9/5OK9yT2/LoYLOGlSuiyCMxjlhBh1oIIITuIYY6NpqwIK7+09/rHHMqklxy4W5zyyn7ogIwojtpGh9DcIQoDvCIMwDk/rNfHhQ2vRXI5nfkb4m7I645HToUL+IjDkuBsLKV89atPWtj/xMDQWiTcOa/xUg7JR6uOP7a+evqFCKWl2JCcOw5ttHzRvfodmwbVgjlJSuL3j/6VXbl/zJkIOcKWmgWsi02wYYHPGCrhrglHnQGwzw8i3Ozhw7b24H5/DcGzm/cMPjmP+rgR+vffX9au10CutiwECm3kSAzoGlm3QzSrcQhDmjICzSCR99XbQC37MKREHY92xAo7fzn1mBElLSbNXGd146WvbVFMvdIAUtH4guCVQN3e9kmteFvVq2IYZtxkAd/iiosPPAbMYnDDDCTBjB3iE0cMCcHYMFGVzUKY9Rkf9y12W36rqia8d+z3eJSd53IaA4Swq8R2oOjdi0c9X/VTYUtiWyzbCIsgPUoAm8KIDJKCCYMkihxLppg+fe1zdl9KJIRhBB2Je7ls7X0ZWODwFhAtQMg7WQnROA1Vwgm14ro3mbNSP7jPlpW1fq8QsDcvH6iv1FPb/ave6HpyoKhwTMWo/gwjYeAg3BWpBdsm1ZTnBHPSxJDNvwU3uPsFU9lgxBGP7Mhg22B6NJ49MIqIbN/iF7yCkiiIYbvGLC0QlDpj3YLW7Utkjkl5HU5Fpfg0YnfpBiz+r1aVV15Z2KK0/1KiorGFpxtqSNBgEH72BBt1Qqz3M4BWA4BtSQAryIgMOgPWIsgl/VAV4moWz66Ln3d/SOzG28nhJtb7e3lz+3ts4qjVd4neY/ERodEHbXxGwo7CfUeeANCTqmd/t4Su85DyQytyC9ecOOE6Htwz9e/eonNXpxvClr1BkSkSf+g4tllMwSUGlPF1vvgYGdJjwztevDP29cvNeQ/NQFuc8tKw0VdCUSgrCwMQfRgeNUaswByMgSN0iKByb0u/3hIWlT/70gbNgTE7o3H76iaVF3f8dA2OxR905oZMLwPnafyZm75MsPXgmwtU7iVMMgDI05MBMvBtSQBh6PiIw4ZaKH9Bj7q7HZPZ65kgHQt5l42I+5Mn/r42v3ffSbEH/WycgcGBba09vB6EQ3QBBEqg5Ad9goE/Ztqh19b7QC390KREHYd3fsolcerQCtAC6iN5edmLts/UfPaI6aBNapgU+powyMqduZR1R2iNYTjGZnZYU5BgwZPgfCwkwPshxhJgwXppIkgeLXgQrGHM0hUBUEJ+up7ttp0IJbO4+ZnwDplZcCEij52p6/9Gfrdy/7iSUFZRbDgy0AQ7f7w0zGT0GYHEqqmzxs3n19k0ZEBMJW5b3+5Lq9y+arEkqQVLCIippAmr+DbB2nuSGGSTw9ZdgdD/eI77jhUv1XhBC+FPa3Xv/V6v85VrR/siEFYkKMH4ioA+Hsa8UDJZsIrpq6LtpuiXY2mm23b4WZMrT356lckRM58AcbQJJ5YE0GiMaCm48BpYGYHdN7fjpqwKwfZjRhjf7dUxqZhSIoktSG6vTyusJhJ0uPjztatHeoQvwxkkegMlaTaDR0FvvGKAhDYw80r2BjAPycNbz7xD+PveWhXzYaUJRq+7ovXP733HpS1lznFGqTj/15tK7ItjJoYoELZg5AJZDgTCmcNeSOe9u7R2++niYWTWuL4772+Ac/WrPv02c0uR4MQQODIfQaeIYHU9OB5zH7TQdGF0AKJobG3TrzR8PanJMTUhC24oVlpWpBV3Se1IgKDnI4/AAAIABJREFUAsOCFQZhaMxBwAW85QYp5IUJ/WdGQdhFJniYCVteoRSlR8KEXQjCjvs2D1q07v0PKwKnUli3DjoTAFYwgNDNEy+EQio4nAwwOgFJ80BGs3Zrbxv2wOxGWemN+M6dJsdSFq9+572TdfuGmjJKXQn9zvCMnVuGIAwZMQOscyCs/4w7+6ZOWnSj5vyNuM/oOaMViFbg21UgCsK+Xf2i745W4N9egTMkr/WHqxe8VVB1YCATo4HFK+FdV1yECNT9r9Hdj7oFUsBgX7Ztzc7YBh1huZ3d74TmEpiHha54BETWAQKyTPUsxEvNz/TpcOsrvTr0+2dzpmPFlQqws+HLoYtWv/FuwDrTEkSDusZxrBMIMg9sgIIwR6hF3aRh99zXp/moxZHIhNbkLXxy3Z4l8xWHArpgM2y4yyzg2l5nQDbd0NyRvnHOmCenXSmXC+WJFXCs1Zb9a362+9iWe1TO51D5ICALSB3s7coAi1b09L/PN7OnwAwX641yRTTwQEt+ZM0wDsBSgcNzUadEGXTFAJFzgxDyVE4ZMO/nfdPGvXkzLrxQUnVC3Z1x4MS2eQWlh++p8JWkYfAz62AgZASBFTgq+SKGQXOYGA3NE5zQMfXWT0f3f/iexuywk9rhbu8t+/OyeihpeT4IQ1t8kzo0IpgVeAkszQQ+JFojuo9/YWC7ib+Nu4jb4pXmWyS/P0sKWn2c++bC/Npdw60YBTR066ROjQKIjAAmMhVo7sAYNBstkcssmTj4znt7JIxc03h+KkfMeXYZtahvCsIsDTjONjIh4ADejAFR9cK4frMeHp52W5QJu2CArh6E3TexfbMhWxtPUxzc13LVziVvHS7eMwJctjyZQ5dEkwDLxoOiaCDwGjAmAYflAafZrGrK0Lvu65Y4Zlkkc+VqX0NIhWtX+b5pn6x9/1ndWdVcl4NgYP+ohS6NHHAYC4LKAnw2MCQKwq62wNHXRyvwPapAFIR9jwYzeiv/eRUoI2XOI/mbfrB652e/0Vw+py4oaKtAe5kM3M1Htz/ao2RDB1uWCMBT0wAAxF7480Z3xK+BGQVhmJnEgqoY4BFigdFEEBRH9YDOg58b3n7YK1cKVW4cjYP+bV0+X/fap/VmabbBBqgFuih4QNdVYLkQNT6QQ8l1U4bNu69H87ERgbANxxY+uWrv0vkhZxAMwQJNRx96lPiYQDQDXMQFKe6sz+4Y8eS9kcrazpADrdfsW/GjAwU75pkO3dWg1wEjoiMipr4yX+eNsbSfqVF6iGGw+Nk2CKSMGc1jk+xwagScPP4e2TpblqgpOsiSF6w6CTo0G7B6SM9x92U361pys85e7B07WnLs9vXbc35Xo5a0FONYaNDqgJMReonUJVPmWTBDGjhMJ7Ru1nX9XcOenuVhWtDQ7ULtUNf3lz+7tJ4Up+kcgluMJkC3So6OGUIVnSEgitjPxwAbZKGlK/v4+AEz53Xw2r0/1/PAHLVtRcdnr966ZH4tfyoWPDqELGRPRACNB5GR6BxiOYtKEo0AC1mJ3TdOGnb3vAym68nGa6khJakLcv66tDSE7ojIhKEcEZkwBGGYOdYEhClxMH7AjEeGpd72yvW8l6vuCfv2csRNc8bfO+d6GnNcDQi7MKyZPq/ISXn5sTV/2Lhv1dO65AON9VFnVjR8QRCGYIyGw5sEZMsFfNAFPTIHfjKw+7gfpzg6nr6e44FMcolve9bqPeteOlJ6YJTlqQNVDIBOE9DtXkPWtEAg+NywQGfssHq3mqRM6D9jbpQJu56jET1XtAI3fwWiIOzmH6PoFUYrcNEKEELEotDu7u/lvv7KWb2kK3FjU3oITJQQ8g4wVI2G7SLMsoEY2qzbIMx2QQzngFFw1tjzFAZsNKgZe4FMcEke0P0WuMDr79N+4D8Hth/wbDLTtTLSYdld/+Wti9cv/ETlz6YqVh2gNx7HypRtYKn7nAMkJalu6lAKwpZEwgrZIGzJ/KAUBBMdn03cWSbACRqYKD+ynNDSk71++sjHp6UzXWojuVZkxE7DrowNu1f/eE/ernliDHGEiA9MdLpDotD2p6e148JAjP6M0oroOhmWI1I7e8k29KD5Wzrtw0PXQQw+djhcEPCr4OYSAGo8tTNG3fXHpLT2L2YymXaewE14oPPmql05L+7K23Q34w4CxgJoGIjLusFQDZBloAtLo55Am2Zddt428tHJjTLLRhDmI6fSNJQjIka1RCCWnU2GvWUhQ6WOiTIngoO4IFRhwqCuY94e22vGD71M2tnrVRIc45P63s4r1y59/XT1sV6aXAPgMiBoBoEXJTBUDI4WkLZAX0wQOBHMAK93zRj04l19Jv03w3S008kb3RFz/rqsLFTY3ZJQoqlTKSNKNLEnzJYjOoGzPCCqMTCh/78ShNnMthXu/+QttNn3wuxLgrB3PvKxNUA4DQinU2mtLUnG+AALJIYDNiBCa3e3TXPG338DQRhDzWAQoFAWHplWzCkjJsi6E1x685rZI++f1LQnDO9ze9nSKcs2ffJGgK2OV7l6EGSLOhEyxGUbraAhDD4jdAxOd0EMm1wztt+UX/dO6brwekZF1JK9sXtO7HsqZ2Pu03wc41b4s6AxIcC8NY7DeYXmLzpIGO1BM/kQhLnArTZXJvWfdWfv1Am4CXU+1X69Jn/0PNEKRCtw01UgCsJuuiGJXlC0ApFVoIGcaP7FgY9/e+D0zgd9Sh0vuzG7CxezFsiCBKqKMji7Z8mGYo39X+fOr1uE9nwZKjrfERB5GzyYFguWRYBnBeCJAHqDZfVs2/vDUb2n/TyFiXz3GJm63adWPvLl3iV/CJJqh8PJ2g5hYF8fLxDqjigpSfWTh95zb5/moyICYevyFjyxZs/i51SUI7IqlfVg+C8FYhYPnO4EQYspmjnyvv/qFZe19mpcCI+FjmXuP/Dln746sGaGM0lj662zoPPEZkrw3AYBkZoumGDiYgrLeaGRHzWeaDy+biw79yPcCcdzaRJ4xeT9M0Y9+HAHx607r2UBRkiluwoCbr3B59UZBxvrliq80KrhSqHXkc2yc69aWfjxQ6u3fz4fYgIOv1kBnMgAYzpp1ADHaCCg61sDA9nJvTaP63HfzEy3LVUt1Q53f3vZn7+oJ6dTFR5t3+2eMJQgMsjIok09o9E6MkQADuWphhsExdUwpMeIP/drN+ylWCY9IiB9pXsqILtabdm94Y8Hj++60xKCwHAhMDmFMnGEY4AVGDuU2rRAAhkkwwmkXi6bM/6hB7s3H32eoUU5yU98L/fvOeXBEz3R2MPAPjlk0UyMGkPZLZrwO2hQN+aETeo/7ZEhqVOuMxOWn/jB8tcXF6uH+ptSgH730fkEIylwU8CkoekWCJYIQigGZo18bELv+PPvY0dl7qxFmz7+KMjWgIVMJYcB7LZ5jw2CMAeQAzYoQpvYLptmj7l/diJzS9mVah3p7/PVwx0/Xfvc8jNKQbrJmWA15mTg84pKezHvT6dyaLeWUj1j7P23dYkZ+lXT85eRI+nvL3vtzRJf3lDsC7O4EGiGCjzGatAXYlgHOsIIQNAtlvGAkySdvHvMg/e3kV1br+b5cKn7QqOfvSUbZq7fteZXQbOhlYa1RzYVbwPjODDYHakwDgEmOiXqwIFEoytcajNlwq0z7rw1/bYoCIt04kRfF63A96ACURD2PRjE6C3851UAA3gP1eRO/HzXuy+WB4tT8C96lHNpmkJ3fvG/6WLygv6lRjansWIGShN5nu7Q4sEyDFhI+9D8MLQeR2kWD+1bdVjZp2v/X3RxjtkbSc8Wngt7I/b5D/bO2brk78X1ed2c8RxoegB0RQWJk+miXScaBWGi0qJ+ytA7EYRFJEdEELZq76LnDIcGOqsAwUUN4MIR++B4YHQH8LpTb5vSecXwPhN/my30PswwDNqTRXQcqdh266a9K5/PO7Ojt9yCgRqtjoIHFkQQCQ+SplHQqtMFVUSnvOiLaPi15tb73TL2lUGdZ/xvi7CEL9IzniGFSYdObJ5TUJA/VNP1RI7hGUl0l2emt8lp27b7yhRoU3Y93BeRQdpcsfyRz9e+Mx9cAUHh6kBABlJhqMQS3VCow6afg/YpfVbMGvRfcxuBU6l2pMfby55ZWk9OpzSCMJPSYTyde4apgEEU4EQBGFYEonLUJVE0JBBUrmb0rROe7dh68JvNmcwr9h9erm6nycE2245seHp/3vb7AmatJIgWGFoQ3G4n1CkBUCwVZJdAs5sYA0DQZQpcshK7rJgwcvZdaUzH8xi5elIc/2rO/62sUPJ6NTJhGFiO+ByljDYIkygIk1QZxvef+siw1Jk3AIS9sbhYPdzflBqagDDcTCFgciHKKmGAeUQgjPcDwxoAls2Sm9QGFIAnCMJ4aB3befOcMQ/dfv1B2AvLq4IF6bqoUok09mDa32XUS6PdvG7LlvXUqllj7518IQgjZJewMv/wr9bvWforSw6C36wDh0uiUlkEcdjNibl/poVgiAPCCCAbsZDp7rxtcLdhP+2SOABdSiN+PjSdZyhBPAsnPHkVB6eu25vzi9K6graCh6cGNrg3g5+LzrM0lgGNaHDqM4TOM5SHS5oNwiYNmHVHn9SJEW1CRfp8iL4uWoFoBW7uCnyL5cPNfWPRq4tW4PtcAR852uyLLZ/O31X61VxNwjBdm3kxDO3rsFnDMICa9523Yjj/K487tNTdjsrm7Owm3PpGQw+eiGAGJUiMSS0YOXjCXX08Y5GpsdHaFQ7su9lbWTBo5/HNvztSvL8/uEzgZAtCoQBdeFOTCxYtwL8dCNMRhNH+G1ztNLGTNyUQcCFvufVWidlrRvYZ9z9ZzluvAkAWO7YXH5i98qvPfh0SazMCoh9URqE9X7gglQx7UWWijfm3UA/RxVlIhHg+tWjKkDuf6tZs2NJI2TCs8cf7cp4+Vrb3xzVVZXGUVURmziAQF9PibKvmWSu6dxj6iuhJ3pnNZKtXGrPL/b6WnIxde3D5/G2Ht94ThDpwxIoQMgNgWRqIEod2lyASCZgABx1S+70zr/9vHmAY2igHpdr+Hm8u+9uKeihJQjkigtlGEEYdI3HRz5n0D00EMNDGWwCZkUFEowzdUder07Bn+tzSf8HVyGCb3s/J0N6Mrw6u/fXRot3TQ0xNDJFCYKCjpimCKDlonhsGdVtoVK/pIHMukAwXcIEYY9zgWY8NaTX9jQvHBWvy+or5q8uUE72IHKQ9YTwINCeMoy6SFliYfxZmwsYPmPHosJQ51z+sedk/FxcrB/obsg8MxqTAhbUw3w4DgkP0O40skhCKhTtHPTq+S/yI84Kwd1cun7Vo00cfBdizFLQhUGjcWcDAcVsOiL16PGTFdtw0a8y82YlMj+vGhJ1S8zt+uHr+sspQQQaGLWNOmX3YsRn4+Qz2uZpOcOotz0wf+dCUrs1u/Uav4PHQpoGL173zflWoOM3gQ6Axdr4hbcdC5BM+0CAHTYGwF0vyxUF2SsdNPdv3eaZbyzGYHdb44RF/XWpIfsy+k3vv3rhn5VMNZlUbxqGDX62HuAQvBP0B+/mKTBjKU6l7D855jjK/5OucsOahif1n3hkFYRGXPfrCaAW+FxWIgrDvxTBGb+I/qQLYC7b15Mezcrct+otfqk+2ZMRF6GKIO8boCIZSQvv/bTlikyPc13Tej3CBxfLh95vAcyxdh7GGEwQjrmFgz7G/6tB64CuR9iwRUubcUbJjzI7DG359sjqvG+9mgEgMNAQbgOM4kCVbikhMw5YjEvmambAQhjWj81nY7RElR3T3GReiJgegs7jY0loltVk3qPuY/+scm7ytaV/P5eYNsky7j218eO3u5Y8Tr5Kgcg3UftzSCTgZh93TgUDyW4AwjkHrehGgQYTO6b0+GTdwzg+Smawr9tshM3W0auvA9za+8VqArWpLIAi8YAHHmRTEWDoLvOk24+S0vMwWXVZ2bNX9U2/z1D1pTBquyq/qwAiEPKW87yc5H77nM2vTQkQBwSmAYoYAJA0YywLWZMHFuoFrEKFPuyHzb+v2+NPnLOr391i4/G9oUZ+oYn4WzwBD6Q606ibAURmgRc+HHgrokkjdKNHdDtVbqgBOJr42M7Hjit5dRr7aPLbN7iRICkbCyJ4kJ+WqsrweB/K2PXW6Km9ciKlz67wP0CAGc+oQhKmaCZJDAsISukmApjYSOMH08dA6oeu220bPuaOpIUdj8SgTlvvXVWWBwp6WIwS6pdjh1dQd0bQX3UQCnrhAUGQyqf+sxwanzr2uIMxHyhIWLn1pUbF6cKAu+6nMDVf6mJdHe0G5EP0+CJYThGCsNXv4I+O7JQ1f2XQC7K5Yefvize982MBVgYVSRJpUjWwRCyaLjK9tJMEHeGgT32nDjNFzZzdn+nwrVrLp559WT3T6cPX8L86ETmSeD8Lwe8zbAeFggmC4wKmnlk0fde+MLs0GnCdHxPOdJbu8m45u+X+b9q7+L84L4Nd9wIjYo2eb5dDeMIwhICoQRgHe5MGhxQEJima8p/mBjlndXuvUuveSNGf38kjmFoLwgpqSdgdPbL/79Jm8KfWhyhRGVoFzEAiE/HYmGIcOovbDCZ8XuOlls3ySLRcFHSTTAW41MTip/+y7oj1hV/Voir44WoHvfAWiIOw7P4TRG/hPq0Cxcjhr2dZ33jhRcWCw6TDA5HHBh7k4BPgw6KJhs7ggbOpFf16h7F4x7GiiKhnWQaU72Msi8BwYIQ1EI8bqlD745TF9p/0m0kydGlITc7hozR1b9q/8ZU2oLBXd8GhotG4CMALwvACaFnYSxAZ8xjgPhPVNiiysee2JNx5ftWfx8yFkIHgDGJMBHkODKQjD7jdcAOP58ecyhGoNaJnQ9uTQPhP+mJVw68fNmGa+SOZNGTme8Pm6D547UbX3dsYT4jCDyNINkDg3dfdD5uTbgDAEIhz2QaksOKyYqjEDZv54YMtuH12pRwWBbu7utb9fX7jqR0HhLACL/X9YY53OBQShGCug+dAO2wmxUnJVVstblnXI6LSkeUrLPSngrgLI0C7HuqHMqhYKY07V7h2w9cCG/zl9Jr+fwenAOQXwBQMguWXQAUOJUVIpg6TL4DJitUmDZj3UK3XiW431PaUd6Pn28r/m1kJFgsZhnwyuP+1xkjgWND1kmzBYABwvAS86QdFUOn5OJw+WqoPuBxAMD3i5FmVpzbM3de3QY1VyXPIuQ3TnZUAGTqjw6nY9VEFz2a/VtD7rq+pTWFw47MiJwwN8Wm0672IgSHxgCTrwTgY0TQWJcYGh6iA6JAiG/CAyHHidXgjVWiBpMVVjB8750aBWUz68GANcSU4mL8x5YXl5sKiH6QiAQYI0A8oGYTgO2J+FxhxOkEJOfdzAGU8NbTn3H5HMu0hf4yPHE95a9trnp5XDg9AK3aSKOuy1QyBrAWFVWhjK+gRjyezhj4zuknTOZh8/Z3/pl7M/3/rGBz6uEiwerfqxGUykrI3BaUhN2iDMjz1hnXOnj31gXhLT+Uyk13il151Wj3T6aPXzi86ECrMwr83kG3tYbTdXbLLjiAmC6Qan1rJo1uiH7uoYf+vmi533FNnZ+pNlb75WETo1nPMy0KD7af4b1QACi+l9wDLYi6XY57UEEDCM2xDAMsS6OEeLPdnpnTZlpbbfFudKymek2LJUONOE/U/iS9TKlpVVZcPO+KuH7C7aM7i0tjgNuAC4MUfPCoJuqMCxGGpu979S7x5kKJEBo2Y0OD52fYHTgNNFdEcMTBow+64oE3al2RL9fbQC368KREHY92s8o3fzPa8AIUTKyf/gyY37Fv1WFxscCtGA5e3GDdzpbWTEqMkG9oVZ4fXDNxgw7JJAEGbS5neWc4Km63Qhj2YJVtCE5q7Mg5OG3PdYV8/QLZHsDBNS7Piy8KupOw6v/0NlsDDTFP0gyiyohg4ahhS74kHTTAr2XC4HKGoDcKzZBITdMa9v0pjFkQzh1yDMGQKNMyjrhVlnVIpF7FBqzHjCdjdNM8ApeiFYQyDZnZ0/qt9tv22e1O7zSJm9PdWbRn6y5pWXFbm6jcHV48oQWAsNKZAtsFnIaz1on4qO1ycBBHlIjemwZvLQO57IkHoevdw5UYr44cY1r+woXn+P4QgAwxtA0MURNGr7Tg1KgANislRWillsrCFavOGoinXGF2a0zNqf1qLVttiY5oWc5Kl1iK56ATjk+IgGGq9oVV6/WpNddPrQ+IKSQxPP1J9OwR1+BF0oeUN2Aa3m0SERnS4FxQXEx0OWN/vk7ePuui1Z6nqoKQhbmPO3nHpSkaiyBjUqYKjk1QJU0VL2SbJNGNAOA3t2QpoJskuEhtBZaBbngZBfAyfnAS+fCL7KEJpm1Cc1a1EY600s5Hm+luWskAUaZ1maK6QFEusbatPr/WczGhS/C7PKMWrA4JB30ICTWSo91FUVRFYEHhfFCDg0DVySG0y/BdAgQO9OQ94Y2mvaz1sw2dRq/8KjihxLWZDz2rLy4MnupiMEGgSARyMLdElkbSaMIZiv58T6aBNvnf6TQelznr/WuXKx96E5z1vLX1h0SjnaX3MEqPkDGp5wpkQ3ByzW7tVDKZ8UjDXvGPnQqE6JI79seq59JRtmLd726of1XDljcZjdxwIxZbsnjAtR6Z5oMcAGJMiO6bZyxrj75kWSDxjpfZZoh7p+tPL5JeXKyXRD0CkIO/eN4ujziCUmSKYTXFrKqZmj77mrY/zQTRc7P2bbbS35bEru1s9f8pGaJMtlgMEhY01by+w5R78b+D3BnlkAXTVor6dDcFPpqKnwRGJcZ2OccadjXfElPMsHWI5VgRisqobifYG6lg2+ula1en2c6mEZBPfEaABiBEBgkeVFsMUDL8mgG3gv9uYInfc40Sx8Vgn0Hi1OBU6XIUZr7p84cM4dvVMmLo9UjhxpfaOvi1YgWoGbtwJREHbzjk30yqIVOK8CKEE77Nvac/mWT98oCRztTCQkAFCCxlHWi/YomfYOPG7I26AsfFwChOEOM5XIcE4wTOwpMsFUDXCyHujTftgzfdrN+l0kErZiUuwoLTkwPmfH0t/XqsXtHQkWNCjVIAgsGAYuomRgGRkMKj8TqC25pvqbgrC6KUPvuPdqQVjAFaCLa9bggbfYcOi0DcIMVgMLNCAsQ1khiY2FhnITUrzZe28bNuOnnb3xGyORJiK7t2LXm785VLz1ySCp4BCMmDruZOPiPdxHd41zlUYHEAtEFnvNZCB+Z93gbhP/77Z2/eZf7toIIfzqQ5/+dPW+Rb8jbpXHBXfICFEgxkpoyW2BaiggSjxl7jDAmjFZEIhMF4AcLgRNMSByTsUpu+scDlctL4hIDxDd0EW/6ksOKPXxitHgCek+cMfKoIECnMBCUPGD0+MGfzAAwGK4sQf4oAfEkNsc2mXEi+O6jPoFw6QEG0tSpO3q8WbOi0trSWWKjg6WHLZ/mZSkNSydgha3UwTTQEMICUTBDX7FAFbggQg6aFbQlsqaDAiWBB7JCUiW1NXUASd6KOuA94vyLxx3hjpWmtT4wMK6ogW+blDQKDkd0BAMQEBVIM7rBUsJgsCwYBkEnIIDWE0AtdaAdikdt44aOP1H2ZdxrCwh+anv5fxjRXnoZGcDQRgJAcpL0aIeF/p07U2c1IJcVCRjYv8ZPxnQatpzkWxoRDqdEAi+v+KFRcXK8T6ajPEUKI9lgTGRCcNECpVKPyW8hmCMMXvkg6O7XQDCDpRsmvn5tn98UM+Vc8h0MqwAxHTTXiobhGkg4ncrIEO2p8eaWePvued6GnPg/Phk1StLzoSKUjXBBJPHXtHGg6foicPYDQN7wlJKZoyeN7dz7KCNl6ojygQ3HFj+i80H1zxluEKCKdnsGvbo4RzC6AE0YKTsK2sAL/Jg6iaNJ+Cxl87igCc8yIILlIBC2U3a18WilBFdVwiwHAOGgPsmBAKaD+Lc6FKjAglq9H1EF0E3gQgOJ6OaKhgQApbD+8D+Nmy7C/fwIitnOiBWa9Fw25A507o3n7D2es6PSOdR9HXRCkQr8O+pQBSE/XvqHv3UaAWuugJ15FRc7r7F/2/7sXWPgtcAX6gWHLJs23wjHKM9KKbtVofuWwayDuGesEuAMB4MMAyULTmoK6LA82CGTGgRm35w+rA5D7QTR+y40oXi7vOe8jUjV21b/tdSf2FH8ChgYX4Xsg7Yh0HZKZEucmQphl6nz98AsXFuMPQgNQ0QlRZXDcJy9y5+Pujwg8Zikz0unOw/1KADDDA5HQxkxNBcgIIOGRxWLFh+AVrFZ24eO2Daz9rH9N96pfvD3x8Nbu/36crXXq3RT3ZiXZhBZALD2v0q13rgIhdrITp4UENBEEAECMmQ7Mk+OmfkQ/Nai90uW/tDVduGfbT2tYUK50unskiBgEXZHmSrdJq3hBlltC8F9Xrof0F4moOFhhiWhotRCVgGl4YWBUR0gSlgSjcDuoXmEpgBJoKqK6Aaqm3CgX1wBJkefJkIPAbgBuIgQUj5aubw2Y9nxfbc3bQmJ7Ud3RbmvLS0DqpSdZRlsQxw+FnUAh2nqgmSAKD5QmgoAilJGTsqqxsyK6rPJDpiOagL1YDLK1PAG/KHACOiBcr0yqCoBFheAI6CWQKGicAbpV88BXvUbIbDAGW8H1saxiG4owykCiKHTCEHlkrAwXlAq7Mg2d0yf/yQGU93iWu9mrlMdls5OZrxdu7LueWhwnYGymJBs2tpWcCj9AwX/MiCmW4EYdrEAdN+NqDVlOevJ9NRQ/anvpPz+qLiUF4vlCOi9A7FuKwl2M8EyoRxKC0GKRij3zHq/nFdE4avbTo++0q/vP2z7f94r4Gr4AwWB9UGYZgTaIMwPSxHdEC2t9uXU8fed09LJqv4Wuf9he87re3p9dGql7+oCJ1uoQmWLa/+us+Sp883DoGt6UYmrPz20Xfd0Sl2IIKwS1LQZ0lBq0Ub3vn94ZKY8R9zAAAgAElEQVSdd1oulTOk8HcC++XCzyOcGypoIEgIwnADgAG3w0UBOY3PYHjgMXYB1QS0n4vQOUhNjBhC564fQT9DIAZjPhoU8HBuYAwMZOfre/bqt+1IwdF+ISMUQ/MRkfWiWYIEOKMRhNkyyzijZd3kQXPHdUkauT0Kwq7XzIqeJ1qBm78CURB2849R9AqjFaAVOOrbNOn93BdfDUj1ySpvUCmYSG2c6XLr/Cp9I7eq8at+zqgD5Ygia1G5Hss7wDQ4YEzsoPIofTsNeX5Au+n/m8wkB65U/rLQnvQvNi1akF95ZDgTo0EDqQdGshcsuCDFRQ9KBdEhjLqdoSEDvRyUQ2L+D7WovyYQFnIGQOdM4BFg4G49WlrbQh8wEYSIBII6ZiAzIPFu4DUBSIiFWDGOJDkyP5g75pEfRJJBhUzfrkNLf7X1UO7TmugTLR6oDNTu+7m2wwZhJnAispjYn4Leek5gg064JaXP85P63/vL5kxz7PC/6IHGEBuO5f5k34mtj5fXlLgcMQLwThYCaj1oGBgs8xQo4eY9h2AJd/SxPQYBJGZaWTzNtUL5GrIdjf1taFCBB44TwwuUKTUNe/GJgM60kG3VqIGFyEig+QCa8Rklg7qOfHpk1pRFF1p9F6i7Or+z+h8rqrWKVCJizXQQkYUgFhicvRjldQNkS0Q3Sxg/cuqjaoh4125a+2jAqkwnsgKsExfmGqgKBiELILAylbXighYPOrdQgMlJwHICmCbOa+zNQpMaO0ib7kcgBcJg/6QdZ0B0FmTBS81R9AaAJHfL8oHdh/+obVr/pVea+xWkKPOdnL/lloTy2gbYOpBjBDSJpBljMs+BHsLgZy8aP0CCkKgN7T7mx4Myp714PRfZ1eR4y3dyXl9cFDjSSxF8NGNLdjhA9WvAS7wtUdUJSHosOLVEbfqguyb3SRmW23RC7S5bcefn21552y9UYSMh6AYLwQYevPHNIKjXUqmoETBAUlyQFdNt3bQhd9+T6swuubZZ/813Yc/gRytf+6KWlKfUGw2gcRpIDj7s9CrYba1IK4UkSBZvKZs26u47Oru7X5IJo3OXEKZU3Z+9ZMNHz5T586f4oAoY2aLsKM21Y2W6MYObDbYrrH2gSJs+maixkQ4ij4YejcYa9oYLbmzhd8FkEcSpIAki6D4VYqV4GlYuszG1Hdv3WJ6Rnb12yepFf1QZfwuV1IHFBoHl6LcKOAPnJX43GZAsN8RDWtWcMQ+MbO2+9cD1qmv0PNEKRCtw81cgCsJu/jGKXmG0AlBHDsQt/WrxqwfKtszQJQV8hgGi7KCyrm8DwhhTp5bxpoE9OWjp7gI323znzDF3Pdne+U0HsguHopIcdq/fueoP+/N3/EAV/ZyGLnFovsCzoCgKzQOjDne4i0xdC9G8DeViNhj8NiAMjTm+liOilNJC5sG+QgpwkLHBnjBsBqELLI66+AEyckQENyRU9Osw4bdjO8xd2Ginfrmptr9uY4/l6999u84q76gyfrAE7Ke79keohSAV64K5QfhviwUBLc6DAqTGtCsa2GXco/1ajFl5uUU7ytH2lWyddujIrnmlNcUddCbkEDwsgEBAMXRgeQ5M7N8ywiHE1KyE0N4VdMS0TAxNxrvGnjLMWsNYA5SDITBE8GWBw+FB7gk0TacAA3k1XIQKwIMVAOB0t39Al9EvDO8y6E/NmOxvGJ5QELbq5eXVelkaYBgybh5QEGaAxtm9YKIJ4DAdIOgxMHX8nTOd7vTcM6cOPvrl9mVP6IIvNQQ1NJSbk2RgOJyvYZYLbchZpLxw0U4oCEIrFp4X7Rw6NElA8MijDMwAwwwBMTUKyARBBlNzgsDEgBEAaOZMzhvYbeSfB6d3evdKxihYsRpSkrpw+TO5Z6G4Y5Crh4DZQIOS8XPB0MAhesBfR8ArJoKoOPzjB0x9un/61Fev5+OsihS1eHvZy0uKA0d7Qyx2vKH5JQEtpABeBsPjRocIbNANHjMlNHfUwzM7x/dd3vQadpUvu2fJ9jde83FnhJClAC/IIDBeCAQVIJL9fACVBbcZD2ly+7Vzxt17ZxLT+roZcxSrRzu/t/KVz8r8+dlsDAs6r4Jm+u0wY0YEkUMgxoJgeMERTCmaOWbe3O7xvbdEUscidXf7VZu/+PXRsp1TeY8hmYIBmqHT+YxzvFEt0AisULpMDU3CwAxlrSj1peAM+73w+YXRA5b9B+uLUugYIR6sBg6YkFx2a6/Bi7t06vryqTMl/XI2Lf2TKvjisJcUWUVkwvA5hHJgxkImnRryQAKTdmzebQ+MTGC6lUZyX9HXRCsQrcD3owLXvoL4ftx/9C6iFbjpK4BmHNvKl81YvHbB301PTaIpmeDTCMiSm+YzXRaEXUSGaN8wsiIWWKYGsijSXi2EJazq1jq27vv3Mb3u/MPlWBg8A5pDfFV2aNryDZ/+xW/VtBRjGWgw0RaaBZMu1LE3hQOOuhViD1Aja4TMi/3oQWOQa2XCqDsiGnPwOrUzR5ID1VS2UZ4NxFCeRXChTzN5LOAsQnuAWMMCRpXAy2RsuWPCw49nOXvtuxJDUUEqXOu2vfP3A6e2368I9azBK8A0yj2vYRYhCLOvE6uFvS+YjwUACgdOaAaZ8V0+nzjsvodSmdSay50eLeRL1Ib0ffm77j2Qt2dmnVqVQXidVyBEjShQXoj9VXQRGe4TtBeS6BRn5ych8LKvB40EzvW5IUsq8gIFiIhlcVHM4bWaHIjEAZLhDnRtd+trfbsM/nMG06H8YteJIOy9VS8vr9Iq0pCZRJt/AcO1EYQJyEQwIBgsOEwPSME4mDHmnlE9EoatwV68PcdyHttzbOPjlcGiFNnLQchSIaBqALwEDIe5S2gLj6Y0AjZAha3IURKI5gho/EFoFAI6/KFxKAJQNGeg2wBEBi3oAs7waBmpbbb07TLgT63ie2290rxvvMdaUhv72ZcvvJFXtXNaSPKBxgQo6HXIEqgBH2UJefACr7uBDYrlt4+dd3eXhLFrrmGqXPItVYGiFp9sfPfNYzW7RluuAGjgB9nBgiyiU18I/Kof3I540Ooc4CGpVXcOe2xax/he5zkLHqzeMO2j9S+94ecrYg02REGH2xkLwVAIVJQzMgJwmgRMgxu6pgx6/4Fh8x5iImDII73PYuVE1pLNb791vHx3fymehYBZBwY0QHyzGPD7AtQ9VAtZIJrx4LEy98+b+oM7s6WOhyM9/xmS13r70XUP7T6y6e46tbIFK+FEZoHlcc5j4x7mhoU3HQhKl3FfADcpqMdqOGeM7hXYGxBhphg3fER0NtVlCJ3lwMMn5Q/oMfL5Nq2yPgI3wJH8/X/ZsDdnti41SJbQACZuTuGTFwElOjKibb7BgqC7Id3dfv2jY56cxFyG+Y70fqOvi1YgWoHvTgWiIOy7M1bRK/0PrUARyWu//MsFr+aV7xzIekJARAAdG8iR5kFm43JyxMuAMFxw4w4vLlZFXGiZDpD1hJOzxt53T8eYgRd1H2s6BCfVXbcs2/TpP09WHR7KoFU+h+IcBYDnaPaSxxUDuoK7zueDMDQOwGUwXve1grB1eQueWLlv0XMKGiLwerhvBPstGuWWNttG75BjqQwJLIOyIhLiDpTjqSgjcoX6dBj+1qheY34XiePbztKc25Z8+cE/NWdtisr76YL1nJjp6icoAh+U5XEcb7NMuOFuccCGJHBD87qRfaY9Mjhj8ieR9BEhGDtWd6bfjoNb7ymtLBilcIFUhQRAZ1RqQEBdNBm7N4pKoVACydt9hBSU014X2+CFSkUJgMMh0THEPhmRd9LFo6og6yiD15FY0a11n1f6dhj6cnMm85K5UYXq7i7vrfznsmq9Ig371gxQQWBoLDKYAkomLeB0C1yWF+RQPEwdddfwXmHzCAQ6p8/sHLd1z+ofF5w51pF3sxLn4CFENLDQWVMwQCca6JptcY9uk1/3QVp4zehWaABLnQqRKUXnP8RkJp3vMVKr0qyMTkt6dO7zYrZ4a97VhPWi5G3Vgfd+sXbf5z/WHL5YKZ4Hn88HqLAUWAtMxYIYZzIEanTIjG+7Ze6Eu+6IZ3qdvvpZcul3YD/mpztff/ar/NVPgCvAMqJmu46iQyaLAeno1ucApVaGdsl9107od9djbeT2eU3PWKYev+XDdS9/fNp3tLPgRiOUABCMq+A5sAQEJTw4IAG0WjEwrMPkZ27rfvcfrrRhcTX3iJsbG/d+/Kdth798TIgFVmN8ENLOUqdWy8A+LQ/oGgOCHgetYnt/MnHE3Icymcy6q/mMs6TAe7Rk76RdRzfOqzxb2ocIlkcjQSBcECzMQkMQxmKmF2M7f2KPYeN3gbJjNovfyIAhGBNBBNJAQDK8VnNv690Deo19pm9qylKADmYxHMr4KPfdjyv8+T0MsQFMIUh7VBHJ4YYGi+DNEtCxFNiADH2yBr47q+8P771YFMLV3Gf0tdEKRCvw3apAFIR9t8YrerX/YRXIJ/lSXsFXP1m7Y/F/g8vvwp1uwB4o1gW6Hs4Ca9oPdslesMbCNYIU+9+4YDU0HWS06lZlyGre4+PpQ+56KJ5pU3+5UuPib+XRd3+89uCS35lyQEITDg2lTOiwwGIGE1oys7YEsJEBa5JZhn1INiNxbUwYgrBVexGEqVS+hCySvct8fu8bDaGmUkg0qaB2deFeNOxVE0HQPSBosaXTRtzxYK/EcblXWlzWk8PxC75YuKhCOTEYzRh0NMD4FmHNjeYcVBJqIkgk1DYdFBZY1QkZiZ1zJoyYen8G0+uiLNOFY4TAwAclcaU1RT2Ond47Ka/k4Ki60JmWiuWPYUWGAmQEYaiB5FFOydaCRVQAIlCJFho62IGylCwALRQEnkXjCxEYzI5SRCKLcSVtMztt6dqu79udYzpuvBIrclLb2+39nH8uqdLLWhHRNg7hWezPATAIOhvilA6BZEkga3Ewa/R9Y7rFjl/VeG+EEKFcO5V19OTOe7bvW397dbAkg/cAaAgwkWEVWSqZo306KBMjtg0+/kxV7Ovn0afeQAMOjjpEel0J5V534q7ebfstSE/rsfpK/V+X+i6catjTYdmGT57PrzkyQvJiHIMKvADgcUjgq2sAI8SDi4sPjug96vfD2/b5WyRunFf7iDtYs2X0mt2fv1RYeSRLdADIEvZGWqDpASC8AcGACU62Zfn4Abf/fHDL/h8zFwR2E0LkZUffe2LLvpU/DZHKZk4PttCptKdMZwjU1ykgQTxkJnTeObrH9Aduie953fuW9lblTsjZ9NlL1cHKdM6B4dkGBEP1IGGvqkko8PfKKWcHdpny9Kg2M9+60vf0YjXE78Ypbdst+47unXn42L6JIVLfVudrvRgtgFMe2WLseUSbfwOZYmL3fOIzhLojEsz9IlSii71iTnBDLImvyGrZaUmXWwa+muXtuR9BPCoEdtSdmr0oZ+GzhlyboPPo4IqmN9QX0abUkIU2eRAtD4BPsiYPnvW7QRnTf38t93W18yX6+mgFohW4eSoQBWE3z1hEryRagfMqgIuGQ8EtPRd9+c6bVaGTHZFtQikXLggogxWmYM5jYq4ShGG/EJXHaBaIhseaMujOH9/acjqaB9j2dZc4SsnBtMWr3l2Q5zswUpdDlNXCRRvaoaOduCgJ1GEMFzX0oAv7c6YgCD6uBwjTZJUGytqJP00P27Ckcfeaw2b6sFueQbPTLOBZESTGDcFqE3pkDVgwtf+dT8ddYYcdreGX7X3tfzcdzv2p4QhypqCDxTbJcr3KOWxb1KNtP9qka3Rc0aESNMx6cgCve8707Tj0j5M79f4nw/S67Jg0/WicO2fgjFNXS1sU15zofbI8f3B1fcXA2oa6bH8wIBkWjpcJrOAD01LAMjkaIcCEQRju9ON1WLpGF4w8EfxxMS0K26R13JiR0WFxqjdzZzxkNUSyaCzS9nV/f8U/llTrJWmmhAyY9jUIQzMYCYG76QfWYEDS42DW2Acm9Yy5bdk3AeZJubC+asD+gp3z8ooPjwtZ/mYhLQAmgmB0nWNR9IozIZzNBChHxHuwqAGHwDhJrCO5JC05a1N2ZuePUpLabGoFreoiuYdLDSvWedfpVdM3HFj127La4o7U1Y/BEGoGiA7gdiT4OmV1+3hgtyF/bs50yL/K6RHRyxtIRfNdxRvu3rJv/Y/q6qtb8CwBGh0IFihmAJrFJTe0zezzt1s7jHnjUq6GhaHC9F3HvvzFkRPb79PNWp5YChhorc5yIAleiHOmnOzfdcQfB6R2ePdyjpERXfBFXoSh07sKdjy6+9jen5RXnvLIDpStajTnDqWlHrc3kJne+a3hPac9k8K0+VZsIn6HT6oH2pwsPjzuSNHOyQ1KTe+GUIOLuoNS+aFFnxXIoNODSltRvs1TaaQsOs2YmNj8eEfCxh5t+n7SuXmnr5puRJSQ/akf5bz1Sp1aMt4P1VQhYGBmCD6DcFOKAjqNmiDxqhcZ79o5Y+6595aYAUuutX7R90UrEK3Ad7MCURD23Ry36FX/B1QA825WH17y900HcufxXgsUogDPSJTV4amEzEIbha/7q2hJrgKEUZEg9jWwPHCKAXFcUt49U394RzpzvsX4NxfDhPuqYMmduTs/+nudoype4RUQWQkkUQQ1GALT0MDllKi7GQ0qJTxgPCqgkUMYiKFQ8Nu4IzYyYTqCMNb4unejEYpRCSSCMMs2v0BnQGTm0JejMdCWNuMbLHAKD7FMcsmkIXMe6Z446jzTgotNs0NVa4Z9uPrNhUGuNt2UURaHeW3XethujuiahnVrZA+Jhgt5J5gBFhLdGYfHD737wS4xVzZKuQxYECq0I9m1gdqMM2fLWtfWVGfWhWqSq/3ViaqpeUDnZOSOGJS5AugCwyoiz1U2i/eWJyUlFbaIb1EU6006mibGnLjaRXhRYF/3D1a/uLRaL2tpSgYYGJSLDXwmumcKIAocmGaASrNEIwGmjLh/XP9mY89z8Gt6Xygt8+t6dllVcZfSM3l96nxVmTVn69KCquJBT0yGZRnq8MhYiiQK1W6X90xyQsqJtOSsvS3iWhzwCjEn46A1Ashrt7ZsckEoA91bUzn4cMH+GWfO1mYHAoFYniHBpGZJx1pndPyyfXrb1ZcKfL7WWXPh+4rJ4fjKQGWfwoKTIwuO53dVGgIxsbGxmjcxpjQjo01u+7R+n1yJ7TtFTsXlFx148GTB0f6BhqoUvz/AObzx1ZkZ7Q61TstelhLbemek/XLXcl8YwVFQXTrg8JEDk2p9Z7J9vlq3LDjVxISE/Lbtb1mfndxhdQKkn4l03Ag5KQNkGJeS+FGGFU6m1J6taF9eVdq7qraydb2/IqEhUJes6EEvAYPnOI5wRDBk0Xk21p1Q0iw2qTAxvmVBckKLnR5nWkEzptl5RjQ4F9YW7X9q1eYPf0FcAa/OhMCkjZ5OTHS0y4LZYKxiu5MGvdA2udemiYNnPpDKnC8TvZYaRt8TrUC0At+tCkRB2HdrvKJX+x9SAQxmPurbPvaTL1/+oEo/HQNo0Q0IJmRqMS7QfC80KBC/2ZPUFIhdpifMjrfF3V0GHIYAyY6WS+4f+/h9Xqbj2cuVuZyUJ27Y/v4Lu/PX3a7FhkAXDLB0mn4KIocpTthHgowdBsdi81FTEGYbQdgsmAFIuImmE3g1qW7K0LkRhzWvObHgiTW7Fz+ny8plQRjNa6JyRAIGDbaiKda0/4P2PukEXLyb9mB1z+r/+sju856+cGF1YS3QFvz1JS8uqDVKR2tUaoQW+Ndy2JbxtNEfe4jQDY7jaM+SoZngEl1gaRywmgN6dRr2wvBOY36ZyNyCFnzf6kD2xnYvKZfrAb02dUEHUzAUkYZL8YTXOQenSiBp8eDTADK0SBe+F7uwQm1P1w9X/CO3Ri9JRtBqgC1VtUycMxx1NzQNP0iMC5yQApOGzR3dO3bM6khukpBiRwMEXX4wXaZmei3T8GCvmQWMwXCW3yk6fAYQvwWeUOZlMr8i+awrvYaQXcJpSHRzKORsaICWHjlwtYD1Sp9xpd8jy1MPpz0MsIzPByDHyHoCJPgjZfvw/UVQ5I5FfxgwBBHi1XiID/4re5UQHFVBlRSCkODFLDnqyxgfEeuK9SkjZc6qqqLBlVWnh0g8r3md3gPJqW02N4fMykvVAZ+3ACeEaogVCVS6TNBkrCEDOuoHCQseJQFi6wGS8LtwUUYaAdjW0ydmrd6+5H9C3Jl2huAHDaW+HA/AeCibhnEJDOYnciHqRMv5mzcM7Dz29xM79X8+EkfOK41/9PfRCkQr8N2qQBSEfbfGK3q1/yEVwAyo9ze8/lJh9d7ZmtgAFqvbVuLYQ0MNLcKb+Ji79fW3uMnGfgQ5YVhKdAFjdB7QcX1s3yl/GZc15NdX6ls5HPyq76crXv0kwFanKXwQTBbXJLbRBj0w0DRsFoLN7fRA57pGOWLYPANBGIc5YWEQNnlY5CBs5YkFT6zbs/g5VVYoE/VNOSLNFA77JNILsC+j6RMvLMVEiRHRCCQ50/fOGf/wjHSmd+Hlphku8jbu/ejZnUc3PEqcCpi8RiVoCOrwU+i/KdY7JxltPB9KPxsPCsDoNVlgUsCKtbPHkOaqYcA0eEDxKZAQG1c0pv/UxwbE3X7FvrWb7StSqB3q+nbO33LrSWmywQapqyGCLwZDkgmHlgjAIstrCiAZCTB9zIOju0cIwpreaxhcIpWHldSvxmTjZqtZ9HqurQInlMNZm/eueSy/7NiUgHI2ERhdlFgh1Cox80Dntj3fbp/aeUUCtKuOJJLiaq4AVQsHi3ZO2Xl861MldQVdDT4IRNSB8LbLIrrP4uYKGsXgsxtdaSU1BhKN9senjX/wjixve3RnvS7M7NVcd/S10QpEK/DvrUAUhP176x/99GgFvlEBlNGszN8076vDa38dIGda6Dw6eFlhEGaDmcY8rG/GVIX/Ho8QhCGw4wwBHKozMGnAnP8amHr7W5cbEtyl3lyy+N5lWz6Yb8gNDh2dxZgmPVFX/NxGUIaLkWsHYasKFj65eveS+bocpD1hTQNX8fq/BoRNEc/XN2bXCBvtEQjgPxhG7OHjz07td/e8nomTll6hBlzOsQVPbdy36o+aXC9S62nM1gqDMHwvuh5eHoTZEQGUNWQATPxDLzoMwig5hr1SMjU3YawQdM7s+cWwbnc91JrpfN0ymv4VXz9kwt7MfT63wSpPNli/nV1l4GaCAAaCMAbFqioNsJWNeJg15v7RnWMnRMSE/SuuP/oZ340KVJPilp+ue/NPJ6ryZjBORQ6aDSCIqD/GLDsRnOBRkmPTt7dt1XFZRovsdfHOzBNXYr2vdOdownGs4VSPQyf233f4xP7JVcGyRMnLA+sgENAC/5+974Czqjq3X/v0W6YyzDDA0HuvUqSKImJDRWPDnp6X8v6JMe0lz7zk5SUx3Wg09hJ7Q5QuBqRIB+kgZSgDTJ/bTt3/37fPvcyAMDMUFfAcfwRm7r3n7r32vjdnnfV9a4kMQOqRVRgFjFMunyvIGH3U1WSuNb7rDX/rNWTkTz5tlbapeQSPBwgECHw+CAQk7PPBPXjXAIETIrCTb+nx6tv/fOJgbMdw14iD8qg4I7sBOshdwnc/o+N0SZggLLaKFnLrfddcdMutfbMuWdDY0hzmh7PmLn/mr8u2vn87i5L1ObkDnioJoy4JG4obhmoW1Vw9ftodw4oufqM5W2P21me+M2fN62kSlmpAwtKuj0d8Ok6kDtLvfbWJSA55tsupsDu21+RfXdn36+RS1qjbxoqD70x5e+GLT8Wkw9m2kvRLHImEpW9m15Ow+i61o8lhuhTxCAnjol9NXDEyyjPzSZhna4iEwojVVSBLalF1+YV3/GR0qyn/bMo4pTkYflbPIRL2zDt/mVnDiYSREgbhDEdZCwQyRZfJSEFxZIpIwA2TiIQ1rxzxs5pD8D5nPwLL9s742qylr/+6yjuQZ0pxyGEKBvfg2Qyyo0AlIwxPRkgxkvnZudsKs1ut79i2/3t5WQVrCnJa7S9AVjXQ1mxKkSLF9TAOR6pqd/XctH/xFdv2rb/6UHlZP6ZQ4J0Nm5t+t67iq9v0veA6dKkli55ez5MgSxpypOJNd074xt0dwoOWnP3oBiMMEAgQ+DQQCEjYp4FqcM4AgVNEgJSmOVteuu/9VTN+bCnVhqNRYzfl2Pjhw9RfRdfqmeDj0yVhQg0yNZRkdfrwxku/PK0tG3BUhtCx09jPN7Z/edYTr+6q3DTYM0xhgX2URftJKmFkUS96wqyiminjTpKErX7zT3YoJnqy6pWwRkgYTebI+NIkTIQk+26TLKGhV8EFL0+dcPtXmnJJ3GUtH/ivd//5Vrmzp62jpo705fnrkVYtj+rW879q6xU6f5yZslJRjkhqp6CGPgkjNzZwXVitW2YdWEpH7+KxSy4bfuOt7Y1ujZZMnuL2+1ReRiTsOSJhXpkgYRSGxjwyaVHItkWQMAkpqLYKwyng11961yX9cyfO+1QGE5z0vESAIjNmrH30dws/evd7pl4NHqI0OnJn1UFZ3RRLENJ0wHFhJepEz2pIpqDu3Hh2qKgyN7dlaW5W/oZwOHtnViS/LGLkHVRULeHZrksR567kaY5ptkikaoqrqytblh080LOsek/vmHSgnSXFDEWVoKoyKAVPGA5JFIlBgegOZFmFmfIgSwY0JQd1tRayswpiw3uNe2BKpzH/G/SCnZdbMphUgECzEAhIWLNgCp4UIPDZILCpdlm3t+e9+K/DiT2DSAXzlBRciSw5/ODhI1HEpISJoOD6HiN/hM0vRyQCJlSgpILOLfrOuH3CHbdns54Vjc10U+3ika/OffzVavdgq6QUg6z6PU2fcGXMnOSY3K6GNvV+OZ4LzTPImKNmyrhb7xhWdGnzlLAdTzUoR2yMhGUGcnxcGDk2kgrGJChmBMVKlyW3XvrVW1qFeuxsDIdKvqHd09gHa7QAACAASURBVDP/+cae2JaBRML8DCC/tLCehNG/j7bOr88x888ueHW6fJFImM8TPWEeKIJdmT8+clRT3Sj0ZHFswsArfzmh+9Q/NKXWfTY7tul32Wst6//kjIferfHKim0yMSH7b1cFZcVZVLZJluqeI0hYyG7hXT/pnkv6506Y3/SZg2cECPgIkCnKqysX/X7ZplnfZtkWHN1EzI5DUyPgzM+Ic20HigToGtEq2+/TsgwwGCIbj6IMyMFVkzVHU42kLMsJWVE813Ekx3EU17MjnucYFINAeX6e7In8L49RLh11Nroi0kGRSenywF1yTaX+RwmaFBYEzEqoMJOK07PHwNcvG3LNfe3ZuXMzJdhrAQIBAmcegYCEnXlMgzMGCJwSAtQLNn3N3P+3cM3cexFNZDtKEp74P3mRaiU0EqGkUI7NGSJhIsQ2paFfmxFPT7rwzm80ZmMtMpEOTr9q+sIXnkmptVlxHoOkpEnGsQpYc0iYMNh3oXgGNLNl7ZUXTbt9ZMHkZpKwJ74zb8X0P5kh6gk7CRLms5wj68PTJIcs7DUnilyn9a7rL7nrhu45FyxvbBHr+LaWz8196tltVWsm2lpCkDDqAROW/IJUZcogT4KEpY05BAkjYw5xdUnk2xWZSWElF1ZlFK2jndfeMeUr1xadIxdwe60PBzz19t/fqeaHim05AU57hpzimASX0d8eNNeDamsI2QXe9ZNICQtI2Cl9iXyBXzR785P3Llg5/efIToZr3SpQ5rlNDpyMgsgV8T1K8R5gLjzP7yOVEYLENMgkx6Y/b/T9Sn1cnmOLGyD0uVY1GbKiiNc4juN/h0gyJE1HKuVHS+i6Du4QuUuBcVtktakU/mxyqCwLblIBUtFUr65D3x8+aNyPeoWHkBnHsQGHX+AVDKYeIPDFQyAgYV+8NQ9mfJYiUJra0OWl2Y89Vp7cPYbsjYlckFmDSxcIVJoGJV3O5tu7nwklTPYUqHYUQzuM++PUIZN+1FhpDNk4v7/zubvf/fDlB92QpaZYXFygHFcF+2SdZBr1Bu6AVLZDPWFEwqyC2ivH33zHyIIprzdneebteOy7s1dM/6NPwhoacxxbjtjwbEf3h4mkMuqvI1t4z4FmR5CVKqq4Zty02wcWX9RoXhhlVU1f9PI/1x34YKqtJUWdYbNIWMPhcHa0EpaGUmieHtkr+o6L1EPliou6MHhtFJqdl5gybur3R5Zc9ei5oIbtt1YOfvztB9+u4WWtTCUBKFSqRT2OlNtGGMhQKXbBMhCyC73rJ905sX/uRUE5YnM+CMFzjiCw11rV//l3nnj4UGz3cFdPgukuHObAJkVKUqDquiBilu3fKNEUVURU+K2Y3LePlzgk2pOSC3guZJLO0o6nDhEzUqVFCS19WBWYjgpZDQkSZlpJuK6JUFiDrspwkknS1aA4CnhSg2JH7S5FA+aNGjbhZ91zLljVVO9ZsLQBAgEC5z8CAQk7/9c4mOE5gAARnBWHZl3z6ruP/1Vt4RbX2eWi1IXJ1DtDJIyct9NKmPjNGSJhjoKQl+sM6z7xf67qc9evGruo9/vVHvnerBVv/MaN2MxTHWTsQj4B8UmQMM01oNj5dVPG33r7sOaSsG2PfnfOqul/TIVSJ0HCxNWWP1RhdMLgeC5UQ4dn25BSOrKSRbGrR9/0jWHtJj/b2F3qQ/xQdN7S5/+6fM/8OxydlLBTJGHpiAFSgwgycYM984fQJX8QYaUmAY4KL24gWy5C+/zuL1w39vqvtmBdjwqLPRu3+l5r9YCnpj/0djUva5NSa8FVG5y7oPgCUnjJGkVx2BESdsOkOyb0zRvfqEHM2TjPYEyfLwKk1K8snzV50Yr5P92xb+PQaAtVtngdoDgiAsIWtoQyoKjCHMO2bYQkKsmmaIkMwaLPMReOnbRHiWxJMhPkixQwJknQNBFoDtv2oCjZSJqUeweougLXs2Hblugxpe5dydJgIAo5ZThdivu+MWbwpN90zhm07lwy1vl8VzV49wCB8xuBgISd3+sbzO4cQYBKEd9aPfsHy7bMuc8xYmEq2zK5CaaooKIZMjLIkDDfzOHM9IRRNpMcj1jjh1x9/2Xdp/1f4yRsmz5769z75q6c/vOkkWByWIJHpTkNjxOSr08uBH356LIMO+4iKreKTRxx3Z1jim94paklI8L63o7H/9/c1dN/G9coLNlMd1fVv7JhHtfR56tXw+iuuBiuTC6JHmRLR3aqKDm+/+X3XtTjSw81ljNFIcFvrHr7t4t2zPyWrcWPOG5Qf5xQeahkVJQ4HVOOeAxWZL5BYxAkLD0LYcqRDrSmfDiqRDVdB8zToCHL712LdFo0dfwtt3UI9W+0d60pLD+Lxw/ydZ2eefvJV0rrtgxU8jjoBkMkaiAWi0FXIsIFUrYhwmsjblHVTVfcM7lrePjSz2JswXucXwhQ2PSOxKr+67etvHnjjhVXWKhqm3Jqwp5iQdIYyLfQFZ9P1Xch5bYgXKJXVZT+Alw4IFE/JhNliYKISfSz379Ihht0iBsJxOsUWahoHicTDopcUCAynl0NzDRQEGq1v1fHC14Y2HPYP9trfXac6Yyy82sFg9kECHyxEAhI2BdrvYPZnqUIcL4//OTCxx/eWrZyWkqqAg95sLgt+hnokpxImO+KSP97ZkmYmsyyxg6+8leXdZv2v43doaVMnBkb5/zXgjVv/zgVSgA6hTIf09JwkiRMcjkkR0dEbpmcctFNXx6cc+VzTS0REdY52+b+eNbyN3/iRJMSKYYNY5np9SdDwlzSY5gkSFg4UWhePPDy+yf0uPG3TamCM9Y//rP3Nr/1szNKwoRZCtnTUzmiAxdJvxyR0b11TWS6KXYUOax42w0X33FHz+wLFjeF1+f9OCkUzy7/08Orti36Co+mkOTVYJKFcDiMZK2NsBwFsxl4TEGnov4rLht369ROoV67P+9xB+9/7iJAN2q2mys7btq67KrSg9vu3HdoZ+ekVxeGyqDoKjiVD3qm2IdErKgklqfLvoVJB1UjipJFXfRkEk8T5Ev0etINFnoNoCsybMsSKhm5mBqKAcdi4KYCg2VXdG3f/9U+HYf+fWDh+I2B+nXu7qdg5AECnxYCAQn7tJANzhsgcBIIlPGyyMsz//jM3rpN15haDJ5qw2FuuheMCfJFVWn1JMw/+elY1NO5KD/HcHPssX0v++Wl3S/4P8Z6k6XXcQ8iPzM2zPrFgrVv/9AJp+AoZlrtafD0pkhYgz50xunSRxPkR7JC7uSx1/7n2OIb/9ZUr0QZXxtZu33ZT+asmnGvbcRkGgfdxW54HOtC+IkJpXPX6MLL4S5USYZiG9Dr8lOXDb/2p+M6T/1zUyTszfUP379w8zv3+STM/yptUgk7Ch/KCpOOVsLEOvt/AAeelIBLKpmsCadEpDjCyIWSyN134yV3TBvQctx7J7HNPrenLtw9/cqZS9/4R8w7XKxmc8RTVVBkGVE5G8ySARL8nEj52CGX/6lT9xEPBOG1n9tSnVdvTNb1u6z1XQ8e3jG09PDO8bv37xpYVXuone05eY6SYp5mwWFUHktliLJQvMRdD7IMonwvm3IQGRQqW0yb7wgXVM7FZ5QnXUHUFE7uiy5gyTXZofwd3dr1+bBn9yFv5eW1XFbCeleeV6AGkwkQCBA4YwgEJOyMQRmcKEDg1BE4xDdEX5z59KsfV62fSCVbtWYNFE1FRmjK9Aod+cCmSceZIGFhnuON7D3x15O7j/hl4ySMa+9uevyn81dN/5mXlYAlJU+bhLmWhJCcBdUNo0+HQQ9OHnT9T5vK6Krmu/NeW/r0wxv3r7jBUmNwqRzxFEkYk2U4jg1Fpp6kMPRYfvyKUTd858L2U55svBxxm/7S8nce+HDX3G/Wk7CTtajPkDDKFUv3hKXLTmVP+LiDKUnYng0uk5W2Ai9pIlspAKrCh2+67J47BhZe9M6p77rP7pX7+f7wys3zfrBq0+KvxNzK1h5PgFGhraXCszjyswrKSgq7vDB26KTfl4QH7PvsRha80xcFAepp3Zla3fpQZemIA4f3DS2vPdirrHZ/95SbyDVNM+p4tipKDNNxE1QgrKsaUS5h3CHC2NNfyETAGJc8hRtmlp5dkx2JbivKa7upU9vOC9sWt/l3MXIOBvlfX5SdFcwzQODUEQhI2KljF7wyQOCMIUAk7IV3n3plR/WGS9VcjlqrDpLm9ylQp4IgYaDyP/8tqU/Mz9xq4PgnHjnJnDBXhuFlYViPUX+e0uuKHzbhjqjM2/rit+d8+Mrv7WgdIwv9+qDmtBLVbCUsHZbsqYCrQHV1tNCKdl4//ra7ukRHLTwRAaKej23xReOemvXIPxJSRSdHiUP0TR2Tl3akHDEznhM5QUuS3/chcUHCwomi6mvH33rn4OKJbzWmyJXy0tD8xc/+Y92+D6bZesxPHD6iTJ5EWHM6ckCENYsWMlmENB9FwkCB2ETCVHjJuCBhvDJcftOkr9w9qNVFb52xTfgpn2g33523cdPiazdsX3NbMlXVRQILq1yzs6K5u3p37/Nox859Xg1Ug095EYLT+59TXhoqB8+ripcVxhPJ1nXxym41iZpuiURdXsqs1U0nFXE9y6BsMRselz0SyWRb041U2MiqixqRclUNlee1aF2aFynYYWjZZYoW3t0WbVOB7XywyQIEAgSai0BAwpqLVPC8AIFPEQEqR3zp3Qee31W35SpTTYBrDK7kHHHLozytDBnz6diZIWFkUa9YOgZ0HPL0+CGTv96aDUmcaJrU27Os9J073lr0/D+SRrnqaakjuVhHSNBJkTBqatfgplxItgLVCmFgh2Fvjxky6UclWu62Ywkh9XlsrPyg59KP5j6wpXzdBFOrVTxm+Q6Cp0jCRCM+lSJxF4oVRq5bcuj6ibff2Cev8TI/Wq93F/7zqfUHllznGPEGJMwnwd4nSJ//VSty3vx/pX8mBYyLtSa3QEHCPA0Sp/V14Uq1ItyYIyTsrrmVRMiLQom1ODz1kjvvHtxqwvRPcVue8VOTGrHH3FaSSpV3tM1UbjiSVasqyq62ura7MRX2jA8kOGGAwDEIUOmi31y6UQI0dgARWcJhinFPR7A7vAhhB6jxgMH0SXYDwhVsowCBAIHTQSAgYaeDXvDaAIEzhADdmX3s/cf+seng2mlJpQ6SocJmVpqEeZCpOZxs6emgXgSQYccZUMLoPHGGXm36vHXd6OumtWDDG7U8/6hm8aWvz3ny1WpWGnGNJFyecUc8GSUsQ1Q8WI4JQ9MRkiLgdQxGIur27jDwve6dBj7Sqk3rBRqyzBiSsgY3p7a6ZuDSVQu/9VHpqlHINzVTriOaklb/Mj1hGXJzdI9Y/TIdrRxS7A811HuOC8UJo0jusvWGSXdd30kfvK6xpS3lG/JnzH/+pa0VqyZQWLNoI2nghVhPwo7+iq03DPHXThLlT2ShTWSMSJjqm7BQiDYo56gGkirB4wZkrkJyTWiWgWy3zf7rJt4xrXfu2PlnaAsGpwkQCBAIEAgQCBAIEPgMEQhI2GcIdvBWAQInQoDzDdpra977xZIt79/rhk3Zlm048D0yJJ4mYcIaOR0eKpSw4x3NL0ekV8tMglPL0b2o/wfXXnTXTW1Y39JGyYe5ru+/Zj8x55C1o4iHkrA8sof3j4b0RozyiCrWkBCRw5hv4S5cxmTf04LUMNXSkKsUIFFpIz+ndWVRYevlejRcqmuGVl1VWbJr5/Z+XHVakAJXjXJoWbLI+vGPY405jv65oTBVX0IJOB6DTiGulo2Qk4XiUNcF11761VvasR77G8NhT2p955fmPf76vvjmvlSOKBr6T4GEkcIpXBAFHj4JE5lwdFOeueByHSSZw3b8EkWNMrWSBopD3T66ety0m7pkDf0o+FQFCAQIBAgECAQIBAicewgEJOzcW7NgxOcpAh+Uvn7rG/9+6WHLqIvYagoiPMnPFRZOXD6R8BWUDJE40Qf4GOP4TyAmonBERGkKhpeLll7X7deNu/umHrmDVjQGby3fX/Ds/Efe3lGxepgXSsFldlqN4uBS2jo/PWbuyZAp5Ioyd4R6Rw9Qv5QDLvkKliQy0KjhnUHyyC3RV4KYJ/mN8IwdaYj3g1PJvIzDkSjxx6snemm3Qzq/CD32fKt3+oGmWk/C6Jw+XSTbd06N9w6DFDORrxWgR6vBT44dfts3SlhJsjEctiZWDHv67b+/GVfLihw19smnNlWWeYQ0+qSUnBB9FqcLR0yi3YQRk2NwvRRkpkBjBqRECLqbi7Y53WfeNPGum5oyMTlPPyrBtAIEAgQCBAIEAgTOeQQCEnbOL2EwgfMFgW2JlcNfmPnoy+VOWVtXjYPpDlzuZ9RQeZpvT08HEQ1HXLyTzfvxjuaQMLrId5BEiOciN9mt4qox024dXDhyZmN4kiHFui3z/jJ/9dv3WEotpDAROSsdUEzBpv47ZwijRC5/IFJFZMy3cPdE/xMpQFSORyTM78sSr8sYXDT4OeNKVh+a2oCYESbpoGOhsIlqTc8nYWkCRuWb9Sj5PViEIZEwW9IFrkbSRZaX7V004Mr7xne94w+NOSPSOJfsf/vatxb964mUVpHtKMdpoztJEnaEJHIK55bgEUFkFlwphZAuIVlXiyw1F4qZBykRxdAeox+YMvhr9zVmo3++fC6CeQQIBAgECAQIBAicjwgEJOx8XNVgTuckAhV8b9s3P3j+bx/t+fBqS6+BGvZEuZ+v7KiQ0vblVL7GKFhJUA4R4fyJ+TaXhLksBcPJRijeNnFRvyn3Tux17YONgUfuhOvrFtz64rtPPFbHDklS2IYjWeAe2YZQoqnkh59mrJyF+OU7/tE8BP0h1iXMNMheJK14HUPCBGGjLB7p6MfpZyJjR4hZerC+yuaTMDoyOWE+ca0nrxkiSH8TCXOE9qbCMD3kyQXVN1x8z/XdouPnNoGB+traB3+4bOv7PzX1Wt2TjyOaNYuEecKm3WenvtGK/7KMZT0XhFWm9bVdaJ6GCC8AS0Srbrjsy7f1yRv1TlOZaufkByEYdIBAgECAQIBAgMAXAIGAhH0BFjmY4rmBAIUhLzmw8drZS9/8U7W9t6UUtWDzBFxRgUiKja8mCZfEM0DCRM+RZEO2dYTirdCnzcgnLxt9y7dbspZ1jSG221zT+433//VSac2WXq5WBUe2wT0qoVNE4KkgjaK8zoXss6O0EuaTDL8csL508UTvdTwSRgQsQ8L8MwsGc6T97GgS5pdBZo56gpPmPQJJBTqpjHUO+rXv/95VI++aVsC6N5pTdZB/XPTC7If+sS+27WpTqYOXLhs9ah7NJmFUlkm9YFSGKAmTDr9c0yfZkqTASroIKyEYPAxeK6NHu8Ezrh897Z4o61h2buzsYJQBAgECAQIBAgECAQLHIhCQsGBPBAicRQjs5ZtavL9s5h/W7Fhwm2vUwtFNYdrgMr9XSPSGwYEEG0z0RBExOzUlTOhSRKBSEqJOIYr1ziunXnrPXSV6jyacAUtD6zfN/v6C1e/+3AodlkVeGA+BM1UECguTP26DwxYdYYIskdKTVqUyZKiejJ14ARqqXplnHUXCjjVBTJOfevKVNsxg9cYhDbPNSGHUPR2oda0p46//6ei2vf/E2JCM28dxB7YtsWzE8+8+9GJcLi8xJcopIyJ1zHESJMzvl2tIwiicmQxPiGxrkMiUw9ERYbmQE6G9X7rs9m/2yh1PKljGmvIs2sHBUAIEAgQCBAIEAgQCBJqDQEDCmoNS8JwAgc8IAcrCWnV43sTZi194uCy+s72UReV+DmxJoahmP8iXk6GF3cCo43RImAue4shCAQwrr+rqi27+xsCCiS81Vea2Ob5syIvvPPJmDXa2trUUOLn6MRWQ071fgoS5ZC8hSu783jU/fJqOeiJGP3lHqVsityvdG5aBPdMz9om7SOJ09a6RGSOOzPtk3ouMSBqWaNLPEmFpyTDcCAqMwo+mXnrLnZ21UY0ak1CW0Pt7X73rnQ/+9VfXiOu2ZKZNRk6NhEmiDJMQ0tK9YGkVTPJJmGcDBsuCYkWBhO4N7T7msUlDp9yXw0oqP6MtGbxNgECAQIBAgECAQIDAp4BAQMI+BVCDUwYInA4CB/i2livWzv7+kk3zvmMZdbqlJOHI1MPkK0oU+CuLgGF6l1M35iBaIvq3HMDwQpCSEQzpPuGB4QOv/llT7oAVfFv2vJUz/rBy93t3k0GHy5lfZijJvjmGGGu6dFLwjKPzuXwFL+1k2MA/vqEJR0PF61gylilLdNNdYEf3gNWj37AEMSNOEYWlg4Kq9ZSOqJRnjuw94feDuw//v5asR6OlmPv5/vC7ix9/5KPSJbdIYQc2S6WNPk6FhPnxA4IopvvBBFkUpiXU9+cK2CRLh+EUoSDUYf3VF918d7fwgBWNhcRSIHIt9mbVoTIsQ1McSLaMrKpiFCeDcNnT+WQGrw0QCBAIEAgQCBA4cwgEJOzMYRmcKUDgjCBAF9EfJxYPeG3Oc38/7OwdYqpxOIoJlyzgObn+SZA933r9REdzjDkEhWPCuxCSzYCUjpLcPguvvfS2O9qzfh83NhlS7DbG/j3uhVmPPZ5Uqtu7SMJlJjzJt5UH863p4THReUUW7L4JRb2ZCBGPjArWkGRllLDjkbDM8zIkzEmTGCKm9H7+32nVK+2aSMHJ9dWBadS4BMXVEDbDyFeLl9xw+Ve/1UHrv6qpBdzJPxzw3PRHXj6c2NdFjrpwOBmnHAftZpUjEgmrHyuRbN+cg8oQXUHQNFkDEhp4XU7qirFf+t/xHfr/H2Nd68PZjhnwXr63xYGDWy/cvmf99QcO723telzNycqral/caXWXNr1f7RTpu5kx1mi5ZVMYBI+f2wiQmkv3IIRHTlDSem4vZjD6AIEAgXMagYCEndPLFwz+fEWA8236ol1rv/rO4ld+64YTei0vh54lw3GoDUgBXLJ9J4LDP6kyNQgNPhE+fk4YoEgMVsqErmrQvQjkVP7hi4dd893x7a+lksRGe46q+M7c+Rtm/mjJhgX/YaIyFMriSHkxodh5XAMTfU7k7UdjtEQJpe+KSAOkQOLT//rx55EhXxJEVJnIChN6nG+JT5xQlpBKpaDJOgw1hFTKgu6GYCQj1VeM/dJ/jWw79eGmyAmpYOv3vvvNWYveuF/L0YzK2CHoIbLIP3USxlwGVVdg2SnY3IVKuWUeaXUcMpegSwasKqBH25GzJ4247nvt9d4bT7SmlOH23tpZX1+28f2vmlKiDVdtuC6paTIUy3Dat+i8YOLoKf/dLWvw0qbW9nz9XH1R58U5Zwexo+Wh6j0jdh/Y1ddy3Bbw5FjbwjYruxf3eD+Xta/6omITzDtAIEAgQODzQuD0r4I+r5EH7xsgcJ4j8HFyVfv5y2Y8vG7Ph5NCBR5iTgUc7kAPheGaqk8+hMJ0TKlfM0mYUI24B1kWN8XBTRWSme317Tj85THDrvt2F9blUFMQb06t7T73w9cf3rJr6bhwCyDpViHlmIjmFCGZcIWxhK92mQCzxXiJHHlQ06reqX8F+X1efmkhmVsIM/oGJIzK+ug/VVUFAQuHo3BTLlJxF7mRXPCYhH4lg6ePHnj5VztEhhxoaq47+Yoebyx4+pGdBzeOZoYGSQEcngS5TH7iaJJgph1FPC7wdzm5IkJY8hPRljwOlRuQLTLkKCi/dPh1Px9Z0vmfjPW2jjdOUiaXlL591eKP5j14IL6ntaXG4Uo2JEUGcyRIKRWGne30LRn08iWjL/1eEet7sKn5Bo+fHwgQAdtQu3jI0lXvfXPnga0Xx6yaQjWsq8yTeZbU4mBJXoc5o4eO/3PnnEFrmsrHOz8QCWYRIBAgECBwdiBw6ldAZ8f4g1EECJy3CFBZ4of75kyZ/u/n/ugYVW1MpRoWT0LSdLiu75YowzotEsY9F5qmwPFceC6RsDAiKNx35Zjr/2NE4aS3mrooo9ywRQdnT1q47LWHDic+bqtkWTBhwmMGXI8KHX0SRgSM/vjW9ZmSRL+08lQVsXoS5lvRE6kUPVZCCXPTKpgjMsXIOp96wGRXB7MkKJ6BFuHiTVdeeM13euZPnNtUrxQpk3N2L7ln1tKXfs9DluF4DIqmwvbip0fCeJrAMRmQiZi54KReuRI0NwzEsrw+HS945rrRN38/m7UuP9Fm57w09NR7zzy4du+Hd/IcE0klBihk8kEZYwwRHgGvlhG2C/beNuWe23vkjp1/3n5wgokdhcDe1KZus5a+9qstpcsv42ErAoNC2jlci4HFwpCSut27w8A54y+c+IvOkYHLA/gCBAIEAgQCBD4bBAIS9tngHLxLgMApIUCZVHMXv/k/yzfPmhYulHRLiiPhWIAcFsRC8tJW9cecvTk9YVTyxtI9VSbn0LUoJMdAqpJjdK/xT18xeOL3cljvJl34SnlpaNPHC7797xXT742zw/lGroqaeBySGgK1n/j+f5mAZjKdyGSEnWESRoqbmLgnHAtF3haVI3qAxnR4JkOEZYMnJUTk3AOjB4+7b3znPv9qypKezriDr2g364PXn9hetvwiV7MhSWG/NFS2TouESRL880iawEUWfyQwi5wbI8hXO66dfOF1/9G/cNTCxjZQBd9e8tyMh17cHd88wgknkZASYIYE17XBLY5sOQu6FYZXoSeuGnPTf43qPPWPTTlgntKGDV501iEwa/2L356/8uVfWWpFVM9nSPAELM+DqkShpiKIsHykKtz4xRdM+uPE3rf8d1CqetYtYTCgAIEAgfMUgYCEnacLG0zr/EFgQ+Wi0a/OeuzxWq+si5LtIeYlYMuysHFXiducajmi78knVDBbkqGqUUiuAjfG0UorPjjxgsm3DW99zezmILmbr8v7cO17/710/fyvumpMkyOSn2/GPYoc9hUvOgQBc9J9VGlFrMnSveOP4HjliIKECfLF4Yn3d6CpYVhxB1lyDqRkCJKpxkf1G/P7oEuQKwAAIABJREFUwQOu/l0r1irenPnN3f3s1EUfzXqw2t5XGLdiiIRaCIXNE2WWp16OSGtI5iJ+GaIFVQZUpsGLK9CdfAzvddkvp/S/7ZdN9attiy8e+Pqcp56vYvt61KEatsLhKr7Vv+RyyBZH2ItCjWdhcNdxD113wX98O7jYbs7Kn9vP4XyD9sLimQ+t2/X+XV64FpYSR5ybkPQIJGbArnPQKrsNqkuT6NGm/9JpE792ZWOK67mNRjD6AIEAgQCBswuBgISdXesRjCZA4BMIHOabs5asm3//e8vf+a6UY8ELe+JCiqwNVc4gH88XogkcRf8RGVe4jjCtcBQdtkNuhkCWHIFX5aB3cZ8nb7jo5v/MZf2a1bS/I7W666I1s369euvCqTBScDULTBYpYb4RhzBko4PUMFKQyBrw1L+CPknCfCXMN+Pg4BIRQHo7Bs2LQEqqCLt5zpDuw58cM3jCLwpY933N2W47Yx+2emPJ8//YV7f1qqRUS+ld0OQwJInKOKkn7NSNOYigetyBojC4dhKKLENyNCAeQevsbmsuH3XzXb3zhq5uapxrKueMemPOk8/H1fKSJItBChtI2pYgYbqmwosnoFgqslGEzsVDHrt91L1fC0hYU6ie+4/v51sK/vXKg68dSm4ezXJSsOQU+ZhCNnJh2R4k7kK2ZajJKHJRtO/LX/rOiDasb+m5P/NgBgECAQIBAmc/Aqd+BXT2zy0YYYDAeYNAqbm476tzX3x+Z9WWPjKVFEkJX+VxZcjHITLNLUcEt8EkBbYURsIiMiAjzFSwagt5KIhPGHTl/X26D/tHPutc0xwwt5grenyw5u3/3npg5Q1JrxJQuW+e4UUACnSmf5NDolCQqDPl1A8/U8t/faYnzP+pnoSRe4YZd5BrtIRuRb1ebQb87bKhV/2uBeu6tznvfIgfii5d+/L9H2yZ842kWq17qgtFV+AkfEMTTxDKUyVhkshX82BD021wx4bMVHgJHTlSu7IL+1z8m35dJzzamrVONDXWVeUzL35j3lPPxnCoyNNdSHoUCcsC5x4MXYXkpoAUQxYvQOfWQ5+5beT37wpIWFOonvuP7zfX9fjnv/7wthc93Nk2EkgxE7WmB6bmiZsvTKkDs11BzuXarIp7pnxncKfQoN3n/syDGQQIBAgECJz9CAQk7Oxfo2CEAQLgvCwyb9vMb7675M0f89xUjq2nYHkpaJ4KRkzkqHK/BrlYgqVIomTRz3b2CQMlUdGhMgbbceEoBlwOGAYRjBTCrgbDDCGPleycMvHmu7rmjVjQnGUgJ7bN1pI+S9a8+/2tpSuvd+VkiPLNXGhkuu4TMqFUkVGH3xuWyfZqzvkbPiejhNHfvhqYPheVIoonUs+cBoWHwBNK7aAeI56ZNGDS/xSy3mXNeS/KU9pYs3DcS7OffDSplXVMsGp4MrkZqrDjHIZhwONkVliP99E+lazRuXmMsFDhuqYgYczjUHgYvM5Au9z+r1838fb/KGmmWremevbEN+c/82yVva8lM7jA2yVDElkGdy1oigtmMqipKHp3GPnctJH3EQk7rtNic7AJnnNuIHDAXNP70Rf+MJ1HqzuWp8qgZofgqhpsNwTLIzW6BmFNhVMlI9trVfGdG+8dUswG7jo3ZheMMkAgQCBA4NxGICBh5/b6BaP/AiFwiK/s8tr8l/6+8cDqS7QWQMqpA5nrhUIRpJIuIDHIModlJ6EqEmRJhUslhhkSJhwDyZ2Q4pN9i/jMIXK10tlaRGhkrkB1QvDqQujT+YIXx/W//Lsdo80jL3TOvXxTi83blty9cM3sb5pSbTtTTsFTPXgS+SMSJfS/ehTqq3IpO5iLvihSl6jXSrhp0EjJuULwKy7ys+ghOpgkgUsybC6JkjvqMxOh0NwR/WciG8sLw47LKMou2TSk5+gHenUZ+Vr7k8hD2sO3dX7xnUf+Vm7tnFCLAyqIKMkKuE0lgyGosgYuyhH9HjTKR6MSyHpQG4RqNyDJIrI6reJRjpemafBcC5yMQ5ALKZlVe8XYm+8Z1ebyV5trnrGiYvbEN+Y//WwdO9iSa46Pr6RAkTyxH5hnIyJHIMUiGNhp3L9uGPb/7ghI2Pn/5bE3tazbk68+Mr2WH+zmGiYQBkzuwpNU2LYJVXEA00HIy0bYKai486rvB0rY+b8tghkGCAQInCUIBCTsLFmIYBgBAk0hsJPvNPbvXTJ11tK3fp+Qq4ocNSVCfo1QBKblmzAoKodtJ4XbOeekxBg+2UrbthNhILIAroNDOeIm6Icok07lm2WQuqZ4IaheFDypVY8fPvlvfToO/GNJM9wSM/Og8ZbuWX7F2u3Lv/Xx/g2jXMOSlZCCuJ2EK0kIhXS4lgmJ3NkZE8HCtm3D9WwoiiLIiWvZYl7CYEJSBJ2kHjMiZJRCxiRNvAaeC12VodLJbAZYChQ7Euvevv+8vl0u+N2QwjbLT5SxdTzcq3hV7ozlz/5q094Vt8Wkw1GKB5BUwphIGFkaGlCZAkmoCQ6E2tewD41Q5PUkjMol6SCy65MwXz2jOVOOmcIVwJRhVUkYO/DS18cOuOJrrZqR05YZO5Gw1997+tkYDrb0dCpDJFCJk1K5qQeFedC5Aa/awICO45+/+cIfEAkj9hsc5zECB/nyTo/86x9vJuSqPraaBN0MsWGJ/DgqPeaeA2ZxaI4O3SqouPvG/xrcifUKyhHP4z0RTC1AIEDg7EEgIGFnz1oEIwkQaBKBQ3xDq5nLX35g1bZlNytZHlJuHKquwnZ8iYgpJBqRGuRbs1OPEZEwwbuE0uXCJT4grOP934syvobdWZyJHitGOWSuCtkxoLvZZRMvvOq3o0sGPsRYx1STA00/gUr6PrY291q7admd67YuvbbWPNTeyJZEkHBVvAJGVIPl+iV9RLwU3TfvIHJC9uqikFIoYDQ/CTJ8V0hy1qffk3ImMwWapEJyZDgxB6prmCX5nTa3K+r8Wv+ug55vmz3i4+YqSoIo8bLIe7v//dU5i976qalW59laElxzfZMRUu48DrgyUdgjzpSErSBhzFe5qMSSiKz/dwZnfw2EYpbpIyNSZnLocsQPZvby91838dZv98u5+I2mMtoarsHKijmXvvbeU88cRcJIRaSLbMmDTGYMrg5ea2Bot4ufufGC7915Mudv7noHzzu7ENjOPyx54tm/vu0Z8X6OnkKKJ+BKrnAtJfLvOhY0pkFzNCiJnIqv3PTjIR2DcsSzaxGD0QQIBAictwgEJOy8XdpgYucjApy/p6yvTV7y6pwXH4zzqo6uFgf51Lvpcj1SWJjkq2LUY0RkK0MCMioMyV9UrkaEgRG5YdRL1TA02VdtBE+wGQw5DDeuoE1ehy1jBky8b3Bxz5knQ8ToXIf54azKut39N2xfec/6bR9OqEsdbqVnyYq4My/ZaZLlW9pzqrGkN5ckqGniQ6oekRqWJmFiTlSG6AJuyoFnyYjK2bVF0dZbOxV3nd2rw8DXOhd03sSaYWrRcJ9wvtNYVLr2pvdXvPPzymRpe89wAM0VocdkJU/Ezy9/9ImrRApWmuA2NArx8SMlzD+7IMFHnldP1mSyp3cUqG4YcipsDusz9tFhfUf/poQNaJZzY2bsayrmXPrK/CeeqWOHWnpk8kGLKymQiRgSntyB6hlALIwh3cc9euPg75E74lEtbBS87Q9zo3wQLVQJFcyDw1WE5XwoFtDB/ryJG/Uc+jab2+WDyFJkVFMRK3OR48URdzqgg3u2KXw05r3Ya4SRUiUokomQLUFiDhyvGMXWp2mQQvl2/3zxgRm2HOvjqvRZM6HoKhKppLiBQbcHVMobTEmQU9mVX7v5v4Z3ZgO3nY/fncGcAgQCBAIEzjYEAhJ2tq1IMJ4AgSYQOMC3tVyyZva9iz9a8HU3HIs4ahySIsHz6LIOvusZkTChwvg28PXlcHRy3z3QJ1+Z63AlbTVY3ydGz3NsG2E1ROoS3ISEwnDJ6otGXv7jQS17LThZIkbvfIhviNbEaofs3LPpiu37Ng7eV7O7u4lUC487mpCNZOG8L1wHifhwN12OSA8Qy3GJVDChidEf5io8S88tK8ovWdOxqNuibm27vN4+mr3jZEoPM3Bzvk1fdnD7NTMXvvLLBDvcxZPj8GQXHpX1eeRkSCqZP0Yw30iDgXiLjxkNr+EhetPEGmRUyLQSJlG+mL8Oisugw4BiZqGFVrzy6gk3f71beOQKxo5nuXjijXFcEib7+WxEwhhc6CwCt05D/44jn7lt2L1HuSPu5/vDtZW7xhyuOdC7Ln64VU2yqlXCrFNkXXM8l0ucy7GscP6+1i3b7Ctq2XaVobba3BZtiZRRHeunelAYuGkealNTV96zLlHbIZaobVVbV1ecSNTlQIItkbDKVMvQInWaFq3Ly8rbWZjbanNeXt7mYji1QC/nZJTQ05kMEdldgKImtxdUWJXdDhza0i1l1xaaZk2JZaaiHCAnHYdBkwGprqigeK+mhMpyI4V7CrLabG2jR0sZK0mezhjETQHOpb3Yq9dhe+fn3nrsjbh3uLONpAgw18M6UklLKM+MgsEdgJsuoiy/8q7rvj+mCy7cJG4cHEPST3dMwesDBAIEAgQCBI5GICBhwY4IEDgHEdhtrur14oynnzjkfnxBHFVQDQYmQ5AwTuV65IwniJjwIzzioMjJkU+QMFKbMmYW9DsiYZkcL1G0KEQR0hjIgMKMmYjIuUAqhMKsNhsmjrr8J4W5A+Y2N+y4IcSkDBzEwTDHgZb7qvcOKDu0a8yefXt7VVZXtLMcs8iFG3Y8R3a443nc4QpTGIPsSpA8hSmOoYXqwuFwuaFGS7t06LWhIFq0MienYJ2nR/d0ZV3NU1lOutA/UL7x4tlL3vxtZXJPDxY24SCZLtIklZCwIXJLCh2ZcDiiZFKics80CRPvm+798jFPq4npPrAj+WWiZNFXH3WmwK72kC0X14zpf+mvL+1+4Z/ZKcxhZcXMSa/Pf/ppoYQZlijXhKwAbtrghJFqp4PHVAzuPuq5aYOuugvo5e3B+qzde3ZP2PrxxusOHtpzYdyszrO9uAbN1hRNQsJOil48TTZcSdJsJ4GkJhnlndp1WdezY593CvPazukcGrr/01DIaE0qa3b2LD245bo9+7eNrag+1CWWjOeZtqVJkgzdUGA7lLUtyLDHueyCy5Yqha2scHZVxMjZ3r5Nx9Wd2nae2y6n08rckzBlOZU9VMbLIodrDozcc3Dr+J37to44VLm7M6RE2OEJ3XVSIcez5IwiSuSHc+a5Kc8Oa7l2WG+RiIZb7mnbstOyrp27v9g6r2BNAbrHT4UI1fK9LXbW7u16qG7PwEOJXd1XfPTBlz01GXaYCdezoOs67JQNVdFge+RZSp8uTmqsM6zvxD/m6IWlsJhiSHpNm5b521Ql9+O2of5ln8YanwrOwWsCBAIEAgTOFwQCEna+rGQwjy8UAnTHfdbG5+758ON59x9M7mopGS5VnwkSRmV8rkNGFlQGR2TLg0RyjiBavkmHyOlKG7kLEpEmGem76IKkkdNfSFcQj8cRUsLgFoOBLDBbR45euG3imGvvK87tPbM5OVYnWhy/vGy7VgXJMK1Um6q6ytaVseqiZLIu3/K8CJhHPo9QmJRSFTWuq+HanJyc0tzc3F0qCqsKcMg8XaWDVKD9FWuvn7nw9Z9WOvu7eCEbXDJhOiZUSRXOjKK/Szg1pksJkbHBF5pBenq+8iR+k3FxTGMsSkHT1vmZEGnZkxCCAauKoXvrQfMmX3TDPafaj+OTsGefrmNlPgkjxU6SwTzf1IRUUubKgGVgaM8LZ47ve8U9+yoP9V720ZyvlNfsu6C2trqEpqeHdNG3RvEHFEptRAwkzQS4SwHVGmjMtmmDOLwqZVV3bjNgee9Ogx/v17r7vCi6lJ+sgne8fcE519dVLBm1dtuSL20vXTc+ZpaX2FJS10OqUG8slwiwJ3r0JBF1QHvcdwF1XQ6P+iO5DJUbkD3VyzYKyrqW9Hm3f6+hjxWFem7MZ/nNyrxr7heKiDKoWDJ405710zbvXDNpf82e9lBN1YjKIsKA8BT7QUr3EJLUm94gOgV+U2QehYm7YTgpxdOVcGmPzt0X9ene97mSvPaLWrIedc0dy86qTR027Fn+rY92rr58f83uduECJVQVP8SUMBPfD+RESuY1juWCiCyZ88iEI3dhJ1yoPC8heYblpTw5pOuersg1bVt2+HBwv9F/6Zc3YenZVurZXFyC5wUIBAgECJyNCAQk7GxclWBMAQLNQKCUb2nzxvzHHvm4etNkjyVE75JNEgiTxcWoohC5omDkhiSMyuc8QKKKJ2JsR5chUumaKJUTdvbUA+WIO+f0S8f0RFmi7KnCdbEg1GbjuH5X/nhYSfdZp1Ka2NQU0z1Kme8ouoylfp/TyXf+xFtSr9rmPQvvnL34ze/FpYoOPOog4daBKT7pkj0qeRQuIL6DI/1HEBPBUWS41G91hHTRxWw6EiCdW1ZviELkjRTIdNWn6BeTweIMhaF2NaP7Tf75mA4DHz4VFYzef23F3Ekvz3/yCAmjjDAaP/Ft6v1xPUcst+yG0LNj/9UlBV1fX7Fq+R2Hkts7ySEHMtntcy7Iu+gVJDWVeYKI6roqSkRdm8gXh66qvmGKqcJOhhGRWpQO7zP6qZF9x/29JetwoKl1bezxSr4j59+r3v/Buu0r7qq1DhYrUQ8Wi8HiSUEKhRELxQSQjycRS7jCiEb0vRHJEf16GQsXDXBU4TrJUoZbkNV2y+Aeo54f2HPYYy3R4eCZ2EvlfEubNVuXT1mxcendB2tKe0oR21CiHDZMmHZKjNePiBDKV32/I/zPJaMeQ5fKVqNQWBTM1eDZlN+nwJBDu/p3HfRqv27D/tLJGFza1HgP1G1ruWTj/B+t2PzBrQlW1TKrKIwasxKuRBEK1GtJ+5hMYBSxp2lMLlN8AxyFTHCInOkw9CzflZR4vOfCiTGnb5eRc8cPufS7nYyhW05nfYPXBggECAQIBAjUIxCQsGA3BAicowhQD9PCA2uvn/HBK7+RdLNNbaoSWkQXRCxpUtkRFRpllDBySSQCRheFdMGabjvhmXI6PzhZmHak/RqEkx8V5HFf4fHd/siW3f9ZdXRke3l7h/cb8+cBPUb942Tu2H/ekFPPTDm2tFq0Zt531m1bdkeNfbhQzVNQ59bA9EyougGPiCyXRRA0KQVk358JiKYiLsKJS0TC6GKasPVJ2BGaSORXIut9W1yM264jHOksh8iEAslWoCV19CoZ/MakkTd+r5j1POWQ3HWV8y57ad6TT9dKZQUwLNieLUhYZjyUD+f30WmQHI3LdrjGZVZuSquAZHhwqS/IlaCpIUEabItIOKBpiiA5pukbYoZUBZ7jwrU9GGoErmdAcaPgtVJ89KCLnhrV7+L/ORUiRutRaq3r9fa8V//zQM3OLyW8qjAMG7Zsw5McqIYm1NlkwhRES1d1OI4DTVZgE1EgK34FUFUZDpEy1xEqoMKIiMkwvGwgpUO2I/Ee7fu/O3TQyD/3yhq25FRL7EjB3RVf3n/J5rnfX7tp8UQW8lo6sglHtUBVkS6j3SLBslxoapgKaWGapoiOMEIKOHeQSNYiEtJhUn+WlAVFDsEySTWTYCgqPNOB5oUTJS07vT9+5BX39wx1+4ixwtjxPjs0njVl7102a9HLf0pK5V2r7XI4mgU5rPhmN0yGZ7vCKIYw8ywbiqzBIow0Itxx0YdJ60kEnjA1iGwTaeNROJVG9dSLp33/wtZTnjiVEsnP+/MevH+AQIBAgMDZiEBAws7GVQnGFCDQTAT28xUFs5fPun/DjpVfUyKcVSQqEM4Ki4twckmkiz1fCcuQML8nDFK6HNHzL7r9nDB6rkix8gkGIzMK3xpeEAzPt1oXtuvCVEKB4WiISPnx7h0HPtu/28iHu0YKN52qmtPMKZ/208gBcXPdoYEr1y364Y6y1ZfV2gc1pkvgIY64kwRXKPRaRippwpD1NAkjkuqLcNRzR8RUKFvk7Ciqy+qJav0A01iK/jqqEqWcM1kQHl0PgcckFKit948detndI4qvmdWU0tHYxAUJm/v007Xy/iMkTEmPyx9zujeMTP5JyXRUOIy675JIunGA1lI1IHENpukTuKysLFRXV4oyylAoJPaRFSdlTKceMdTVxaEYIXAik5aBKM9zR/QZ+6vLeo/49cnsASIQO5wVI9+d/eovymp2XkwkMo5aMM0TVbIJypIjVY9yrRxXkDCV1BzOYZkuFEUTap3tWYinYoIY67om7PlFFIMF6AgjJOXAScqinLZbh15zhva78Jf9ssYSETspcxEijNtjy3t+sGLm77YfXH1ZrXcI4WwDcTfpEzAyXkln2ElQhLoocxWyJMFxLBGSrKsM0awIamurIcv0mAZXKGUMJGDT4VmkPKuiBLhVVsdVE0Ze/oNe0XaLj6c6E4b/3vHKtBkLnn9IybXCUtRGkiURS9F+VsA9ytBToEKh0l64KctXO6HAYTZc1IBpEmxPhqwYItSdHjcTSbTKKkHdPlgTh0/545VdR//8ZNb2tD+swQkCBAIEAgTOYwQCEnYeL24wtfMfAepHWVM7c9CMOa+/kEBNp5hdBYQASQMsNyXKyAQByPR8HekJ83N6PR4S9XGSUMz88q7MBbuv+sjijn7myBAw357dEz1CimfAjimpvGi79SP6T3y0X8cL3ypEIfUH+ezjLDnoQrUcW4pXbl1x05qNS289VL2rn6PVSLLhQQoRcXWRclzIGl2IMqH+0IUrqQe+u2QGB/pFuseLUanXJ0mYoGvCHt4W6hepIGRwwl1S1lTI0OHFZIzpPeHB0QMu+3EL1rX2dGBafWj+5Ffef+rpGml/CyIxrmeKi20ifVRmmFlTsRdIEXMlOIzDVYjoUGmkBI8UOo/UMFWU+iUScURzQukAbcqV0oUbpGm6QvnTQwYSdp34vVMHGG4WIl5u6dUTpn5rSNGkt5urmGzni7ss/GDmbzbsWHc1N2yFrNShuvCIzBD5ovFKkhiHbVnQZRqjBO5wYYxCxCVhJoQxTSgSEjcgqBTQMPwgb03R4abICEUTcQuJWgu6EuHd2/Z5a/LgK+5tawzbejLYl/HNHRcsmfHDFZsW3e2E4gqVH0JlSFH5YUgW70+mLXRQH51n06dIgiL7cRE0JiKTXOKCjDueDdtxBMmUSclzLT/EW1aguCp4goElQ+jVbtCsS0dO/UZ7o9/Hx46X9vbysnduf33mEw86anVYynKQAmWCyZANA8mEJfYfqYMquY7SPmcKVM1Ayk0eIWGpFH136EI9c20LudEcuDEFblUoceXoG34+sWPXPzM2JAj5PpkNEzw3QCBAIEDgBAgEJCzYGgEC5zgCZCyxbM1bP128dsF/GvnQq1OHIYc4HPj27sKro4Hxhl92SNlR9JgmLsslUsHE/fuGig/ERfBRJIyeIxwX0+WL1EdkUZlaHmQnAi8Vru1U3GvBkH4jH+6a12dpDnJqmnsx/mktg0++yqMHKj4atnj1/O/tPLBlOIxUPldT4KoplADHU0nbE2YWfk6ZI0oJyZDCLzP0TU0y4db0OGfUP5dWmMTjZLzgH8KEI91TZxgGHNMS5X5EWENKBHYCyNOKNt140e23d865cPnpzv3EJIxICpFBn4hlWurEOLkET1JgW9QnpEGXdLhJD9zzoFLdnExlrTFEc8OwXRvxZBKqrkOWVDgkmpLPBxKCIAn7+7iEMPKQJbVcdOPkO+/ubAxoktwc5OuL3lv7zv3LVi2aZuQpIegualNVUAwZJpUUUlmf6JmSoFCfFKk5JBXZNizThCYZSFoWjFBIEJjaZJ3o21NDRGZMUZoYiUSEomNZDnKiLUR/YzJpI+RlJYa2H/3EJUOn/CSfdW6WWQf1rC3euPAHS9fO/q4p1UQQ5qLnKmknBanyg9NN0QVGxcBkEqJTkDiRYYeJ/i+JKUK9ox62lBWHQzc/VA4oHBY3j5SSkikMzVvzQlBtA26NHBvcdcwrY0dO/kFr1r284Z6hPb65bsmIue+/8s+9lVt6uloSWo6MOisFPRxCPGUKddehEkdFFZ9zImQ2GZnAhqJZUHUNqQSgaNEjpFdyGZipI1dqu/OKsdd944LCi2ee7l4NXh8gECAQIBAg4CMQkLBgJwQInAcIfJxa2/31Wc88WpHaO9qSa+CqCXgyWRlknCAaqDgN5usJVzm/xFB8IWRsL9K26vT4ESeMjMubsEVIP1+W4XkcdpJDkQxE1Bx4KQlZan5pp9ZdZw3oO/y5IiN7RUv0Sn6WylgmJymC2pb7q/b2X7N5zeQtu9dNsOS6rkx3YHsx0W9ETTpkpue5MhTZ8HuMHBOua0JRyXiDZk8Y+nlgGSWQcsKItJIKRiRVEhnC9f1gfqmiKxQlcvQjEkeGC4YXgewZkF09NXbQJb++pPPlfzxRn8/JbMvllfMnvzb/qWdqpf35pISRC56vhFEpmh9ZIMwZRGWpT6DpAluFDubp1CcGydZqI2pORcv8op2qLDnlVeXtk1ZNccKpyZZ0gOsOTDsBpvnlmolUXLQYUpmlDBVuSkJEySe3x/iV467931bt+/+uN+ttnWgetEYLD7x09/T3Xvi1pLOCmFkFPUeHy2xYVEMoSjhlwCXlToYi3B3J2NOFoRhV2ZHsqqys7B2yLKG8qrJTday6UAkpWVA5Um4KkurCck1BFjO5c1T657nks8IR8rJhJLIPXnPRLd8dUtTq1aYUHlKdlx+ee92rc57+i6tXFkmGBdOjvWQLr0xFV0S5IeXH+aWdEpgpwUl6ULhem5/dqqYgp3AnuOxUVyYKKmvLi0yprsjTTBgRCZaUQtysg6TLUI2Q6H/LxBjoCEG1QvDqwmWXj7/hN93bjXis8Jj+sMN8c9bajat+tH7r0i+Xln9cIIU9JBGHFKabCxySpsI2k34+GIcgpZpFtkPEAAAgAElEQVRmgARrRXHE/nRMA9xRRS8d/SxziUeUvAODe4/9x9i+l/8lj+VVn8y+DJ4bIBAgECAQIHBiBAISFuyOAIHzAAFyEpy37ZW73134/M/1Fm5xEtXwZEf0fFCKkl9K5xtviINUMF8OEURCFj9QEpdfdpcpX/Md/Xx1zC+781/ukw4IAkOHpvmlTsl4CoZsQGdhmDHPzo8W7u3QuvN7XTv0md4mp/26dnrW/k/DSTGzhHRhfxgbwwmrtqQiWT1m4+ZVkz/et21Y3K4qInUw4dTC4SnIGhPlhzZlYKkhMXY4ZL6RthEn+ipL8LgfrEw4ZkgqqYAZxdAnYUe7ImYwIzWM+vLIQEKVdMh0cWsakCwNJYUdFky95K7bW7Pee87E9lteOXvya/Of+yQJ4+R66Oe/uSKagIgjqaC26A1TUyEoTiTVtqDTsr7dBj7TvnXPFYaqV1lgtgYnZ++BPUPWbVt2084Dmy9x1JRKhCHp1gn1RDOovJJc94CU6SJi5CAZc5GtFqKl3nbl1RdPndZNHyGCf4937Ocb2r0w6+EX9lZvG2FEDdQkakQZomzISFl+71kymUJUz4JiacLlsDBadLhT624zOrXpMqNlTqutmhY5aCOuunByKqsPd127ce0NO/ZtucTksQJPtsCJiPGUUJpIqbLFeMmuXYPuGmC1OtrndV9w06Sv3FPEuu5obC0O8J0dXn//hb9s2L34SjW/Dq6UArgmDFwkVYamkBFHSqhz3OLwkgzZan5Vt479FvbqMPCZgvzCXQqyDlOUsmfaRtKJd1ixZenUjw9svKoitq8IqglbdURpIymUluUHKnPLRliS/MD0Gh1t8nuuvGzULT/okTfgvWPHezD2cdGOAx/dtHHXmmurzcPdeMgM7a8ozfZ0B1DI7dIWrqmMyWJfEg0nYVFyTVgxD0V5XSuYaVTqUtiSPTXeqqDVjh6d+77UKtpmYdvsnhVnYq8G5wgQCBAIEAgQ8BEISFiwEwIEzhMEdvGNxW/NffyhAzVbrk4p1aJMCtQzIxwR6UiXIdI/ueqTK2amSZgmTAwkj/722ZYgYoxyjhqW3fmZYiytDNE5RZmTY4GD7qj77nnk4x7So3BNLmzCI3JOeWF+u9Vd2nSb07G427IW0aKdHnKqCxCzgQ7W6ZQscs61cpTrdanD+VWJ/T33lO2+eMf+zWPKqku7uSyR40gpQbyY7IkLeyrRpAtQsue2oYkxy5Q9ZcXIhx0aKVdk809Ui8rh0qqgsBRvGH59xKrDL5fL9IzVkzBXkDBSXkiRkm0NihlCnl5QM2LgmP83of20p07WFOJEW9UnYc88UyOX5TM9o4QpYMKQhRwwiYRlogeInDtQbA15duvqwT1HPTqo87A/Hy+Ql8j9Hqxvt/Kj9769fMPiOxOsMluNUNkcrbcNQ5GRSCSgR6IwLcoSi8KqY4jygsSkUdf+cFzbKQ8ez3CEVKV5H7/6rXc+ePJX4RZepCZRi0huFHXJmCiDdDxXEHtS67ilwKuTURgp2XpB7zF/uaDb6Gfz0Kn22PMSAT+IdaENOz+6c9WGD75/oHpXey2LwZVN2Mwv83MpdkBVhekMTwJRNxssZtRNHnfrd8a1u/KJE+FL5X4Ldr3zldnLXv+1G63Kr3Z3QtI5FC8qjFZEjyRtATJdkSKwaxkKwm33DRt48SMdi3s/10Xvs+tYJdgPLV/Xcv2eNV9as3HJDw7F9pUg5MHktt+bqFMvHJUNmtCYDbvORI5aBLtWty4Zef0DE7rc8tPjfW7o83AYG/Orzco++2t3lMxcNP1PphTLFmHNpM7SbRlSw8gkRpSiUpmsB80Ju1eOueWebK311hwj34o4RlkiZFS0RVv6fJ5V/Z3nyVd2MI0AgQCBLzgCAQn7gm+AYPrnDwJ0wbyiYvrlL7/7+N94NNXWVihbyff0q/+g+9bjniBmZHOYLvviPgkT5Crd+0QOaZneJ98xkRSwdO9TmoRRj5FHWUdC9fHL3HzXNd/GXKbOGHJcc3W/zMkLmxE952CLvKJdBTmFH3Vt3W1tOBTdmhMOH5S1vEqGaLwlamygi3Oci9Y009mrVsPR46iNxuO1LSpqqobsO7Bv9L7yvf0qYofbJry6XFcyVU+xxAW4ixQURaZ2L5gpyj+icjoVHiebeUOYICiMDB+ouo6IlgvuSbAoS4mswoV65CMpspNE2Wa9Q6Jfhlgf0uwHMxNeHA63oakGYCmAqZJxBXq26fP85Rded28B677vTO2+NAl7tlY6kIeQCc+xITENkqeDkUNgWvVkkusHOXscaiqcGt3zir8P6zD+f1tnH91jdOy4yvjawn+vXvCL5Rv+fZetxXUlhyNFpXOeC91QYboePMJVMsAcA1IyhN6tB74yefQN3yhmXQ8fe74dfEO7d+a+/Ehp9epLU6wSqk6E2BUmFWSMQn15RHgVHgJPyCg02h8c2Wf8z8Z2HPssYyXpfIXjo1fGyyKbds2/9f1ls36ZlKpaeloKJkvCo/2pyiIiQJQjymGR1KB7uSjJ6/XW9Rd//eZWrFX8eGct49sL31jw2sPbD6+7xjaqkMA+6IYMOAZAPWuMSnTJeVGF4oQRcvMrL+x/yQP9eox/pDVrfVT/1rHnr+a781bv/eC691fM+VmdW9HOVV2kPAeaocC04jDCDFaiGiFNh2oZYGYEeVqnFV+5+q5L8tjAE5YH7uQ7DQf7Oj/+4l/nJpTKVqRiUs9ayrLg0GeZURmpDKJjsBzoTnbsK1N/OLALG7n9TO3L4DwBAgECAQIBAidGICBhwe4IEDiPEKjhpfkzPnzldx/uWHgrDyc0qDY8Ts0enlB4qMeJLnShKz55EhlYpG5lvgoakomMetYgH/mY59VD5xtU1DeV+f+k630iZRKnwF8iZJLoURKMziG79LBlKJGaaCRcmhPN3Z+dlbM/Go5WGEqoVtHUckWSPepk8jzXSFlmVspKRGvqagoTyVQL064rKKsqbeMxu9Dz3CiVm4n+HyJAgjSS1br/s3/4dDTT/yb64dLkSdj4c9FBdxRt9bvffAJKR+a1mXmTHTnNUyZTDmFT72Mm+sFEDxYT/WYaokBcR0utzcdTJtz4rV7ZF5IlfWZgp70DhTHHvx97tkbalweDetqIFGsiANixKdDYRCSkIlFXh9z/396ZgFlVXWl77TPeoeZinqGgmAQRVFQQJ0RBURFEnOOQaGJiOkP/+dtOJ3bH7vSfTndMommNs6BRFBUHlEFFQFFURJBJ0GIeqoAabt3hjPt/1r5VWhqRqiLI9eY7eXiKUPfcs/e7TpXnu2utb0VKyG80qG/5kNcuGX/tTR3F4EMaaPACd2TWVz69cOZ92xo+OjUTPUB6PCTpNbV8Kcv+bKGmHhpkBjGKuUVbrp/yo6l9rONXttwgZ8He2vfCpOdfe/LBtFZXHpoOCc1TfVuqi5GB8gcAga4cFykRpdOGTfzTqSMm/kux6HmgNbD2y01F899+9q73Ni27kgpd8rSM6pFU0eW3D9kRNCtAhGtTTHTZfs4pl1wztuu5f1Xix+esSb1+ymPPPfhkUmvopkUzFFKDYip5Xp4VUZlgXdikp2OkZ4poYNeRcyafNe3mzqLf3tasl39ul3382o9eWvbkT+xSEc34bP+vkev7iosv0kqE+cmA4lRCBdS1fsLJU6aP6TZ5wcHenzNtO5xV/e955nfzk1ZN38BKZX8mefB2i/uZ71v+Y2aKGr83/d+P6SeGbG3NmvEaEAABEACBwyMAEXZ4/HA2COQcgQ8OLD517tIn/7jf2XmsjCRJaC5P4s2aSnAvCD/Usd+ByjTon/Z3HYmNcNaFRRj/aT6a3fooZFFmf5pdU/1YYVPpZKhmN8mmbJgmspOiuXVNy46QZmHkk27xg7uXze4oIwfOSmSNKFhkHsmDM12Sy8VYhPFemkWYKt9k90Qu/NKIAov0oJAiQSmN6jP2j6cdP+bWTmLolw7dbe96WYTNef3+WQ369lI1rJkNHjWbQj9bbhmGSbJYkGZcJZBKtB4NY0dM+ufTKy69u7UlkZxpnbf6L/+45MOXbs3Eawo8I8Gef2rfLMCy8jPrxGkEFtluUWb6GdddN7LjxL+03FetrCpZ+tH8f3v1vZd/EEYCkoZHunCz5hkcR/VWPgkWYV4xles9tp03+vLvDO166oLWzlLjta6smTf+hTefeiwR7C91zSQFPNON73keXMyzu5TpTEDS08n0y1OnHXfef11QefXtX+TBonHR1lk/WvDOC//pGhndoyTZJg82ZjEmid0v05kMicCiOHUikSionnrWlVce3+2s14VoSjW3IrBr69/sP3fpo4/vz2wfJU2XXJkm3bSIi0e5nJJHHfhJR8XPzBTS6CGn33HmiBn/8kWDjpaX2pL+oO+9T9/xaipS3SewGj/9jKT5QwXOWfOPFvc8mumShh9Pv+2Y7mLY9lYsFy8BARAAARA4TAIQYYcJEKeDQK4R4HKs11c9des7G5b9xDcbbGGze5urMmAsUtga22s22Ghy/Pu699AsmkzDUKVxbJbAfWTKhZD7rngwtBBKQLDk4ofl5od0znhlB07zwyO/PGvB3lLstfy3I7a3Jht6JW5Du8kdkbNfXMbJQ5y5n8cgCrLZkS7x3munnHXZ9ZWx49/+W6+pWYQltJ2lMuoo63FN2OR7huqDC8IkicCjCA8FbtCposOIVVMnXHFFVzFyXVvWsjnxwTEzX/rf2Y32jsGNtI8svWkWGQuakLOOUmU72YTEdovo7BGTbx8/8JrbWpaWcmnfc8tmPf7h9vfO4B4oqfuki2wmTB2qnJVFGGdnCmlYzxNemnryld8qFP2r27LWGrmh27NvPX7nhu3vT/FtnpnFvYE+2YZNvkNk8DgCFsquRppTQMN6n/zQ2WMu+3Fv0bu25XWkXGs9sPzpe9fuWHm1jIaUcuooHtVVhjkIQ9JNTZW0hq5OsaATdY31X3TVpO9e3VH02d2W9bLYe/yD//6vdzcs+5FR4FPSayAyLbVGT82bY5OOgMwwSkFCo8oux82fdtYNN3YT/Q6audqRWVX5v3N+P7+1Iuwn0381vBsyYW0JG14LAiAAAu0mABHWbnQ4EQRyl8AaZ/nglxc9NXN3omoURdMUaGxMkFaW7GykwWYC3Bel/nK0DtVPxp7j6uldrUL11XCZmHI5yLo4Nn98z/OfVKkfizLu2+JeLDYeaZHw+mLGTYnOI3Ww4FAX57JGu8m4P2tmkrWwJ9JCkyxZQqKxKHPqyAn/fP6gK+/4W5YhNm8tK8IefDSh7SyRTeWIpDEbW5VkSsqo0sGySCk59TqNGnDGby4dOf22Q/VXfREdC/zH5985a2t69UWOtp90/bMy1mwxZ1aEaZ5BhhunE3qPe2DGyed+V7Swqq+W6wY88OJdC2oy2/vwmAAWYRpxJozfIWunzplO4RtkpKPhOSdc9N0JFTfc1x5uL2+ZecOiFXPv9SON5IuEMueIWlHyMlmbfY3HOHg66U6MusX7vzl1/Heu6xcZtLHlvnnPM1/6f/N3JT4eI2M+ZYIU2Ub2gwC+F1mAsdANHZ1kIu5OOH7y7ecNHP9f7XEBXbr7yUvmLZ3zUGA1xBwtzZP+FI+Ae+V0Lt9l8WirmWxdCvrvmHb6t6dVxo49qKjf6qwdcu9Tv309Ganu0IpMWOIn0381DCLsSP3CwPuCAAiAwOcJQIThjgCBPCQg5SZ7wYZ3f7B01cu3N2r77DCaIVdLk9CzAsfLSJUR4DlW2SKyI3M0lwYqPdVUMvipUGIR0/QwyyYMn/aKtTASCdgDn/uuuJxR47LG7BDk7Ps1D1E+Or/GVCkXs+Ohx2QrJ8VmR0kWYTpn8xyLorKMusSGLLlk4lVX9BADdhwJ0p+KMLG7hDNh3BPGTiQGcb+ST7rpU+D5VGQUk5YudMcfP/3GM/pOfaita+Eyv8dX/vl3yze/8P0wWt8kkLNClEsSOUzcJ8UizMzEaFDZcXO+PeGKK4QY4DRfqyr17uh7n/v9AjeSKHJFhqTmkSY5E8Y8WYRxPLnfTKd4WJa8ZPw1U0cVnz+/rWvl169KLz7jiRfvf8kx99muxuMJXDXDy3eMbOZU5ylvOplujKJhp+1XTbj50gFFI5e3vNa2zKaKWQt/N3dvpmpoYHmkWSH5rpO1j+dh5UFAEcvOmq8kCxsun3jDLaNKzp3VHkfBDanlY55e+NDj1U5VDz0uKB06pOm6GqDNPYuqnFLjeV9ExXq3zPSTb7hwROfTDtoXttVZO/Tep367NBmpLm0WYdmesGyvo84Z5M/KESHC2nOT4RwQAAEQaCeBo/P00s7F4jQQAIHWE9iT3tB3zpJZd1fVbpyQsesoiLjZoa0kyE8R2WzVLbPZpaNxcOkaf8KvxFWTgQe7tfHBRW6cVeFhvSrfEJIqSOSyRCXAOEHG5Yo8A+tTs5C/3kWz8DsS++NfnvwQm50aZrFJHgXKIdJn8281XFhLRSkWlO+bNObyn4/pNYmzOUfE6luJsMUPP5rQdpVwTxhbvLMI06VNfuCSHdHIz7hkeTGKic71U8688bKRZWNfag+X+Zuf+scXVzz8GypoVL1vfDCDrFBuqhRlO/5MjPoVDXnh+5OmXtxyEPIH+18799EF9zwdxFJRT6SJXTg12WSdzlYZOoubQFnTd4z03H7FxGsvrhBj323PWj+RHwx85Jm7Xk+InZ1dvY5IZz95naRnqbssIFf1iNlhnIxUYcOMM2+cPqLzmZ8TfJvrVo96fMlds2v8qn5s8GHGTMqk0srohu89zraGQUC6Z1OJ0XPHlNNmfOvYkgmvtGe9++WmHrMW3P3Cx/s+PNYsIUr62eHK2QrcrAMpf5bhB4JspySccvKNV4zrNfHxg12LM2F/nsOZsD0deIB783/wPxNhTQY62Z4wiLD2BA3ngAAIgEA7CUCEtRMcTgOBXCcgpbTf2PLcjGUfLvifXf6WMj+aopC49EsQZTQydUuZWhw9EZYlmHUgzEovftBUf2PXQs54tfj6qcthU2aMZ3CxA8UXSxCb49Ly349ErJQIU/pVI5+zixq7IrIckWr4telHKJIppMquxz1+3qmX/rBLG3ua2rLm9w8smDRn0aOPJsSeErao94OANM0gyYYhmiRDDynwArK8OBWJHnunTfju9CGFI5e05RrNr128bd53575x75/8WD1P+c2apLQUYexA6VoqE9Y7PuiFW86/eXrLssc3djw/7bnlj810rIZIyJkw4ZOQbD/Bd6ahXB2VYYZrUPeiinWXnXX9Jb3b2LvWvNbdclPH++beubzW21ThWXWk23zLcAYoRuzbwiKM774oxYka48lpp33ripO6XzC3JZfV+984+anFf57daOztkRZJNeg79Dg7m3XDVHPyPI8MP0qdrYqNF46b/q0hxWe81R62B+THxY++dM/LVfVrTwrjDmWkmy2bVD1+LHR5/AHLfElaqpCmjLr++jMrLn7gYNfa4qwZfO+c/2ER1jGwktnRCmpmXHMm7HMirOGnF9x+bNfo4C3tWTvOAQEQAAEQaBsBiLC28cKrQeAbRaBRVnV57PWZv9t4YNWMjFlPLmXUQ53h6mSbEfICfgg+cpmwZsOMg0LTDQqVsUY2G6a+Kkv7z5/BVu/Z47OeMCWClDXHF17bZNJxpAPF1zcCLsMj8rWQPF1mRZjUyPBtlXUqCjpWzTj3musGFYxlp7y/XuzfaJGfE2ERr8mEJSvCDJMzNRnWSxQVZVQsulddeOaNFw4uGL6mPZd/rerFG19858G73Ugt8dwxjghXP2bLRfkdm0SYE6Fe0UEvXzf5+quKxGdzyF755MkbXlk19+4EVevCCFQ5oghZzPGZVlaE8T3hGdSjqGLNRWddM32gOH5De9bKouae5+5asTezrjKINJAREeR4PpmiIFuyqQfEasymCFFD1J0y5prvje0z9f6W13pv15JzZi++c1ZQ2NAhLVLkSo8iOpfySnWfsgunIQwyQzaP7/bhZZOuv7bCGt2uzF2NrCmc+fR/vFwdfnJKykyQMHlgOJuHMJuQx5wpd1NpaBQ2FtCFI675v2f3n/6bg91bLMLuefq3i9N2dSeIsPbcQTgHBEAABI4cAYiwI8cW7wwCR52AlFL7oGHR2bNfeeTeBlHTMzQyqg+sKFpMyUSjcnY7kiLsUACarbL5dVnhdSgjjc9mdn12zqGucmS+z2LLFialMknSolIZO7pqFECEdCdOZqbAHzPkjN8fP/zcn/cVfTNHZhXZd20SYY8lxJ5iaiHCwkBTIkzwKOSMR4VmJ4r5nT659JwfXjIgPuRz87tau75Fm5+7cd67D90dFtSrjJUf8iwrQZqhKxGmxIlrkeVGqXd88IuXnvejS1sOQX59yzPXv7jiiT+njQOaMLymnjA2NOHS0qYh2jzDLrCod+mgD6adccWMvu0UYWyHf9czd6yokx8PSGv7yLCa8r5+RJU98iw5GbDjoEV6MuZePO6674/pefG9nxNhe5ec89Rrf5rpxes6pihJvgiUCAsC7tPKvpLnjrEI62T1+uCiM676zsDYKStay7Pl61g0znr+nhe2JdeO9WIZ4hY5NqTRPI30poHoLMJCXVCQiNOFw6/653MGXf7rQ4mwTKRGibDmymNfZS4lmUJTvYIkTLIypQ3fv+D2Y/siE9ae0OEcEAABEGgzAYiwNiPDCSDwzSJQLdcWvL5h0S/f+GDRP1A8MHzJM40EmaauMiZHU4S1HO6sqH5Ff1f2afeLKbKj9ytMDbkNuBxNkDQdSrppMi2bRBBnlzzqWTro7cljp940tODEVUf6jnm/ZuF5c16bxeWIxS3LETVhqb47TZX8CRIpi7oWDtw+8ZSrrxxeemK7yhEXbp7zg3nvPvQHP5ogzRDkB9zXZ6reKDUInAf/hjY7G1K/wkHP3zxp2tSWPWHv7X3p4tlLHvmLF2mwfJn6VIRlyxEtCqWeHSQeWNQ13mf99HOumTZAnNQmK/1m3ixq7nz2jncbwqr+jnGANIPzdkQiiGaHSwuP2BTGZhfJVEFq2pnXXzG68+RnW8Zrzd43T3ly2T2zE/qe7lyOaNjap+WIBouYICCDHUeTGnUvGLR28umXXjc0Nq5dIoxF42Pz73n+kwOrx3I5YqCrwkxV9qpzpphY8PIca8HlkzTl+BtuGt9/6j0Hu7+ayhEXp6J7v1SE8bDq0OehclkRhnLEI/2TivcHARAAgc8IHL0nGEQBBEDgayPwkfvGiDkLH72vunHHKJ7NlHESFI3aOSHC2lukp/TaoUTbESTMIiz0JdkRkwJKUiqTonishPyURRGvS93pIyf+26T+M/5wpMw4Wm6NRdgzSoTtKg6jnxlzsDsii7BQOhQ1bfITgkqtXgcmjr36mtEdz3ihrXiklOK5DbN+uXjN47/0IwkSnJHh/jOD56QRub5DujAoImIkkjZVlh739HfOnjSjpQhbV7fs7IdeuvMZP5qIB7pDoXBJa+oJ40wYiyNVxupbVGp02TXj3BumDrHGtqvHaptcU/HgM39a1iC3dPHNJEnNVb1nmuoJ46yqq8Sj6UXJTBc1XHnOzdOGlZ++sCWXTXUfjHxiyZ+erHa39PP0FFlxi5y0Q5YyEGmaT8e3YlqnMqv3jgtOu/zakSXjF7WVLb9+p1zT8+n5Dz3/Se26Y0XcI09wHkySyWsWgjyPy4kNNVxZTxcGU0+56eqxPc997BAi7LVUdG9nNuZQrh7ZUdgqE9ZShNlOWeInk381HD1h7YkczgEBEACBthOACGs7M5wBAt84AmxZP3/T8msXrXjx1xRxS6TlkBOyZT1v5cj1hB0K1Ff/Asp2CX3VccSarA618Kbva2SS5FK/MKXmrukyTmGjTZVdT5x3zmlTbuovhm1v5Vsd1suyIuyRRxNid3HIxhxscKLpJAJT9QC6foJs0yKbYpSuEekLT7/ulrP6TL2vrReVUpoPLvvNPR/sefXaMJokIXQlwnTNUqPePM8hQ49QRESJEhaN6DHm/ivH/vi7QjQNTiOiJov6l9JmXWlosQjLfCbCVJdf1h1RC2yKy/KGqadddsnx5ZMPasP+VXtYWffa+GdeeeSFhNxty0iaQumqOXRcMsoiTBpsVKOR4UQpGnTaddXkW2YMjI5a2vI9t2Y+6vfooj/M3ZuuOia0fRJmQEGTRb3neWTZbBnvUlQvZIv6xEXjZtw0ttvUgwqjr1rvutSyk55d8MgT+9ytvbSYpEzoZkUYjxvQhbqOadoU+DrF/A6ZGeNumn5sx1OfP9h7Ns0JezUVrenMFvVqMLoy9mgWYUShz6WgJkGEtfWnAa8HARAAgcMjABF2ePxwNgh8YwjslWsqnpr/+D0f16w/y+6gUb2zr2nY7lEUYex+eLCj2R3xKwgf1VJKNgbRdfJ8l2TgU9wqJKdBULHdveHsEy7+6ak9zr+/PQOG23NDfSrCtJ1ZEabmhH1+WDOFPhVaRdS4N5AnDT33P68Yde5tLYcot+a6O+T68plz75q7y18/hiJp5cDIBhfsasgijPsNDWGRxcOrG6N0+tCJ/z55+PW3CdHkZU9Ee+VH/R6ed+eCvektFYHlUiDSyiw+K6hZhGWd+0Rgk5Up9M8aed5PJlZe94fWrO+Lr3n5k5k3vPbei/emtf0kbFetj9csQlOJMM3kQeEaiXSUusYHrLhq0s3XdhUDPlf6WC2rC2a+9JuXdzZuGiNjIaX9JNlGqPrfHM8lm0WY55GtFVBQH3VOHXb2/5s67ObbWwrP1q59efUz05979fF7fbO+SNo+OTyHrGlIuW2YFPg+WcKmIKVTeaTv3unjb7ywFcOaX0tFuScsK8L4YNpqThoPPuf4aRaXIyZ+Ovn2Y7tEB1W1dr14HQiAAAiAQPsJQIS1nx3OBIFvFAEppf7G1hcvfHn5U/elorWlnt7YlAXLTRHGAotL/mIvSLwAACAASURBVL7qONoijJfHJWm6FGT4EdLSMTqm4qTZZ5849afdRf+vJQvGfFZXvzrpqcX3P5rQdpZ8JsJs0kRMDWs2IyE5mSRZ0qACUUZF1GPp5Rfc9K3eYvgnrb2JuRRxdc0r5zz56sP3NUZ2dvftFBlkE4+ayz7bc49VSCLUSfcNinqlzsVjrrjphO6TH2kpRhvkjvLZbz7w8Jpt754nYh4FGmfCAtWbKASX2nHvU0jCN0hPxWhot9FPXn/alVeLNpqb7JF74s8vv/f3G3e8f73DToOGS1KGZLB1v5e17g+InRl1Epk4De11yqMXn3Lj98pFeUNLJlJWRR588y+PrN256pIw6lEyU0uxCJdM+mrN/EeJ8TSR7ZZT3/Kh82eM//a1HUWf3a1ly6+T8l3zmfVv/urNVa/8TLCQ1rgnTFdMudfO1NkaMSRTxihIaDSwx6hXp5527eWdRb+9B7sO94Td99T/zE9Fa3oeTIRlm+RUT1jjjy/8xQnd7OHtcqJsy17xWhAAARAAgUPV+oAQCIBAXhFgo4IX33nm9+9sXXJ1EEkLjXjY7tETYV8Fl4c5a0ex5+tQgef1STUXTFeZnzChU6+SgR+PGznplhM6TZh3qPP/lt9vEmGzEtr2UtUTxiOhNZuEiGWNIyyffC9Dmh9SkVlGemOxO+aYs381auj5d3QSnViNH/LYvm9V9yXrFv/uw11vXZIp2Eu+kSLydTI0m7zsBUkzNQpcqSz6O1jdqmece+NFA8zRy1u++S65K/bOxhf+afH7L/0sjDpmqKeVCMtaDWaHDrABhQgMzoRRmdajasq4q64c3PmUNw+5yKYXSCmNldWLzpr31pwHat2d3QIrQ4FwVHErz8cLHMnVmuRzeWJgkhWUeeNGnP+vkwdc8x9fdBrkEsyFWx/5waJ3Xv4P13RsJ2gk2/KVCOM1s5TTmkRYJCinYtFt/5mjzr95TJ+JT7Y2Eyrl9ujaui2V89+e8/DO+s3H6pZPnuA1ayRMg9JBUvWgCV+SFXC/XYzGHjvh1xcdc+MvWmYZv8hnR2ZV5d1zfj8vFa2paIUIS33/wl8e38cetr61nPE6EAABEACB9hNAJqz97HAmCHwjCaxOvD7usZfvvz+j1/Zny3o1+rXVvwn+xoLtIK4cX7zKQfNhrV/4X8dKcL5F+Ytnh0Kr469nlGX/uem1Ld6FBRhxT50rKBoWU9gQdcYMOfPuM0aO/0W5GPC5bMqRvlFWVy+YNGfxQ7Ma9G2lMuKTx5OIRYTCwCbD4FlsKVXyZ2qCMg0+ldg9KB502HT1Bd+/qoc55J1DiQXOKn300Ru3zF/+7I8zkdoOQUE9eVqGQp43Z8XI8XnoN5FlWeSnJUWCAupVUrlk+lnXX9NVfH74L2fU3q55eeK8ZXPub6RdyjCDHQqVCNN01Q/Gf8jXKCaKieojwejK8XdNGT3lViG6JFvDkssmF6+Y98fVn7x1mWc1Epf2+aGjSvBYhDlpn2xTJyF5cHOEYtRtx/hTpl0+ttO5n+sHa77WB/WvnfTkwr/MTor6ntJKUkgNJDRPlWIaBrtCBmRrcQoSFhWIztSjeNAzUydc8f2OoteuQ62XM9TVVNXh3c2v/wPz1eOuFegeSV2SH4ZkRUxKuQmVCTMCXQ3ctjKlmUmnzpg6tufkrxT7H2dWVT445/fzMtHdFb6ZJiF5rptGId/vPNeNQpXJ1SSXfhanvzfln87sa41qlwnKofaJ74MACIAACHyeQKsfvQAOBEAgPwjUyA2F729Y+dMFy5/7sV7mFLh6ilzfU5/m+4FLpm2rEjYuseJBtk0aRH1tLv/jEik++Ln5cH6JHK6xxmFdm53nNJ8+y7hxbaHR5IKffecg8JWI4dK1sKmPhnuJAn5w1Xn/IUVEnNyaKHW0+75/xXnf/k5FfFi7BvUezt21unrexKcXPzSrXuwsozivT6NAsgGFSTIIyTCJPDedFUkBkaWVkJaJUb+ygYvGDjv934/p0P9tIXqmv7gGFky76aPydVtXXvrOmtdv3du4rZsR98g3kpTxPTKtQko7HhmmIBl4VGDHyW0gsrzS4PSRE38zqvLc27uJbqkvvu8uuavDcwsffmhT7ZLzPKuOSNeIm6wCGZIdsymZZCMRk4Srk+nHKR522H368RP/z+l9j5t9qD627XJ7dNPWN65dsnLhrxrlvjJHSxFxKWJT6SjrPZ10MngIVzokKyygnmXDn7r07Cuu6ygGJb4sDrvkxg7zlrxw90d7V09t1HdTYB8g3Q5J8y2l4fmzBFU66xpkBkUUlx0PjDv+nJ8P73fWrI6i45e+Z/N1GuSuDiu2vnbh0pXzb09qdV0Cy6OElyErGqG0m6SIpZMuXPKTGSqxyyizT1LPsqHvXDnphsmdxbCDliLy+7MIe2TuH55v1LdWikiaHM8hKxKnZCKkaEEheZKzkESaY1EsKHGnjrt82qguFx3U6ONw7lGcCwIgAAIgABGGewAE/u4JbKh5Z+DCt555qKpxzUlagUdp16FIzCYvcMkLA4pGo5RMcgmU1STCsmYJSoQJ/jQ9m0HSeFbWYWSjjrYIC4VPkp9CJWdF+Cld2UWqffF+2b7c42HE0s8aGeia+srZBE31LflkhYVkJDvVnzt62r+e0W/AXYcSCUfi5lt7YP7EOa8+OKte7ioLoh4FpFPILoChRTL0SeeySS2kUEpyXC79i1FEKyD/QBAO6DbwnaEVI+ZU9Bj0XKndYa9DUa8zdXZqqCZS61VVrNm88ppVHy3/Vl2mulSP8qBgh4LAIakJ0swCSjsZKohb5LsZooxOpltA3QsGrj3/1Gk3DC4a8/aXDRLm7M+STfNumPv2Xf9jdXBjqXSGDNsizTSovrGBItEmh8RQUESLUXp/QN1L+6868Zjxf6zsPXxudxpU92XW/3Vya+n7W9+4btn7r9+yp2FbL6tIkHIZ9JLkBg5ZZoR0LsL1JRmBQUWygLwG88D5Z1z1/bE9Jz9+sKHHPPT8nd2vXP7kopl/sDq5pXszG8mME0lXZ5cLMkydTM2g0CUyZZTceo3Koz13jhs14c4enQfOGhA7dseXCdwaWtd5w65157+37vVfbKnZ3FPGfPJ0n9Js+2+bJKVHOnlk8k9c2qdirSOFjVF3/MmX3H52hRrSzPXEBz22yA/6zpzzx6cTYusIz6gn0gPSzSi5aYtIt8ijDJkG293rZDo2jR469p4zhp35s1Lq7BI1BLup1PCcxi5ki4hMebW9Y4P3HipreiTub7wnCIAACOQjgcP5IDkfeWBPIPB3QYB7Zl796Imb5r//l38NC9JlGS9FUgRkRXVKOw5phqnsxylgMcJzlbKiRE0n5oGxGn8l0kLzkOYZXwX0MPRbkzg83HCJFqWI2b1mj6ZMn0bk+dkyNs3QSH5aJ8kzwgKydYP8Rp36lo9ccNmEa2/qIo6Os9zaA69MfPrVh2fVsgiz2dacd2CQrtskQnbCy5CmCeUOGIQsIi0yhElaqJGfDqjIKm8sL+q4sSRWVtWhrHOV0LT66v27B+05sGNkXXr/kDQlyIxqFOoBedJTBhfZ4cwBWYZOTjpJMTNKQdKgmCynIT1Pun/CSZfd8mVZsOaI7ZCbesxecMfsPclPTg41XTkNksmSg23fOQvJvW0ZKo4VUbouQ7oXoU6FvT7p3Wngq4P6jprTuWOX3TZp1UQp8oiKaxM1lctXvTFt09YN5wS60ymMSPINhwLNVWFV2Uw2EfEDtXc7jJCVilK34ooXp0/63vVfZXDBa+Zs2ItLn525bueKc2W8njwzyepL9dzxzwXzcDMORfQY6YFNwomQFRQdOKb/qIVD+w9/sKSoY5VNIqVTaLjkxFwn1fO9tW/P2Lxj/aS9DTs7sVgkOySPzT50Xd1vQgsolWigkmicKK1RxC2nIqPXiilnfvsHA4uHHnIgdJVc22X23D8/URdsHpcR+0ja3MPGHzZEyPd1xZtHZJu+JMkiTy/cOWzIyJc1P7IjnQ667di7rzNpolAGFLH1SMOgPoMXDup//NN94KB4uL94cD4IgAAIHFYlEfCBAAh8gwlskyu7zXvjsT+v3f7+eXahTmw4IMxQZYb4gThixylwWZRwWVuzOPGJhPc5EaaecFlNcU1WO742lwO29Wt7r9d8Hme+9NBoIbxI2axnBVg268cDckM2XtCyA4QDX2bngQmLAteniLDI9It2nTNm6r+O7XrxA4fKTByp22VVzWvnP7f4oQdrw90d2MHPY9MQYtGoq74fXXjKmMM0TWXRTsKijOuTZbORRkAmRYg8QUGGs6BxzzJMt66hNm6w8OJZWhaRL4Jsmappq/fIZFKkG+w2SEReQJaMUozKSEsXbpk2/qrrj+1w1qtfKcDZrXPfk5e+tOTpPySdVLmweAmeuhZnbBw/RZouyTJMCtNszR4h4enkNYZuoV1SV1xYursgHtsVyFDU1yd6J1K13YQpioUlyJMOOWzEYUpqdBpVZpdLMVONKTLJIMuwKUgQxf3SfRedNeO7J3S96KlDxYazd2sSS89/6qVH7k1p1R2DiEMZJRm51NHLWtWrcQWSInpUlSqGjklGGOHsWG3Mih0oLY7vjlimrKvb13nPvl2l0ZhVnvZTmm4T6RGNHPLJUz2aQmWllVwWOhmeQYV6Gbn7I/umTLju1g5dKx4ZIAY4h1ozlx4/tfDxB7bVvT/NNWvJ1dMUhCHpRlxlSvkeCTyfYiaXURL5KZeKIkWB62q+60tT6oZmR2LU0NCoMpJWENk/esjJc846fsIvC0TfPYe6Pr4PAiAAAiBwcALIhOHuAIG/UwJcYvVGzbPT5r72+G+F5fYky6GMrCMyQ9X/5Hk8hDeiZipxWZs6VPUTC7FAWWeTNJvoNWXKmmY8ZTNKLGYO/bXZir6tX1v7/gd7HQtLLknjcspsRk4qESbVHlmMBqp0TbApR8iZGbZfN8g0o6RLg0KHyMjo8pgBJzxw9onTb+0i+lcfrVvp/ZpXz3vu1UcerqM95TLmKhHmqx42zmaGFDGJnEyjEiKeK8ky46r/yiNHuftZZJFtRki6RI7jkK5pZEe5PJAokW5QAlQYOgUcejLJ1Gw1+NjXMqQLvmXYkKKYnH168sSh4+489fgZv+rSChONGrmu6yur5/+ft1e+cWO8zIw6ooFSXiOZMY3SnqsykLpuUMiugLpFlmaQxuks3yPfZQOPqBLF6tB4jUL1PbnSIcPSlXFKIAP1Pnw76qFFtmaR8AX5DVrypEGn33fGCZP+5WC9YF+M51a5tXTT5rf/YdFbc3/s2+mCwA7J111yfM6KBWTaWjZzKjXSQoMMyT1jBukh91dKElzWyvcVl4fqGvleSMIy1NwuJbp0LvHkDKNHnpNRZhwxPUZ+A7e1FWaG9Bz96NTTv/WzItFjf2vuNc54P/HO3b9duXHhD6kgRY6oo8Dgn2/OtJmqdzD0fIrqzFWqGW9ehsuNdbLsKLkyIMd11f1gSYtsP0Z2UHBgxgVXXD644Mz5rVkDXgMCIAACIPDlBCDCcGeAwN8xgT3yg/hb69/5p7fXLP1hKthXYBX7lPJZiDVBYZElm0UY/7rgLi4uS/zM2p6FCwsaFmVt/doakdYasdXW6zZn9vhBubkEsXnmE/eJZcsus85xhtAo5IG+oU6WESfpEXkZSbpvU7/yivfPO/XiayoKTllzNG+jVftfPee5Vx6dWUe7OvKcME/4qpLU4CyS51HEECTD7Ny1VJJ7o4rItA3yKE2h8MjN8LwsQbFITA0xViV7lkFpp1H1/rF4M3SLfJ+yFvSarYxb0n5D9pwEkUhHZN8OQxZcMvGK73YRx7Z64O/WzOp+r73zwu0bt62anpT7dO7jctgwwjQoEJzJ48HKRK7rUuCnyNJDskwuh7RIE8WUbOSByRZZtkGpVKMSY5GIRW7A7oUB2bZNXsYnIQ2K60WUqs+QLWLpQT2HzT7v1Atv6yqO29KW2FXLtV1eWbH4l6s3Lr/WNVM2lxEGukNJp57MuK5mjylNqASjQYEnSQuEyuhpeqgGe3teOitsdZt00yTXy66VOWt6tmyULenJ4zJBjTQn6vbqPHjh5NMu+8c+9qg2Wcgv2vjszQvefOLOINZAvtVIGs+MC1z1wYNiqGmkBZIyKYdi0UJynIAEr900SBohuS6LQaE+sIhTKQV1Oo0dNeFnk4dc95u2cMNrQQAEQAAEPk8AIgx3BAj8nRPYKz/pvOCtl/59044PrnWNfVrC20/SdMiOGeqTemIXOSXGWGh9ZhbPM8Y0npXERU1SfOoy2Jaywqy3Igu7w/vavutnyw+zJYicAeNMGGfAsnvi6kr1YMyZFk8nQ0SUmUW60SNTi1Kvsn5rxh4z7raRnc6b+2UmEV/nbbWxYenYZ1+Z+USNt61bYKfJ0bkPijN4PABZkPTYkj1bchi1isnNZK3gE94+KiyJkyZ0chwvm63RNeWoyGWYdsRQmUDO7nDZGosvgwcqB5ITbKQZFklfoyJRRkY6uv7K86/7TkXRqcvauvePM29XLlz23B+2Va8+xyj0qdapIzNmkesLSnshmUaEzIilyipDFo5hSt2PnhujaLyEAtcl10kqQ49Qeko4KCdInzvjTCLfIlvEyfBjysGwonvlE2OPO/sXg4tGf9TWtfLrd8l1vV9dOu+/1m57+5JUsJ/iJVHKyBRJMyCfXHJDztIJ0jWbNMqKMb7N+H5iW3zT0pUIzjiOuv84Y8n+MMp503eVKOKSxiDFc906U2m022sXnHHpj/rGT1zTVmOM9bUrT3vhtcdmV2e2dPIjCQqNNIWaWqXaOrt/UmBQGPB64zykQc0n82WGAkpTJKqRm06T4RsUcUspJjvS6MHjf3nB8Kv/rT3scA4IgAAIgECWAEQY7gQQAAHaltlUsfKjZT9/8/0F11AsJbRYSAnnABmG3lSqJ7IN/coTsNmsg//mq/lT7ekFy87eOnzx1d7eMBaLflM7G2d7lABT1vtZz0YWYWxbwMLDT4VkyAiZYZzcpAh7du2z8rQTzv714JIRSwtF15qjfQttSb5z3DOvzHx0b7pqsGs0kGs6KpvpewEVxuOUqE1Q3C4izbepou+Qt2qrM+X7amv667G0SPvJ7Kwo9rHnsr2m8QNqkLHkUQWcmcn2xxkaZ9Z8Cn0iy4yRkDHyUwYVUtGOi8+e/sNO5ce+/FVmHAfjxAORN6dXHP/2Bwv+76qNb17A2bB0mCHiLFYYZEvnuP/KS5NmBCTIY5lMulFEGScgTXDvGJEMuISUMzkyW8Jo8vqIonoxSZdtMSwa2n/U8+NOPP22PtaxKw8nbluSq457b/2if3p3/dLJZAYRV3MoND2ShqRQa+4s5J8YnUTAoleqrBOvjUUulx8atqHKP7m8k+eX8Xg0PSQypKZKQ9l5s3tZxfwJp0z5t4rCE94VQmSVUxuOBrmj/Pk35/7vhu3vXuKYtZQK68gq0MkPM6q3k9cVuoKsSCE5GUmGaVGoC3L9FIWUJDvC1vuuMkYplF3IOxBpvGzSjTeM6nLaE21YBl4KAiAAAiDwBQIQYbglQAAEFIE9cnOnNR+//Z331r55TXViW289Gphk8eBfLp0KlCU5CZ2TJeqTe5Vh4aFLrez9OhqvUz1RX7E+FmLqgV3N/uKsEQ/fZXv07EM89w5F9QJlsuCndSo0Snf36zPk5ZFDRtxxTLzrhqNhR/9lt6uUe+IPL7737nXb3r1SK/LIFWnigb+aMFQvmxaYFDOKSGbsqksvuf5qm+Lhi/Pm3rrP2XqSI+vLlZ+KEtwsDtji3uNQk6FayjyVpdE5A8bZGh40Jg2VWQoao42VPYctHTn4hDtGd+q9+HB4cI/iTtpQunr9ih+u2bTiO9X1uzrbxTol3YTaC/d4cXy4h42t9lmcKU8YLuujkExNV2JMZfNCQYLnpIUWiSBKwrHdkmjnjcP6njDnmEEnPtwnMmj74WYveb37aGOX1Z+8dc7Kde/eUl2/+xhpewbZUtl1BOSqUkO+t1gc8n2ofma4d01yqWtTyWvAMi1KpoiQHprK5l4PNYqIaNXoYeNmDuk3+qHekeFbDmaff6hfXzzrbf2Bt0cvee/ln2/eu/YMLebFKBJQY6aWolFLjV9gx0zBYw0kl1PKbF+kIUk3XcokGyluRsl0o0T1xZlhfU99/YwTL725V6TXx4e6Nr4PAiAAAiBwcAIQYbg7QAAEPiVQLasL9jR+OOq9D9/59vqPV50jzHQHXyRJCo/HCqkHdX4AdrlcTYqsa+A39LeIKjf0/GxPTJP7obLj1zRVcseGHaEjiRMyRhhLdinvvXn4wBPuGdz/2Nk9xOBWGSN8XbcWP2h/eODVs1945Yn/rXP39uMeJXbby2QyZNtx8jkxJuP7R484/YFRg0/5tUvRVJy0zi8sm3VrTd2286rr9vcIhEd2zCRhZ3uS/NBVA6nZEZGfyU2Tbe1tVWYnQ410P7preP8Tnzmm7+j/Hl584ta2lskdjI2U26MrD2w+7aOPV03ZuGXNOamwvmegOZowQrUWHpRtmtxLpZFLPAc6m09VM+t8FokscgQZlDWVsbTCmv7dBy0cOXzMXccU9lopRN/M3zIuUq61PvEah7+7esW1az9eM6XBresqLJ8CcpRRCBvZsNDnEQFsyqH+19SvFrVs0kWEtIBnd2kUpAWVxsr2Duw3YEm/npWP9O1csbiTGNp4uOtlZ8f1jW8OfvP9V25bV/XBBE/LFMYKLXJ5NIXkWXnZn2XiMQZsTsM8df4Zd8ngmyAjiVJWbf9OI14/64Qp/11ZOnpFe7Jyh7sPnA8CIAAC+UTgG/r4lE8hwF5AIPcIVMmqkobEznFvr1wyI5Hee3J9494OKbe+gE0c2HFOcFkVu7s1la61dwfN/VjtPZ8zNO09+EE9ImKqn02GQvUPsSMkt7nx4F3LsBMxI17ftVOvTZW9B8/r1q3y+b52bItohTV4e9d0OOftl/uL3l+/4Kq1H7//gx3VW/pI3bMLCgoomXT8wliH/X27Vz554cnTbiuk7vVspc/CrZ62lVTtX3vaxk82XLlt95bj6lMHSjNBOkrCs9Ss5zBUgseiSOA6oet7en1JUfnWysrBK/r3Hji7X2GvNWWiov5w1n2wc7fL7VHHqx6ysWr1+Rs/+XBCbcO+Cin9QtI1MwgCM5VJkmZxOV3AAkzyEDNdWp5lRJ2CeFFdPFryUa+ufVb27tl/freS3us7Ud+av5VQ/OKaOSuWoETZPn/HkDXrVp67ddfGkzNBsm9DYn8sCNN2EPoFgXA0IdgeXjnZZLNiofBdRzgGFbtdynrv6d190PJe3Xo+2aVj19U9Sd//t7zX2Clxa2ZFzw+r1lz/4cerJyUzjT0dJxOT5Jqkh6GmcRegtNkZlUcbEGmeRpobtaK1pfGy9ZU9Br18XL+TZ/f4ksHTRyL+eE8QAAEQyHcCEGH5HmHsDwTaSYAfLGuptrAu+VHv7TWbTt5Vs31UfWNt77SfKpNSsjWdwY05IffzS7K4D4adt7NuiSoZcch2ra9aGk8dO9j3+a1bfq/FiDLWU3x9Ttbwej77/4JCTZIbChFqrECkJrnvhheqaYZkq3ODTM+0bCduF24tiBeu7d+r38qism7vdqXK2sMtX2tnGNp0mpS7YmurNx+3bU/VafXJA5Wu60ZNw9rbv++QN/p0q3y905fMduKH83raVphwa3rsPrBrcPWBPYMaGvf3cwMvyuJGhiKw9HhDeVHHXR079drQqWPXt7pRxR4hWJEf+aNKVkWi5HStTR6o3Fu9s3JfbU0vz/U6BuRH3DDFY5i5n8qPmPGGAqv4QHFRyZbSsk4biwuK13alShacX8s6mYSUVREiQ+yhTEFNza7BtfX7BjhesjyVTPRNOYmOnu+aXEjJaSeha8l4YeGekqLyHeUlvbd3KO65oZDKdxRTccORvNd2yV2xNO2r2LHrkyHJZKJnJtnYozFTH3PdlBVQUGAYtm5HihtjZtGOWKxwZ8fizlvKCgo+7BMZcdglnEf+bsEVQAAEQOCbQwAi7JsTK6wUBI4qASk32fWUjmVImhnydJNsI0IR9noLbGJrvewhuKapTQe7QRz5I5XtkGpyn/jseoIcwfVpNtk8jjmUZIeSYomO1DHZ3j6cI7+br74CG13spt2mTUnDo8KgM+33iIZ4X7UfFt3Zd11n1FNBXKOMLinGTiVURLZL1JFNIfwjlU36qh2xZm4xVVsj2qzVULFpk2PxZwB8rke2W0ZlvEbeJzdcHdWjac28BpNot7GPTN2kFNt2SKIS8skPOlCdS9T/03kPX+f9lo33OqOGOlo61SuGOll6oMz9C4M0pYM+1IfXFnyd6zqqQcPFQQAEQOBrJPC1PPx8jfvBpUAABEAABEAABEAABEAABEAgpwlAhOV0eLA4EAABEAABEAABEAABEACBfCMAEZZvEcV+QAAEQAAEQAAEQAAEQAAEcpoARFhOhweLAwEQAAEQAAEQAAEQAAEQyDcCEGH5FlHsBwRAAARAAARAAARAAARAIKcJQITldHiwOBAAARAAARAAARAAARAAgXwjABGWbxHFfkAABEAABEAABEAABEAABHKaAERYTocHiwMBEAABEAABEAABEAABEMg3AhBh+RZR7AcEQAAEQAAEQAAEQAAEQCCnCUCE5XR4sDgQAAEQAAEQAAEQAAEQAIF8IwARlm8RxX5AAARAAARAAARAAARAAARymgBEWE6HB4sDARAAARAAARAAARAAARDINwIQYfkWUewHBEAABEAABEAABEAABEAgpwlAhOV0eLA4EAABEAABEAABEAABEACBfCMAEZZvEcV+QAAEQAAEQAAEQAAEQAAEcpoARFhOhweLAwEQAAEQAAEQAAEQAAEQyDcCEGH5FlHsBwRAAARAAARAAARAAARAIKcJQITldHiwOBAAARAAARAACO2kfQAABlBJREFUARAAARAAgXwjABGWbxHFfkAABEAABEAABEAABEAABHKaAERYTocHiwMBEAABEAABEAABEAABEMg3AhBh+RZR7AcEQAAEQAAEQAAEQAAEQCCnCUCE5XR4sDgQAAEQAAEQAAEQAAEQAIF8IwARlm8RxX5AAARAAARAAARAAARAAARymgBEWE6HB4sDARAAARAAARAAARAAARDINwIQYfkWUewHBEAABEAABEAABEAABEAgpwlAhOV0eLA4EAABEAABEAABEAABEACBfCMAEZZvEcV+QAAEQAAEQAAEQAAEQAAEcpoARFhOhweLAwEQAAEQAAEQAAEQAAEQyDcCEGH5FlHsBwRAAARAAARAAARAAARAIKcJQITldHiwOBAAARAAARAAARAAARAAgXwjABGWbxHFfkAABEAABEAABEAABEAABHKaAERYTocHiwMBEAABEAABEAABEAABEMg3AhBh+RZR7AcEQAAEQAAEQAAEQAAEQCCnCUCE5XR4sDgQAAEQAAEQAAEQAAEQAIF8IwARlm8RxX5AAARAAARAAARAAARAAARymgBEWE6HB4sDARAAARAAARAAARAAARDINwIQYfkWUewHBEAABEAABEAABEAABEAgpwlAhOV0eLA4EAABEAABEAABEAABEACBfCMAEZZvEcV+QAAEQAAEQAAEQAAEQAAEcpoARFhOhweLAwEQAAEQAAEQAAEQAAEQyDcCEGH5FlHsBwRAAARAAARAAARAAARAIKcJQITldHiwOBAAARAAARAAARAAARAAgXwjABGWbxHFfkAABEAABEAABEAABEAABHKaAERYTocHiwMBEAABEAABEAABEAABEMg3AhBh+RZR7AcEQAAEQAAEQAAEQAAEQCCnCUCE5XR4sDgQAAEQAAEQAAEQAAEQAIF8IwARlm8RxX5AAARAAARAAARAAARAAARymgBEWE6HB4sDARAAARAAARAAARAAARDINwIQYfkWUewHBEAABEAABEAABEAABEAgpwlAhOV0eLA4EAABEAABEAABEAABEACBfCMAEZZvEcV+QAAEQAAEQAAEQAAEQAAEcpoARFhOhweLAwEQAAEQAAEQAAEQAAEQyDcCEGH5FlHsBwRAAARAAARAAARAAARAIKcJQITldHiwOBAAARAAARAAARAAARAAgXwjABGWbxHFfkAABEAABEAABEAABEAABHKaAERYTocHiwMBEAABEAABEAABEAABEMg3AhBh+RZR7AcEQAAEQAAEQAAEQAAEQCCnCUCE5XR4sDgQAAEQAAEQAAEQAAEQAIF8IwARlm8RxX5AAARAAARAAARAAARAAARymgBEWE6HB4sDARAAARAAARAAARAAARDINwIQYfkWUewHBEAABEAABEAABEAABEAgpwlAhOV0eLA4EAABEAABEAABEAABEACBfCMAEZZvEcV+QAAEQAAEQAAEQAAEQAAEcpoARFhOhweLAwEQAAEQAAEQAAEQAAEQyDcCEGH5FlHsBwRAAARAAARAAARAAARAIKcJQITldHiwOBAAARAAARAAARAAARAAgXwjABGWbxHFfkAABEAABEAABEAABEAABHKaAERYTocHiwMBEAABEAABEAABEAABEMg3AhBh+RZR7AcEQAAEQAAEQAAEQAAEQCCnCUCE5XR4sDgQAAEQAAEQAAEQAAEQAIF8IwARlm8RxX5AAARAAARAAARAAARAAARymgBEWE6HB4sDARAAARAAARAAARAAARDINwIQYfkWUewHBEAABEAABEAABEAABEAgpwlAhOV0eLA4EAABEAABEAABEAABEACBfCMAEZZvEcV+QAAEQAAEQAAEQAAEQAAEcpoARFhOhweLAwEQAAEQAAEQAAEQAAEQyDcCEGH5FlHsBwRAAARAAARAAARAAARAIKcJQITldHiwOBAAARAAARAAARAAARAAgXwjABGWbxHFfkAABEAABEAABEAABEAABHKaAERYTocHiwMBEAABEAABEAABEAABEMg3AhBh+RZR7AcEQAAEQAAEQAAEQAAEQCCnCUCE5XR4sDgQAAEQAAEQAAEQAAEQAIF8IwARlm8RxX5AAARAAARAAARAAARAAARymgBEWE6HB4sDARAAARAAARAAARAAARDINwL/H+2qIEfUAtHBAAAAAElFTkSuQmCC;" vertex="1" parent="UEzPUAAOIrF-is8g5C7q-2">
          <mxGeometry x="540" y="237.52" width="240.5" height="80.48" as="geometry" />
        </mxCell>
        <mxCell id="-QjtrjUzRDEMRZ5MF8oH-47" value="3 Tier Architecture" style="text;html=1;resizable=0;points=[];autosize=1;align=left;verticalAlign=top;spacingTop=-4;fontSize=30;fontStyle=1" parent="1" vertex="1">
          <mxGeometry x="8" y="100" width="270" height="40" as="geometry" />
        </mxCell>
        <mxCell id="SCVMTBWpLvtzJIhz15lM-1" value="" style="line;strokeWidth=2;html=1;fontSize=14;" parent="1" vertex="1">
          <mxGeometry x="8" y="140.5" width="1060" height="10" as="geometry" />
        </mxCell>
        <mxCell id="7OVz4w7n9kzEPWy-4BBC-4" value="1" style="rounded=1;whiteSpace=wrap;html=1;fillColor=#007CBD;strokeColor=none;fontColor=#FFFFFF;fontStyle=1;fontSize=22;labelBackgroundColor=none;" parent="1" vertex="1">
          <mxGeometry x="1591.5" y="60" width="40" height="38" as="geometry" />
        </mxCell>
        <mxCell id="7OVz4w7n9kzEPWy-4BBC-5" value="2" style="rounded=1;whiteSpace=wrap;html=1;fillColor=#007CBD;strokeColor=none;fontColor=#FFFFFF;fontStyle=1;fontSize=22;labelBackgroundColor=none;" parent="1" vertex="1">
          <mxGeometry x="1590" y="182" width="40" height="38" as="geometry" />
        </mxCell>
        <mxCell id="7OVz4w7n9kzEPWy-4BBC-6" value="3" style="rounded=1;whiteSpace=wrap;html=1;fillColor=#007CBD;strokeColor=none;fontColor=#FFFFFF;fontStyle=1;fontSize=22;labelBackgroundColor=none;" parent="1" vertex="1">
          <mxGeometry x="1590" y="302" width="40" height="38" as="geometry" />
        </mxCell>
        <mxCell id="7OVz4w7n9kzEPWy-4BBC-7" value="4" style="rounded=1;whiteSpace=wrap;html=1;fillColor=#007CBD;strokeColor=none;fontColor=#FFFFFF;fontStyle=1;fontSize=22;labelBackgroundColor=none;" parent="1" vertex="1">
          <mxGeometry x="1590" y="416" width="40" height="38" as="geometry" />
        </mxCell>
        <mxCell id="7OVz4w7n9kzEPWy-4BBC-8" value="5" style="rounded=1;whiteSpace=wrap;html=1;fillColor=#007CBD;strokeColor=none;fontColor=#FFFFFF;fontStyle=1;fontSize=22;labelBackgroundColor=none;" parent="1" vertex="1">
          <mxGeometry x="1591.5" y="533" width="40" height="38" as="geometry" />
        </mxCell>
        <mxCell id="7OVz4w7n9kzEPWy-4BBC-9" value="6" style="rounded=1;whiteSpace=wrap;html=1;fillColor=#007CBD;strokeColor=none;fontColor=#FFFFFF;fontStyle=1;fontSize=22;labelBackgroundColor=none;" parent="1" vertex="1">
          <mxGeometry x="1592.5" y="648" width="40" height="38" as="geometry" />
        </mxCell>
        <mxCell id="7OVz4w7n9kzEPWy-4BBC-10" value="7" style="rounded=1;whiteSpace=wrap;html=1;fillColor=#007CBD;strokeColor=none;fontColor=#FFFFFF;fontStyle=1;fontSize=22;labelBackgroundColor=none;" parent="1" vertex="1">
          <mxGeometry x="1592" y="764" width="40" height="38" as="geometry" />
        </mxCell>
        <mxCell id="7OVz4w7n9kzEPWy-4BBC-11" value="8" style="rounded=1;whiteSpace=wrap;html=1;fillColor=#007CBD;strokeColor=none;fontColor=#FFFFFF;fontStyle=1;fontSize=22;labelBackgroundColor=none;" parent="1" vertex="1">
          <mxGeometry x="1592.5" y="882" width="40" height="38" as="geometry" />
        </mxCell>
      </root>
    </mxGraphModel>
  </diagram>
</mxfile>
